<ttFont>
    <TTGlyph name="A" xMin="20" yMin="0" xMax="690" yMax="700">
      <contour>
        <pt x="488" y="0" on="1"/>
        <pt x="488" y="55" on="1"/>
        <pt x="549" y="55" on="1"/>
        <pt x="503" y="185" on="1"/>
        <pt x="195" y="185" on="1"/>
        <pt x="150" y="55" on="1"/>
        <pt x="222" y="55" on="1"/>
        <pt x="222" y="0" on="1"/>
        <pt x="20" y="0" on="1"/>
        <pt x="20" y="55" on="1"/>
        <pt x="86" y="55" on="1"/>
        <pt x="319" y="700" on="1"/>
        <pt x="380" y="700" on="1"/>
        <pt x="621" y="55" on="1"/>
        <pt x="690" y="55" on="1"/>
        <pt x="690" y="0" on="1"/>
      </contour>
      <contour>
        <pt x="346" y="624" on="1"/>
        <pt x="212" y="235" on="1"/>
        <pt x="485" y="235" on="1"/>
      </contour>
    </TTGlyph>
    <TTGlyph name="AE" xMin="20" yMin="-1" xMax="696" yMax="700">
      <contour>
        <pt x="20" y="-1" on="1"/>
        <pt x="21" y="33" on="1"/>
        <pt x="73" y="40" on="1"/>
        <pt x="80" y="40" on="0"/>
        <pt x="84" y="52" on="1"/>
        <pt x="85" y="53" on="1"/>
        <pt x="328" y="700" on="1"/>
        <pt x="654" y="700" on="1"/>
        <pt x="667" y="556" on="1"/>
        <pt x="617" y="548" on="1"/>
        <pt x="605" y="640" on="1"/>
        <pt x="426" y="640" on="1"/>
        <pt x="426" y="377" on="1"/>
        <pt x="571" y="377" on="1"/>
        <pt x="581" y="379" on="0"/>
        <pt x="581" y="389" on="1"/>
        <pt x="585" y="438" on="1"/>
        <pt x="631" y="440" on="1"/>
        <pt x="631" y="269" on="1"/>
        <pt x="630" y="269" on="0"/>
        <pt x="608" y="268" on="1"/>
        <pt x="586" y="268" on="1"/>
        <pt x="582" y="317" on="1"/>
        <pt x="426" y="317" on="1"/>
        <pt x="426" y="60" on="1"/>
        <pt x="632" y="60" on="1"/>
        <pt x="647" y="180" on="1"/>
        <pt x="696" y="175" on="1"/>
        <pt x="681" y="0" on="1"/>
        <pt x="358" y="0" on="1"/>
        <pt x="358" y="185" on="1"/>
        <pt x="196" y="185" on="1"/>
        <pt x="144" y="40" on="1"/>
        <pt x="222" y="35" on="1"/>
        <pt x="222" y="34" on="0"/>
        <pt x="222" y="17" on="1"/>
        <pt x="221" y="0" on="1"/>
      </contour>
      <contour>
        <pt x="358" y="235" on="1"/>
        <pt x="358" y="636" on="1"/>
        <pt x="214" y="235" on="1"/>
      </contour>
    </TTGlyph>
    <TTGlyph name="Aacute" xMin="20" yMin="0" xMax="690" yMax="901">
      <contour>
        <pt x="488" y="0" on="1"/>
        <pt x="488" y="55" on="1"/>
        <pt x="549" y="55" on="1"/>
        <pt x="503" y="185" on="1"/>
        <pt x="195" y="185" on="1"/>
        <pt x="150" y="55" on="1"/>
        <pt x="222" y="55" on="1"/>
        <pt x="222" y="0" on="1"/>
        <pt x="20" y="0" on="1"/>
        <pt x="20" y="55" on="1"/>
        <pt x="86" y="55" on="1"/>
        <pt x="319" y="700" on="1"/>
        <pt x="380" y="700" on="1"/>
        <pt x="621" y="55" on="1"/>
        <pt x="690" y="55" on="1"/>
        <pt x="690" y="0" on="1"/>
      </contour>
      <contour>
        <pt x="346" y="624" on="1"/>
        <pt x="212" y="235" on="1"/>
        <pt x="485" y="235" on="1"/>
      </contour>
      <contour>
        <pt x="429" y="901" on="1"/>
        <pt x="489" y="894" on="1"/>
        <pt x="370" y="746" on="1"/>
        <pt x="325" y="754" on="1"/>
      </contour>
    </TTGlyph>
    <TTGlyph name="Acircumflex" xMin="20" yMin="0" xMax="690" yMax="940">
      <contour>
        <pt x="488" y="0" on="1"/>
        <pt x="488" y="55" on="1"/>
        <pt x="549" y="55" on="1"/>
        <pt x="503" y="185" on="1"/>
        <pt x="195" y="185" on="1"/>
        <pt x="150" y="55" on="1"/>
        <pt x="222" y="55" on="1"/>
        <pt x="222" y="0" on="1"/>
        <pt x="20" y="0" on="1"/>
        <pt x="20" y="55" on="1"/>
        <pt x="86" y="55" on="1"/>
        <pt x="319" y="700" on="1"/>
        <pt x="380" y="700" on="1"/>
        <pt x="621" y="55" on="1"/>
        <pt x="690" y="55" on="1"/>
        <pt x="690" y="0" on="1"/>
      </contour>
      <contour>
        <pt x="346" y="624" on="1"/>
        <pt x="212" y="235" on="1"/>
        <pt x="485" y="235" on="1"/>
      </contour>
      <contour>
        <pt x="177" y="779" on="1"/>
        <pt x="344" y="940" on="1"/>
        <pt x="502" y="786" on="0"/>
        <pt x="510" y="779" on="1"/>
        <pt x="477" y="750" on="1"/>
        <pt x="343" y="883" on="1"/>
        <pt x="211" y="750" on="1"/>
      </contour>
    </TTGlyph>
    <TTGlyph name="Adieresis" xMin="20" yMin="0" xMax="690" yMax="830">
      <contour>
        <pt x="488" y="0" on="1"/>
        <pt x="488" y="55" on="1"/>
        <pt x="549" y="55" on="1"/>
        <pt x="503" y="185" on="1"/>
        <pt x="195" y="185" on="1"/>
        <pt x="150" y="55" on="1"/>
        <pt x="222" y="55" on="1"/>
        <pt x="222" y="0" on="1"/>
        <pt x="20" y="0" on="1"/>
        <pt x="20" y="55" on="1"/>
        <pt x="86" y="55" on="1"/>
        <pt x="319" y="700" on="1"/>
        <pt x="380" y="700" on="1"/>
        <pt x="621" y="55" on="1"/>
        <pt x="690" y="55" on="1"/>
        <pt x="690" y="0" on="1"/>
      </contour>
      <contour>
        <pt x="346" y="624" on="1"/>
        <pt x="212" y="235" on="1"/>
        <pt x="485" y="235" on="1"/>
      </contour>
      <contour>
        <pt x="221" y="750" on="0"/>
        <pt x="200" y="773" on="0"/>
        <pt x="200" y="809" on="0"/>
        <pt x="221" y="830" on="0"/>
        <pt x="256" y="830" on="0"/>
        <pt x="277" y="809" on="0"/>
        <pt x="277" y="771" on="0"/>
        <pt x="255" y="750" on="0"/>
      </contour>
      <contour>
        <pt x="436" y="750" on="0"/>
        <pt x="416" y="773" on="0"/>
        <pt x="416" y="809" on="0"/>
        <pt x="436" y="830" on="0"/>
        <pt x="453" y="830" on="1"/>
        <pt x="493" y="830" on="0"/>
        <pt x="493" y="790" on="1"/>
        <pt x="493" y="771" on="0"/>
        <pt x="471" y="750" on="0"/>
      </contour>
    </TTGlyph>
    <TTGlyph name="Agrave" xMin="20" yMin="0" xMax="690" yMax="901">
      <contour>
        <pt x="488" y="0" on="1"/>
        <pt x="488" y="55" on="1"/>
        <pt x="549" y="55" on="1"/>
        <pt x="503" y="185" on="1"/>
        <pt x="195" y="185" on="1"/>
        <pt x="150" y="55" on="1"/>
        <pt x="222" y="55" on="1"/>
        <pt x="222" y="0" on="1"/>
        <pt x="20" y="0" on="1"/>
        <pt x="20" y="55" on="1"/>
        <pt x="86" y="55" on="1"/>
        <pt x="319" y="700" on="1"/>
        <pt x="380" y="700" on="1"/>
        <pt x="621" y="55" on="1"/>
        <pt x="690" y="55" on="1"/>
        <pt x="690" y="0" on="1"/>
      </contour>
      <contour>
        <pt x="346" y="624" on="1"/>
        <pt x="212" y="235" on="1"/>
        <pt x="485" y="235" on="1"/>
      </contour>
      <contour>
        <pt x="370" y="754" on="1"/>
        <pt x="324" y="746" on="1"/>
        <pt x="206" y="894" on="1"/>
        <pt x="266" y="901" on="1"/>
      </contour>
    </TTGlyph>
    <TTGlyph name="Aring" xMin="20" yMin="0" xMax="690" yMax="909">
      <contour>
        <pt x="488" y="0" on="1"/>
        <pt x="488" y="55" on="1"/>
        <pt x="549" y="55" on="1"/>
        <pt x="503" y="185" on="1"/>
        <pt x="195" y="185" on="1"/>
        <pt x="150" y="55" on="1"/>
        <pt x="222" y="55" on="1"/>
        <pt x="222" y="0" on="1"/>
        <pt x="20" y="0" on="1"/>
        <pt x="20" y="55" on="1"/>
        <pt x="86" y="55" on="1"/>
        <pt x="319" y="700" on="1"/>
        <pt x="380" y="700" on="1"/>
        <pt x="621" y="55" on="1"/>
        <pt x="690" y="55" on="1"/>
        <pt x="690" y="0" on="1"/>
      </contour>
      <contour>
        <pt x="346" y="624" on="1"/>
        <pt x="212" y="235" on="1"/>
        <pt x="485" y="235" on="1"/>
      </contour>
      <contour>
        <pt x="310" y="750" on="0"/>
        <pt x="263" y="788" on="0"/>
        <pt x="263" y="862" on="0"/>
        <pt x="313" y="909" on="0"/>
        <pt x="347" y="909" on="1"/>
        <pt x="432" y="909" on="0"/>
        <pt x="432" y="829" on="1"/>
        <pt x="432" y="796" on="0"/>
        <pt x="383" y="750" on="0"/>
      </contour>
      <contour>
        <pt x="327" y="881" on="0"/>
        <pt x="298" y="850" on="0"/>
        <pt x="298" y="804" on="0"/>
        <pt x="325" y="778" on="0"/>
        <pt x="368" y="778" on="0"/>
        <pt x="397" y="808" on="0"/>
        <pt x="397" y="854" on="0"/>
        <pt x="369" y="881" on="0"/>
      </contour>
    </TTGlyph>
    <TTGlyph name="Atilde" xMin="20" yMin="0" xMax="690" yMax="827">
      <contour>
        <pt x="488" y="0" on="1"/>
        <pt x="488" y="55" on="1"/>
        <pt x="549" y="55" on="1"/>
        <pt x="503" y="185" on="1"/>
        <pt x="195" y="185" on="1"/>
        <pt x="150" y="55" on="1"/>
        <pt x="222" y="55" on="1"/>
        <pt x="222" y="0" on="1"/>
        <pt x="20" y="0" on="1"/>
        <pt x="20" y="55" on="1"/>
        <pt x="86" y="55" on="1"/>
        <pt x="319" y="700" on="1"/>
        <pt x="380" y="700" on="1"/>
        <pt x="621" y="55" on="1"/>
        <pt x="690" y="55" on="1"/>
        <pt x="690" y="0" on="1"/>
      </contour>
      <contour>
        <pt x="346" y="624" on="1"/>
        <pt x="212" y="235" on="1"/>
        <pt x="485" y="235" on="1"/>
      </contour>
      <contour>
        <pt x="259" y="821" on="1"/>
        <pt x="293" y="821" on="0"/>
        <pt x="428" y="788" on="0"/>
        <pt x="480" y="788" on="0"/>
        <pt x="498" y="806" on="0"/>
        <pt x="502" y="827" on="1"/>
        <pt x="537" y="820" on="1"/>
        <pt x="528" y="781" on="0"/>
        <pt x="494" y="750" on="0"/>
        <pt x="441" y="750" on="0"/>
        <pt x="367" y="769" on="1"/>
        <pt x="301" y="784" on="0"/>
        <pt x="265" y="784" on="1"/>
        <pt x="212" y="784" on="0"/>
        <pt x="205" y="749" on="1"/>
        <pt x="171" y="756" on="1"/>
        <pt x="184" y="821" on="0"/>
      </contour>
    </TTGlyph>
    <TTGlyph name="B" xMin="50" yMin="0" xMax="522" yMax="700">
      <contour>
        <pt x="50" y="645" on="1"/>
        <pt x="50" y="700" on="1"/>
        <pt x="265" y="700" on="1"/>
        <pt x="481" y="700" on="0"/>
        <pt x="481" y="531" on="1"/>
        <pt x="481" y="460" on="0"/>
        <pt x="427" y="378" on="1"/>
        <pt x="522" y="339" on="0"/>
        <pt x="522" y="207" on="1"/>
        <pt x="522" y="89" on="0"/>
        <pt x="403" y="0" on="0"/>
        <pt x="280" y="0" on="1"/>
        <pt x="50" y="0" on="1"/>
        <pt x="50" y="55" on="1"/>
        <pt x="115" y="55" on="1"/>
        <pt x="115" y="645" on="1"/>
      </contour>
      <contour>
        <pt x="300" y="343" on="1"/>
        <pt x="183" y="343" on="1"/>
        <pt x="183" y="55" on="1"/>
        <pt x="275" y="55" on="1"/>
        <pt x="321" y="55" on="0"/>
        <pt x="379" y="65" on="0"/>
        <pt x="405" y="80" on="1"/>
        <pt x="454" y="107" on="0"/>
        <pt x="454" y="203" on="1"/>
        <pt x="454" y="279" on="0"/>
        <pt x="377" y="343" on="0"/>
      </contour>
      <contour>
        <pt x="305" y="398" on="1"/>
        <pt x="342" y="398" on="0"/>
        <pt x="369" y="394" on="1"/>
        <pt x="413" y="463" on="0"/>
        <pt x="413" y="525" on="1"/>
        <pt x="413" y="645" on="0"/>
        <pt x="260" y="645" on="1"/>
        <pt x="183" y="645" on="1"/>
        <pt x="183" y="398" on="1"/>
      </contour>
    </TTGlyph>
    <TTGlyph name="C" xMin="40" yMin="-4" xMax="537" yMax="701">
      <contour>
        <pt x="353" y="646" on="1"/>
        <pt x="240" y="646" on="0"/>
        <pt x="108" y="478" on="0"/>
        <pt x="108" y="320" on="1"/>
        <pt x="108" y="252" on="0"/>
        <pt x="136" y="150" on="0"/>
        <pt x="177" y="94" on="0"/>
        <pt x="207" y="78" on="1"/>
        <pt x="255" y="51" on="0"/>
        <pt x="319" y="51" on="1"/>
        <pt x="418" y="51" on="0"/>
        <pt x="517" y="73" on="1"/>
        <pt x="529" y="21" on="1"/>
        <pt x="512" y="15" on="0"/>
        <pt x="365" y="-4" on="0"/>
        <pt x="273" y="-4" on="0"/>
        <pt x="205" y="9" on="0"/>
        <pt x="129" y="51" on="0"/>
        <pt x="76" y="120" on="0"/>
        <pt x="40" y="240" on="0"/>
        <pt x="40" y="320" on="1"/>
        <pt x="40" y="497" on="0"/>
        <pt x="121" y="596" on="1"/>
        <pt x="206" y="700" on="0"/>
        <pt x="353" y="700" on="1"/>
        <pt x="398" y="700" on="0"/>
        <pt x="503" y="683" on="0"/>
        <pt x="525" y="675" on="1"/>
        <pt x="537" y="531" on="1"/>
        <pt x="488" y="524" on="1"/>
        <pt x="474" y="632" on="1"/>
        <pt x="410" y="646" on="0"/>
      </contour>
    </TTGlyph>
    <TTGlyph name="Ccedilla" xMin="40" yMin="-139" xMax="537" yMax="701">
      <contour>
        <pt x="353" y="646" on="1"/>
        <pt x="240" y="646" on="0"/>
        <pt x="108" y="478" on="0"/>
        <pt x="108" y="320" on="1"/>
        <pt x="108" y="252" on="0"/>
        <pt x="136" y="150" on="0"/>
        <pt x="177" y="94" on="0"/>
        <pt x="207" y="78" on="1"/>
        <pt x="255" y="51" on="0"/>
        <pt x="319" y="51" on="1"/>
        <pt x="418" y="51" on="0"/>
        <pt x="517" y="73" on="1"/>
        <pt x="529" y="21" on="1"/>
        <pt x="512" y="15" on="0"/>
        <pt x="365" y="-4" on="0"/>
        <pt x="273" y="-4" on="0"/>
        <pt x="205" y="9" on="0"/>
        <pt x="129" y="51" on="0"/>
        <pt x="76" y="120" on="0"/>
        <pt x="40" y="240" on="0"/>
        <pt x="40" y="320" on="1"/>
        <pt x="40" y="497" on="0"/>
        <pt x="121" y="596" on="1"/>
        <pt x="206" y="700" on="0"/>
        <pt x="353" y="700" on="1"/>
        <pt x="398" y="700" on="0"/>
        <pt x="503" y="683" on="0"/>
        <pt x="525" y="675" on="1"/>
        <pt x="537" y="531" on="1"/>
        <pt x="488" y="524" on="1"/>
        <pt x="474" y="632" on="1"/>
        <pt x="410" y="646" on="0"/>
      </contour>
      <contour>
        <pt x="270" y="-118" on="1"/>
        <pt x="345" y="-92" on="0"/>
        <pt x="345" y="-46" on="1"/>
        <pt x="345" y="-21" on="0"/>
        <pt x="338" y="0" on="1"/>
        <pt x="373" y="6" on="1"/>
        <pt x="381" y="-15" on="0"/>
        <pt x="381" y="-32" on="1"/>
        <pt x="381" y="-70" on="0"/>
        <pt x="322" y="-129" on="0"/>
        <pt x="280" y="-139" on="1"/>
      </contour>
    </TTGlyph>
    <TTGlyph name="D" xMin="50" yMin="0" xMax="589" yMax="700">
      <contour>
        <pt x="50" y="645" on="1"/>
        <pt x="50" y="700" on="1"/>
        <pt x="291" y="700" on="1"/>
        <pt x="426" y="700" on="0"/>
        <pt x="589" y="543" on="0"/>
        <pt x="589" y="366" on="1"/>
        <pt x="589" y="191" on="0"/>
        <pt x="532" y="104" on="1"/>
        <pt x="482" y="28" on="0"/>
        <pt x="376" y="8" on="1"/>
        <pt x="329" y="0" on="0"/>
        <pt x="266" y="0" on="1"/>
        <pt x="50" y="0" on="1"/>
        <pt x="50" y="55" on="1"/>
        <pt x="111" y="55" on="1"/>
        <pt x="111" y="645" on="1"/>
      </contour>
      <contour>
        <pt x="286" y="645" on="1"/>
        <pt x="179" y="645" on="1"/>
        <pt x="179" y="55" on="1"/>
        <pt x="261" y="55" on="1"/>
        <pt x="394" y="55" on="0"/>
        <pt x="444" y="104" on="1"/>
        <pt x="497" y="155" on="0"/>
        <pt x="512" y="242" on="1"/>
        <pt x="521" y="293" on="0"/>
        <pt x="521" y="361" on="1"/>
        <pt x="521" y="511" on="0"/>
        <pt x="390" y="645" on="0"/>
      </contour>
    </TTGlyph>
    <TTGlyph name="E" xMin="50" yMin="0" xMax="516" yMax="700">
      <contour>
        <pt x="50" y="645" on="1"/>
        <pt x="50" y="700" on="1"/>
        <pt x="475" y="700" on="1"/>
        <pt x="474" y="694" on="1"/>
        <pt x="487" y="556" on="1"/>
        <pt x="437" y="548" on="1"/>
        <pt x="425" y="645" on="1"/>
        <pt x="179" y="645" on="1"/>
        <pt x="179" y="377" on="1"/>
        <pt x="397" y="377" on="1"/>
        <pt x="397" y="440" on="1"/>
        <pt x="452" y="440" on="1"/>
        <pt x="452" y="268" on="1"/>
        <pt x="397" y="268" on="1"/>
        <pt x="397" y="322" on="1"/>
        <pt x="179" y="322" on="1"/>
        <pt x="179" y="55" on="1"/>
        <pt x="452" y="55" on="1"/>
        <pt x="467" y="180" on="1"/>
        <pt x="516" y="175" on="1"/>
        <pt x="501" y="0" on="1"/>
        <pt x="50" y="0" on="1"/>
        <pt x="50" y="55" on="1"/>
        <pt x="111" y="55" on="1"/>
        <pt x="111" y="645" on="1"/>
      </contour>
    </TTGlyph>
    <TTGlyph name="Eacute" xMin="20" yMin="0" xMax="486" yMax="900">
      <contour>
        <pt x="20" y="645" on="1"/>
        <pt x="20" y="700" on="1"/>
        <pt x="445" y="700" on="1"/>
        <pt x="444" y="694" on="1"/>
        <pt x="457" y="556" on="1"/>
        <pt x="407" y="548" on="1"/>
        <pt x="395" y="645" on="1"/>
        <pt x="149" y="645" on="1"/>
        <pt x="149" y="377" on="1"/>
        <pt x="367" y="377" on="1"/>
        <pt x="367" y="440" on="1"/>
        <pt x="422" y="440" on="1"/>
        <pt x="422" y="268" on="1"/>
        <pt x="367" y="268" on="1"/>
        <pt x="367" y="322" on="1"/>
        <pt x="149" y="322" on="1"/>
        <pt x="149" y="55" on="1"/>
        <pt x="422" y="55" on="1"/>
        <pt x="437" y="180" on="1"/>
        <pt x="486" y="175" on="1"/>
        <pt x="471" y="0" on="1"/>
        <pt x="20" y="0" on="1"/>
        <pt x="20" y="55" on="1"/>
        <pt x="81" y="55" on="1"/>
        <pt x="81" y="645" on="1"/>
      </contour>
      <contour>
        <pt x="330" y="900" on="1"/>
        <pt x="390" y="893" on="1"/>
        <pt x="271" y="745" on="1"/>
        <pt x="226" y="753" on="1"/>
      </contour>
    </TTGlyph>
    <TTGlyph name="Ecircumflex" xMin="20" yMin="0" xMax="486" yMax="939">
      <contour>
        <pt x="20" y="645" on="1"/>
        <pt x="20" y="700" on="1"/>
        <pt x="445" y="700" on="1"/>
        <pt x="444" y="694" on="1"/>
        <pt x="457" y="556" on="1"/>
        <pt x="407" y="548" on="1"/>
        <pt x="395" y="645" on="1"/>
        <pt x="149" y="645" on="1"/>
        <pt x="149" y="377" on="1"/>
        <pt x="367" y="377" on="1"/>
        <pt x="367" y="440" on="1"/>
        <pt x="422" y="440" on="1"/>
        <pt x="422" y="268" on="1"/>
        <pt x="367" y="268" on="1"/>
        <pt x="367" y="322" on="1"/>
        <pt x="149" y="322" on="1"/>
        <pt x="149" y="55" on="1"/>
        <pt x="422" y="55" on="1"/>
        <pt x="437" y="180" on="1"/>
        <pt x="486" y="175" on="1"/>
        <pt x="471" y="0" on="1"/>
        <pt x="20" y="0" on="1"/>
        <pt x="20" y="55" on="1"/>
        <pt x="81" y="55" on="1"/>
        <pt x="81" y="645" on="1"/>
      </contour>
      <contour>
        <pt x="98" y="778" on="1"/>
        <pt x="265" y="939" on="1"/>
        <pt x="423" y="785" on="0"/>
        <pt x="431" y="778" on="1"/>
        <pt x="398" y="749" on="1"/>
        <pt x="264" y="882" on="1"/>
        <pt x="132" y="749" on="1"/>
      </contour>
    </TTGlyph>
    <TTGlyph name="Edieresis" xMin="20" yMin="0" xMax="486" yMax="830">
      <contour>
        <pt x="20" y="645" on="1"/>
        <pt x="20" y="700" on="1"/>
        <pt x="445" y="700" on="1"/>
        <pt x="444" y="694" on="1"/>
        <pt x="457" y="556" on="1"/>
        <pt x="407" y="548" on="1"/>
        <pt x="395" y="645" on="1"/>
        <pt x="149" y="645" on="1"/>
        <pt x="149" y="377" on="1"/>
        <pt x="367" y="377" on="1"/>
        <pt x="367" y="440" on="1"/>
        <pt x="422" y="440" on="1"/>
        <pt x="422" y="268" on="1"/>
        <pt x="367" y="268" on="1"/>
        <pt x="367" y="322" on="1"/>
        <pt x="149" y="322" on="1"/>
        <pt x="149" y="55" on="1"/>
        <pt x="422" y="55" on="1"/>
        <pt x="437" y="180" on="1"/>
        <pt x="486" y="175" on="1"/>
        <pt x="471" y="0" on="1"/>
        <pt x="20" y="0" on="1"/>
        <pt x="20" y="55" on="1"/>
        <pt x="81" y="55" on="1"/>
        <pt x="81" y="645" on="1"/>
      </contour>
      <contour>
        <pt x="144" y="750" on="0"/>
        <pt x="123" y="773" on="0"/>
        <pt x="123" y="809" on="0"/>
        <pt x="144" y="830" on="0"/>
        <pt x="179" y="830" on="0"/>
        <pt x="200" y="809" on="0"/>
        <pt x="200" y="771" on="0"/>
        <pt x="178" y="750" on="0"/>
      </contour>
      <contour>
        <pt x="359" y="750" on="0"/>
        <pt x="339" y="773" on="0"/>
        <pt x="339" y="809" on="0"/>
        <pt x="359" y="830" on="0"/>
        <pt x="376" y="830" on="1"/>
        <pt x="416" y="830" on="0"/>
        <pt x="416" y="790" on="1"/>
        <pt x="416" y="771" on="0"/>
        <pt x="394" y="750" on="0"/>
      </contour>
    </TTGlyph>
    <TTGlyph name="Egrave" xMin="20" yMin="0" xMax="486" yMax="900">
      <contour>
        <pt x="20" y="645" on="1"/>
        <pt x="20" y="700" on="1"/>
        <pt x="445" y="700" on="1"/>
        <pt x="444" y="694" on="1"/>
        <pt x="457" y="556" on="1"/>
        <pt x="407" y="548" on="1"/>
        <pt x="395" y="645" on="1"/>
        <pt x="149" y="645" on="1"/>
        <pt x="149" y="377" on="1"/>
        <pt x="367" y="377" on="1"/>
        <pt x="367" y="440" on="1"/>
        <pt x="422" y="440" on="1"/>
        <pt x="422" y="268" on="1"/>
        <pt x="367" y="268" on="1"/>
        <pt x="367" y="322" on="1"/>
        <pt x="149" y="322" on="1"/>
        <pt x="149" y="55" on="1"/>
        <pt x="422" y="55" on="1"/>
        <pt x="437" y="180" on="1"/>
        <pt x="486" y="175" on="1"/>
        <pt x="471" y="0" on="1"/>
        <pt x="20" y="0" on="1"/>
        <pt x="20" y="55" on="1"/>
        <pt x="81" y="55" on="1"/>
        <pt x="81" y="645" on="1"/>
      </contour>
      <contour>
        <pt x="299" y="753" on="1"/>
        <pt x="253" y="745" on="1"/>
        <pt x="135" y="893" on="1"/>
        <pt x="195" y="900" on="1"/>
      </contour>
    </TTGlyph>
    <TTGlyph name="Eth" xMin="50" yMin="0" xMax="589" yMax="700">
      <contour>
        <pt x="50" y="386" on="1"/>
        <pt x="327" y="386" on="1"/>
        <pt x="327" y="358" on="1"/>
        <pt x="50" y="358" on="1"/>
      </contour>
      <contour>
        <pt x="50" y="645" on="1"/>
        <pt x="50" y="700" on="1"/>
        <pt x="291" y="700" on="1"/>
        <pt x="426" y="700" on="0"/>
        <pt x="589" y="543" on="0"/>
        <pt x="589" y="366" on="1"/>
        <pt x="589" y="191" on="0"/>
        <pt x="532" y="104" on="1"/>
        <pt x="482" y="28" on="0"/>
        <pt x="376" y="8" on="1"/>
        <pt x="329" y="0" on="0"/>
        <pt x="266" y="0" on="1"/>
        <pt x="50" y="0" on="1"/>
        <pt x="50" y="55" on="1"/>
        <pt x="111" y="55" on="1"/>
        <pt x="111" y="645" on="1"/>
      </contour>
      <contour>
        <pt x="286" y="645" on="1"/>
        <pt x="179" y="645" on="1"/>
        <pt x="179" y="55" on="1"/>
        <pt x="261" y="55" on="1"/>
        <pt x="394" y="55" on="0"/>
        <pt x="444" y="104" on="1"/>
        <pt x="497" y="155" on="0"/>
        <pt x="512" y="242" on="1"/>
        <pt x="521" y="293" on="0"/>
        <pt x="521" y="361" on="1"/>
        <pt x="521" y="511" on="0"/>
        <pt x="390" y="645" on="0"/>
      </contour>
    </TTGlyph>
    <TTGlyph name="Euro" xMin="53" yMin="-6" xMax="534" yMax="605">
      <contour>
        <pt x="53" y="256" on="1"/>
        <pt x="93" y="256" on="1"/>
        <pt x="91" y="284" on="0"/>
        <pt x="91" y="328" on="0"/>
        <pt x="94" y="355" on="1"/>
        <pt x="58" y="355" on="1"/>
        <pt x="58" y="383" on="1"/>
        <pt x="98" y="383" on="1"/>
        <pt x="117" y="487" on="0"/>
        <pt x="181" y="541" on="1"/>
        <pt x="257" y="605" on="0"/>
        <pt x="358" y="605" on="1"/>
        <pt x="413" y="605" on="0"/>
        <pt x="507" y="575" on="0"/>
        <pt x="528" y="551" on="1"/>
        <pt x="502" y="511" on="1"/>
        <pt x="490" y="524" on="0"/>
        <pt x="410" y="550" on="0"/>
        <pt x="364" y="550" on="1"/>
        <pt x="288" y="550" on="0"/>
        <pt x="183" y="467" on="0"/>
        <pt x="166" y="383" on="1"/>
        <pt x="440" y="383" on="1"/>
        <pt x="440" y="355" on="1"/>
        <pt x="161" y="355" on="1"/>
        <pt x="158" y="330" on="0"/>
        <pt x="158" y="270" on="0"/>
        <pt x="160" y="256" on="1"/>
        <pt x="440" y="256" on="1"/>
        <pt x="440" y="228" on="1"/>
        <pt x="164" y="228" on="1"/>
        <pt x="179" y="137" on="0"/>
        <pt x="286" y="50" on="0"/>
        <pt x="364" y="50" on="1"/>
        <pt x="411" y="50" on="0"/>
        <pt x="498" y="79" on="0"/>
        <pt x="511" y="92" on="1"/>
        <pt x="534" y="50" on="1"/>
        <pt x="509" y="23" on="0"/>
        <pt x="406" y="-5" on="0"/>
        <pt x="344" y="-5" on="0"/>
        <pt x="329" y="-4" on="1"/>
        <pt x="274" y="2" on="0"/>
        <pt x="182" y="48" on="0"/>
        <pt x="108" y="152" on="0"/>
        <pt x="96" y="228" on="1"/>
        <pt x="53" y="228" on="1"/>
      </contour>
    </TTGlyph>
    <TTGlyph name="F" xMin="50" yMin="0" xMax="487" yMax="700">
      <contour>
        <pt x="179" y="645" on="1"/>
        <pt x="179" y="377" on="1"/>
        <pt x="397" y="377" on="1"/>
        <pt x="397" y="440" on="1"/>
        <pt x="452" y="440" on="1"/>
        <pt x="452" y="268" on="1"/>
        <pt x="397" y="268" on="1"/>
        <pt x="397" y="322" on="1"/>
        <pt x="179" y="322" on="1"/>
        <pt x="179" y="55" on="1"/>
        <pt x="252" y="55" on="1"/>
        <pt x="252" y="0" on="1"/>
        <pt x="50" y="0" on="1"/>
        <pt x="50" y="55" on="1"/>
        <pt x="111" y="55" on="1"/>
        <pt x="111" y="645" on="1"/>
        <pt x="50" y="645" on="1"/>
        <pt x="50" y="700" on="1"/>
        <pt x="475" y="700" on="1"/>
        <pt x="474" y="694" on="1"/>
        <pt x="487" y="556" on="1"/>
        <pt x="437" y="548" on="1"/>
        <pt x="425" y="645" on="1"/>
      </contour>
    </TTGlyph>
    <TTGlyph name="G" xMin="40" yMin="-4" xMax="568" yMax="701">
      <contour>
        <pt x="387" y="264" on="1"/>
        <pt x="387" y="319" on="1"/>
        <pt x="568" y="319" on="1"/>
        <pt x="568" y="264" on="1"/>
        <pt x="529" y="264" on="1"/>
        <pt x="529" y="21" on="1"/>
        <pt x="512" y="15" on="0"/>
        <pt x="365" y="-4" on="0"/>
        <pt x="273" y="-4" on="0"/>
        <pt x="205" y="9" on="0"/>
        <pt x="129" y="51" on="0"/>
        <pt x="76" y="120" on="0"/>
        <pt x="40" y="240" on="0"/>
        <pt x="40" y="320" on="1"/>
        <pt x="40" y="497" on="0"/>
        <pt x="121" y="596" on="1"/>
        <pt x="206" y="700" on="0"/>
        <pt x="353" y="700" on="1"/>
        <pt x="398" y="700" on="0"/>
        <pt x="503" y="683" on="0"/>
        <pt x="525" y="675" on="1"/>
        <pt x="537" y="531" on="1"/>
        <pt x="488" y="524" on="1"/>
        <pt x="474" y="632" on="1"/>
        <pt x="410" y="646" on="0"/>
        <pt x="353" y="646" on="1"/>
        <pt x="240" y="646" on="0"/>
        <pt x="108" y="478" on="0"/>
        <pt x="108" y="320" on="1"/>
        <pt x="108" y="252" on="0"/>
        <pt x="136" y="150" on="0"/>
        <pt x="177" y="94" on="0"/>
        <pt x="207" y="78" on="1"/>
        <pt x="255" y="51" on="0"/>
        <pt x="385" y="51" on="0"/>
        <pt x="470" y="64" on="1"/>
        <pt x="473" y="264" on="1"/>
      </contour>
    </TTGlyph>
    <TTGlyph name="H" xMin="40" yMin="0" xMax="643" yMax="700">
      <contour>
        <pt x="441" y="0" on="1"/>
        <pt x="441" y="55" on="1"/>
        <pt x="509" y="55" on="1"/>
        <pt x="509" y="317" on="1"/>
        <pt x="168" y="317" on="1"/>
        <pt x="168" y="55" on="1"/>
        <pt x="242" y="55" on="1"/>
        <pt x="242" y="0" on="1"/>
        <pt x="40" y="0" on="1"/>
        <pt x="40" y="55" on="1"/>
        <pt x="105" y="55" on="1"/>
        <pt x="105" y="645" on="1"/>
        <pt x="40" y="645" on="1"/>
        <pt x="40" y="700" on="1"/>
        <pt x="242" y="700" on="1"/>
        <pt x="242" y="645" on="1"/>
        <pt x="168" y="645" on="1"/>
        <pt x="168" y="377" on="1"/>
        <pt x="509" y="377" on="1"/>
        <pt x="509" y="645" on="1"/>
        <pt x="441" y="645" on="1"/>
        <pt x="441" y="700" on="1"/>
        <pt x="633" y="700" on="1"/>
        <pt x="633" y="645" on="1"/>
        <pt x="572" y="645" on="1"/>
        <pt x="572" y="55" on="1"/>
        <pt x="643" y="55" on="1"/>
        <pt x="643" y="0" on="1"/>
      </contour>
    </TTGlyph>
    <TTGlyph name="I" xMin="50" yMin="0" xMax="252" yMax="700">
      <contour>
        <pt x="50" y="645" on="1"/>
        <pt x="50" y="700" on="1"/>
        <pt x="252" y="700" on="1"/>
        <pt x="252" y="645" on="1"/>
        <pt x="184" y="645" on="1"/>
        <pt x="184" y="55" on="1"/>
        <pt x="252" y="55" on="1"/>
        <pt x="252" y="0" on="1"/>
        <pt x="50" y="0" on="1"/>
        <pt x="50" y="55" on="1"/>
        <pt x="116" y="55" on="1"/>
        <pt x="116" y="645" on="1"/>
      </contour>
    </TTGlyph>
    <TTGlyph name="Iacute" xMin="20" yMin="0" xMax="275" yMax="900">
      <contour>
        <pt x="215" y="900" on="1"/>
        <pt x="275" y="893" on="1"/>
        <pt x="156" y="745" on="1"/>
        <pt x="111" y="753" on="1"/>
      </contour>
      <contour>
        <pt x="20" y="645" on="1"/>
        <pt x="20" y="700" on="1"/>
        <pt x="222" y="700" on="1"/>
        <pt x="222" y="645" on="1"/>
        <pt x="154" y="645" on="1"/>
        <pt x="154" y="55" on="1"/>
        <pt x="222" y="55" on="1"/>
        <pt x="222" y="0" on="1"/>
        <pt x="20" y="0" on="1"/>
        <pt x="20" y="55" on="1"/>
        <pt x="86" y="55" on="1"/>
        <pt x="86" y="645" on="1"/>
      </contour>
    </TTGlyph>
    <TTGlyph name="Icircumflex" xMin="20" yMin="0" xMax="353" yMax="911">
      <contour>
        <pt x="20" y="750" on="1"/>
        <pt x="187" y="911" on="1"/>
        <pt x="345" y="757" on="0"/>
        <pt x="353" y="750" on="1"/>
        <pt x="320" y="721" on="1"/>
        <pt x="186" y="854" on="1"/>
        <pt x="54" y="721" on="1"/>
      </contour>
      <contour>
        <pt x="87" y="645" on="1"/>
        <pt x="87" y="700" on="1"/>
        <pt x="289" y="700" on="1"/>
        <pt x="289" y="645" on="1"/>
        <pt x="221" y="645" on="1"/>
        <pt x="221" y="55" on="1"/>
        <pt x="289" y="55" on="1"/>
        <pt x="289" y="0" on="1"/>
        <pt x="87" y="0" on="1"/>
        <pt x="87" y="55" on="1"/>
        <pt x="153" y="55" on="1"/>
        <pt x="153" y="645" on="1"/>
      </contour>
    </TTGlyph>
    <TTGlyph name="Idieresis" xMin="20" yMin="0" xMax="313" yMax="829">
      <contour>
        <pt x="41" y="749" on="0"/>
        <pt x="20" y="772" on="0"/>
        <pt x="20" y="808" on="0"/>
        <pt x="41" y="829" on="0"/>
        <pt x="76" y="829" on="0"/>
        <pt x="97" y="808" on="0"/>
        <pt x="97" y="770" on="0"/>
        <pt x="75" y="749" on="0"/>
      </contour>
      <contour>
        <pt x="256" y="749" on="0"/>
        <pt x="236" y="772" on="0"/>
        <pt x="236" y="808" on="0"/>
        <pt x="256" y="829" on="0"/>
        <pt x="273" y="829" on="1"/>
        <pt x="313" y="829" on="0"/>
        <pt x="313" y="789" on="1"/>
        <pt x="313" y="770" on="0"/>
        <pt x="291" y="749" on="0"/>
      </contour>
      <contour>
        <pt x="70" y="645" on="1"/>
        <pt x="70" y="700" on="1"/>
        <pt x="272" y="700" on="1"/>
        <pt x="272" y="645" on="1"/>
        <pt x="204" y="645" on="1"/>
        <pt x="204" y="55" on="1"/>
        <pt x="272" y="55" on="1"/>
        <pt x="272" y="0" on="1"/>
        <pt x="70" y="0" on="1"/>
        <pt x="70" y="55" on="1"/>
        <pt x="136" y="55" on="1"/>
        <pt x="136" y="645" on="1"/>
      </contour>
    </TTGlyph>
    <TTGlyph name="Igrave" xMin="20" yMin="0" xMax="247" yMax="900">
      <contour>
        <pt x="184" y="753" on="1"/>
        <pt x="138" y="745" on="1"/>
        <pt x="20" y="893" on="1"/>
        <pt x="80" y="900" on="1"/>
      </contour>
      <contour>
        <pt x="45" y="645" on="1"/>
        <pt x="45" y="700" on="1"/>
        <pt x="247" y="700" on="1"/>
        <pt x="247" y="645" on="1"/>
        <pt x="179" y="645" on="1"/>
        <pt x="179" y="55" on="1"/>
        <pt x="247" y="55" on="1"/>
        <pt x="247" y="0" on="1"/>
        <pt x="45" y="0" on="1"/>
        <pt x="45" y="55" on="1"/>
        <pt x="111" y="55" on="1"/>
        <pt x="111" y="645" on="1"/>
      </contour>
    </TTGlyph>
    <TTGlyph name="J" xMin="-30" yMin="-248" xMax="205" yMax="700">
      <contour>
        <pt x="78" y="645" on="1"/>
        <pt x="3" y="645" on="1"/>
        <pt x="3" y="700" on="1"/>
        <pt x="205" y="700" on="1"/>
        <pt x="205" y="645" on="1"/>
        <pt x="146" y="645" on="1"/>
        <pt x="146" y="0" on="1"/>
        <pt x="149" y="-120" on="0"/>
        <pt x="2" y="-248" on="1"/>
        <pt x="-30" y="-209" on="1"/>
        <pt x="12" y="-169" on="0"/>
        <pt x="79" y="-57" on="0"/>
        <pt x="78" y="0" on="1"/>
      </contour>
    </TTGlyph>
    <TTGlyph name="K" xMin="50" yMin="-1" xMax="582" yMax="700">
      <contour>
        <pt x="330" y="645" on="1"/>
        <pt x="330" y="700" on="1"/>
        <pt x="524" y="700" on="1"/>
        <pt x="524" y="645" on="1"/>
        <pt x="460" y="645" on="1"/>
        <pt x="257" y="371" on="1"/>
        <pt x="506" y="55" on="1"/>
        <pt x="582" y="55" on="1"/>
        <pt x="582" y="0" on="1"/>
        <pt x="550" y="0" on="1"/>
        <pt x="473" y="-1" on="1"/>
        <pt x="183" y="366" on="1"/>
        <pt x="384" y="645" on="1"/>
      </contour>
      <contour>
        <pt x="183" y="645" on="1"/>
        <pt x="183" y="55" on="1"/>
        <pt x="252" y="55" on="1"/>
        <pt x="252" y="0" on="1"/>
        <pt x="50" y="0" on="1"/>
        <pt x="50" y="55" on="1"/>
        <pt x="115" y="55" on="1"/>
        <pt x="115" y="645" on="1"/>
        <pt x="50" y="645" on="1"/>
        <pt x="50" y="700" on="1"/>
        <pt x="252" y="700" on="1"/>
        <pt x="252" y="645" on="1"/>
      </contour>
    </TTGlyph>
    <TTGlyph name="L" xMin="50" yMin="0" xMax="498" yMax="700">
      <contour>
        <pt x="50" y="645" on="1"/>
        <pt x="50" y="700" on="1"/>
        <pt x="252" y="700" on="1"/>
        <pt x="252" y="645" on="1"/>
        <pt x="180" y="645" on="1"/>
        <pt x="180" y="55" on="1"/>
        <pt x="434" y="55" on="1"/>
        <pt x="449" y="180" on="1"/>
        <pt x="498" y="175" on="1"/>
        <pt x="487" y="55" on="1"/>
        <pt x="488" y="55" on="1"/>
        <pt x="487" y="53" on="1"/>
        <pt x="483" y="0" on="1"/>
        <pt x="473" y="1" on="1"/>
        <pt x="473" y="0" on="1"/>
        <pt x="50" y="0" on="1"/>
        <pt x="50" y="55" on="1"/>
        <pt x="112" y="55" on="1"/>
        <pt x="112" y="645" on="1"/>
      </contour>
    </TTGlyph>
    <TTGlyph name="M" xMin="46" yMin="0" xMax="828" yMax="700">
      <contour>
        <pt x="626" y="0" on="1"/>
        <pt x="626" y="55" on="1"/>
        <pt x="690" y="55" on="1"/>
        <pt x="690" y="584" on="1"/>
        <pt x="462" y="131" on="1"/>
        <pt x="394" y="131" on="1"/>
        <pt x="166" y="584" on="1"/>
        <pt x="166" y="55" on="1"/>
        <pt x="248" y="55" on="1"/>
        <pt x="248" y="0" on="1"/>
        <pt x="46" y="0" on="1"/>
        <pt x="46" y="55" on="1"/>
        <pt x="103" y="55" on="1"/>
        <pt x="103" y="645" on="1"/>
        <pt x="46" y="645" on="1"/>
        <pt x="46" y="700" on="1"/>
        <pt x="171" y="700" on="1"/>
        <pt x="428" y="188" on="1"/>
        <pt x="685" y="700" on="1"/>
        <pt x="817" y="700" on="1"/>
        <pt x="817" y="645" on="1"/>
        <pt x="753" y="645" on="1"/>
        <pt x="753" y="55" on="1"/>
        <pt x="828" y="55" on="1"/>
        <pt x="828" y="0" on="1"/>
      </contour>
    </TTGlyph>
    <TTGlyph name="N" xMin="46" yMin="0" xMax="703" yMax="700">
      <contour>
        <pt x="46" y="645" on="1"/>
        <pt x="46" y="700" on="1"/>
        <pt x="183" y="700" on="1"/>
        <pt x="581" y="90" on="1"/>
        <pt x="577" y="645" on="1"/>
        <pt x="512" y="645" on="1"/>
        <pt x="512" y="700" on="1"/>
        <pt x="703" y="700" on="1"/>
        <pt x="703" y="645" on="1"/>
        <pt x="640" y="645" on="1"/>
        <pt x="640" y="0" on="1"/>
        <pt x="567" y="0" on="1"/>
        <pt x="168" y="610" on="1"/>
        <pt x="172" y="55" on="1"/>
        <pt x="248" y="55" on="1"/>
        <pt x="248" y="0" on="1"/>
        <pt x="46" y="0" on="1"/>
        <pt x="46" y="55" on="1"/>
        <pt x="110" y="55" on="1"/>
        <pt x="110" y="645" on="1"/>
      </contour>
    </TTGlyph>
    <TTGlyph name="Ntilde" xMin="46" yMin="0" xMax="703" yMax="826">
      <contour>
        <pt x="46" y="645" on="1"/>
        <pt x="46" y="700" on="1"/>
        <pt x="183" y="700" on="1"/>
        <pt x="581" y="90" on="1"/>
        <pt x="577" y="645" on="1"/>
        <pt x="512" y="645" on="1"/>
        <pt x="512" y="700" on="1"/>
        <pt x="703" y="700" on="1"/>
        <pt x="703" y="645" on="1"/>
        <pt x="640" y="645" on="1"/>
        <pt x="640" y="0" on="1"/>
        <pt x="567" y="0" on="1"/>
        <pt x="168" y="610" on="1"/>
        <pt x="172" y="55" on="1"/>
        <pt x="248" y="55" on="1"/>
        <pt x="248" y="0" on="1"/>
        <pt x="46" y="0" on="1"/>
        <pt x="46" y="55" on="1"/>
        <pt x="110" y="55" on="1"/>
        <pt x="110" y="645" on="1"/>
      </contour>
      <contour>
        <pt x="276" y="820" on="1"/>
        <pt x="310" y="820" on="0"/>
        <pt x="445" y="787" on="0"/>
        <pt x="497" y="787" on="0"/>
        <pt x="515" y="805" on="0"/>
        <pt x="519" y="826" on="1"/>
        <pt x="554" y="819" on="1"/>
        <pt x="545" y="780" on="0"/>
        <pt x="511" y="749" on="0"/>
        <pt x="458" y="749" on="0"/>
        <pt x="384" y="768" on="1"/>
        <pt x="318" y="783" on="0"/>
        <pt x="282" y="783" on="1"/>
        <pt x="229" y="783" on="0"/>
        <pt x="222" y="748" on="1"/>
        <pt x="188" y="755" on="1"/>
        <pt x="201" y="820" on="0"/>
      </contour>
    </TTGlyph>
    <TTGlyph name="O" xMin="40" yMin="-4" xMax="630" yMax="704">
      <contour>
        <pt x="40" y="348" on="1"/>
        <pt x="40" y="511" on="0"/>
        <pt x="209" y="704" on="0"/>
        <pt x="335" y="704" on="1"/>
        <pt x="630" y="704" on="0"/>
        <pt x="630" y="348" on="1"/>
        <pt x="630" y="186" on="0"/>
        <pt x="462" y="-4" on="0"/>
        <pt x="335" y="-4" on="1"/>
        <pt x="40" y="-4" on="0"/>
      </contour>
      <contour>
        <pt x="108" y="350" on="1"/>
        <pt x="108" y="56" on="0"/>
        <pt x="335" y="56" on="1"/>
        <pt x="433" y="56" on="0"/>
        <pt x="562" y="212" on="0"/>
        <pt x="562" y="350" on="1"/>
        <pt x="562" y="644" on="0"/>
        <pt x="335" y="644" on="1"/>
        <pt x="237" y="644" on="0"/>
        <pt x="108" y="487" on="0"/>
      </contour>
    </TTGlyph>
    <TTGlyph name="OE" xMin="40" yMin="-4" xMax="696" yMax="704">
      <contour>
        <pt x="585" y="438" on="1"/>
        <pt x="631" y="440" on="1"/>
        <pt x="631" y="269" on="1"/>
        <pt x="630" y="269" on="0"/>
        <pt x="608" y="268" on="1"/>
        <pt x="586" y="268" on="1"/>
        <pt x="582" y="317" on="1"/>
        <pt x="423" y="317" on="1"/>
        <pt x="423" y="60" on="1"/>
        <pt x="632" y="60" on="1"/>
        <pt x="647" y="180" on="1"/>
        <pt x="696" y="175" on="1"/>
        <pt x="681" y="0" on="1"/>
        <pt x="385" y="0" on="1"/>
        <pt x="364" y="-4" on="0"/>
        <pt x="335" y="-4" on="1"/>
        <pt x="40" y="-4" on="0"/>
        <pt x="40" y="348" on="1"/>
        <pt x="40" y="511" on="0"/>
        <pt x="209" y="704" on="0"/>
        <pt x="335" y="704" on="1"/>
        <pt x="354" y="704" on="0"/>
        <pt x="394" y="700" on="1"/>
        <pt x="654" y="700" on="1"/>
        <pt x="667" y="556" on="1"/>
        <pt x="617" y="548" on="1"/>
        <pt x="605" y="640" on="1"/>
        <pt x="423" y="640" on="1"/>
        <pt x="423" y="377" on="1"/>
        <pt x="571" y="377" on="1"/>
        <pt x="581" y="379" on="0"/>
        <pt x="581" y="389" on="1"/>
      </contour>
      <contour>
        <pt x="335" y="56" on="1"/>
        <pt x="355" y="56" on="1"/>
        <pt x="355" y="643" on="1"/>
        <pt x="348" y="644" on="0"/>
        <pt x="335" y="644" on="1"/>
        <pt x="237" y="644" on="0"/>
        <pt x="108" y="487" on="0"/>
        <pt x="108" y="350" on="1"/>
        <pt x="108" y="56" on="0"/>
      </contour>
    </TTGlyph>
    <TTGlyph name="Oacute" xMin="40" yMin="-4" xMax="630" yMax="900">
      <contour>
        <pt x="40" y="348" on="1"/>
        <pt x="40" y="511" on="0"/>
        <pt x="209" y="704" on="0"/>
        <pt x="335" y="704" on="1"/>
        <pt x="630" y="704" on="0"/>
        <pt x="630" y="348" on="1"/>
        <pt x="630" y="186" on="0"/>
        <pt x="462" y="-4" on="0"/>
        <pt x="335" y="-4" on="1"/>
        <pt x="40" y="-4" on="0"/>
      </contour>
      <contour>
        <pt x="108" y="350" on="1"/>
        <pt x="108" y="56" on="0"/>
        <pt x="335" y="56" on="1"/>
        <pt x="433" y="56" on="0"/>
        <pt x="562" y="212" on="0"/>
        <pt x="562" y="350" on="1"/>
        <pt x="562" y="644" on="0"/>
        <pt x="335" y="644" on="1"/>
        <pt x="237" y="644" on="0"/>
        <pt x="108" y="487" on="0"/>
      </contour>
      <contour>
        <pt x="440" y="900" on="1"/>
        <pt x="500" y="893" on="1"/>
        <pt x="381" y="745" on="1"/>
        <pt x="336" y="753" on="1"/>
      </contour>
    </TTGlyph>
    <TTGlyph name="Ocircumflex" xMin="40" yMin="-4" xMax="630" yMax="939">
      <contour>
        <pt x="40" y="348" on="1"/>
        <pt x="40" y="511" on="0"/>
        <pt x="209" y="704" on="0"/>
        <pt x="335" y="704" on="1"/>
        <pt x="630" y="704" on="0"/>
        <pt x="630" y="348" on="1"/>
        <pt x="630" y="186" on="0"/>
        <pt x="462" y="-4" on="0"/>
        <pt x="335" y="-4" on="1"/>
        <pt x="40" y="-4" on="0"/>
      </contour>
      <contour>
        <pt x="108" y="350" on="1"/>
        <pt x="108" y="56" on="0"/>
        <pt x="335" y="56" on="1"/>
        <pt x="433" y="56" on="0"/>
        <pt x="562" y="212" on="0"/>
        <pt x="562" y="350" on="1"/>
        <pt x="562" y="644" on="0"/>
        <pt x="335" y="644" on="1"/>
        <pt x="237" y="644" on="0"/>
        <pt x="108" y="487" on="0"/>
      </contour>
      <contour>
        <pt x="197" y="778" on="1"/>
        <pt x="364" y="939" on="1"/>
        <pt x="522" y="785" on="0"/>
        <pt x="530" y="778" on="1"/>
        <pt x="497" y="749" on="1"/>
        <pt x="363" y="882" on="1"/>
        <pt x="231" y="749" on="1"/>
      </contour>
    </TTGlyph>
    <TTGlyph name="Odieresis" xMin="40" yMin="-4" xMax="630" yMax="830">
      <contour>
        <pt x="40" y="348" on="1"/>
        <pt x="40" y="511" on="0"/>
        <pt x="209" y="704" on="0"/>
        <pt x="335" y="704" on="1"/>
        <pt x="630" y="704" on="0"/>
        <pt x="630" y="348" on="1"/>
        <pt x="630" y="186" on="0"/>
        <pt x="462" y="-4" on="0"/>
        <pt x="335" y="-4" on="1"/>
        <pt x="40" y="-4" on="0"/>
      </contour>
      <contour>
        <pt x="108" y="350" on="1"/>
        <pt x="108" y="56" on="0"/>
        <pt x="335" y="56" on="1"/>
        <pt x="433" y="56" on="0"/>
        <pt x="562" y="212" on="0"/>
        <pt x="562" y="350" on="1"/>
        <pt x="562" y="644" on="0"/>
        <pt x="335" y="644" on="1"/>
        <pt x="237" y="644" on="0"/>
        <pt x="108" y="487" on="0"/>
      </contour>
      <contour>
        <pt x="236" y="750" on="0"/>
        <pt x="215" y="773" on="0"/>
        <pt x="215" y="809" on="0"/>
        <pt x="236" y="830" on="0"/>
        <pt x="271" y="830" on="0"/>
        <pt x="292" y="809" on="0"/>
        <pt x="292" y="771" on="0"/>
        <pt x="270" y="750" on="0"/>
      </contour>
      <contour>
        <pt x="451" y="750" on="0"/>
        <pt x="431" y="773" on="0"/>
        <pt x="431" y="809" on="0"/>
        <pt x="451" y="830" on="0"/>
        <pt x="468" y="830" on="1"/>
        <pt x="508" y="830" on="0"/>
        <pt x="508" y="790" on="1"/>
        <pt x="508" y="771" on="0"/>
        <pt x="486" y="750" on="0"/>
      </contour>
    </TTGlyph>
    <TTGlyph name="Ograve" xMin="40" yMin="-4" xMax="630" yMax="900">
      <contour>
        <pt x="40" y="348" on="1"/>
        <pt x="40" y="511" on="0"/>
        <pt x="209" y="704" on="0"/>
        <pt x="335" y="704" on="1"/>
        <pt x="630" y="704" on="0"/>
        <pt x="630" y="348" on="1"/>
        <pt x="630" y="186" on="0"/>
        <pt x="462" y="-4" on="0"/>
        <pt x="335" y="-4" on="1"/>
        <pt x="40" y="-4" on="0"/>
      </contour>
      <contour>
        <pt x="108" y="350" on="1"/>
        <pt x="108" y="56" on="0"/>
        <pt x="335" y="56" on="1"/>
        <pt x="433" y="56" on="0"/>
        <pt x="562" y="212" on="0"/>
        <pt x="562" y="350" on="1"/>
        <pt x="562" y="644" on="0"/>
        <pt x="335" y="644" on="1"/>
        <pt x="237" y="644" on="0"/>
        <pt x="108" y="487" on="0"/>
      </contour>
      <contour>
        <pt x="378" y="753" on="1"/>
        <pt x="332" y="745" on="1"/>
        <pt x="214" y="893" on="1"/>
        <pt x="274" y="900" on="1"/>
      </contour>
    </TTGlyph>
    <TTGlyph name="Oslash" xMin="40" yMin="-4" xMax="630" yMax="704">
      <contour>
        <pt x="615" y="677" on="1"/>
        <pt x="105" y="0" on="1"/>
        <pt x="76" y="23" on="1"/>
        <pt x="586" y="700" on="1"/>
      </contour>
      <contour>
        <pt x="40" y="348" on="1"/>
        <pt x="40" y="511" on="0"/>
        <pt x="209" y="704" on="0"/>
        <pt x="335" y="704" on="1"/>
        <pt x="630" y="704" on="0"/>
        <pt x="630" y="348" on="1"/>
        <pt x="630" y="186" on="0"/>
        <pt x="462" y="-4" on="0"/>
        <pt x="335" y="-4" on="1"/>
        <pt x="40" y="-4" on="0"/>
      </contour>
      <contour>
        <pt x="108" y="350" on="1"/>
        <pt x="108" y="56" on="0"/>
        <pt x="335" y="56" on="1"/>
        <pt x="433" y="56" on="0"/>
        <pt x="562" y="212" on="0"/>
        <pt x="562" y="350" on="1"/>
        <pt x="562" y="644" on="0"/>
        <pt x="335" y="644" on="1"/>
        <pt x="237" y="644" on="0"/>
        <pt x="108" y="487" on="0"/>
      </contour>
    </TTGlyph>
    <TTGlyph name="Otilde" xMin="40" yMin="-4" xMax="630" yMax="838">
      <contour>
        <pt x="40" y="348" on="1"/>
        <pt x="40" y="511" on="0"/>
        <pt x="209" y="704" on="0"/>
        <pt x="335" y="704" on="1"/>
        <pt x="630" y="704" on="0"/>
        <pt x="630" y="348" on="1"/>
        <pt x="630" y="186" on="0"/>
        <pt x="462" y="-4" on="0"/>
        <pt x="335" y="-4" on="1"/>
        <pt x="40" y="-4" on="0"/>
      </contour>
      <contour>
        <pt x="108" y="350" on="1"/>
        <pt x="108" y="56" on="0"/>
        <pt x="335" y="56" on="1"/>
        <pt x="433" y="56" on="0"/>
        <pt x="562" y="212" on="0"/>
        <pt x="562" y="350" on="1"/>
        <pt x="562" y="644" on="0"/>
        <pt x="335" y="644" on="1"/>
        <pt x="237" y="644" on="0"/>
        <pt x="108" y="487" on="0"/>
      </contour>
      <contour>
        <pt x="268" y="832" on="1"/>
        <pt x="302" y="832" on="0"/>
        <pt x="437" y="799" on="0"/>
        <pt x="489" y="799" on="0"/>
        <pt x="507" y="817" on="0"/>
        <pt x="511" y="838" on="1"/>
        <pt x="546" y="831" on="1"/>
        <pt x="537" y="792" on="0"/>
        <pt x="503" y="761" on="0"/>
        <pt x="450" y="761" on="0"/>
        <pt x="376" y="780" on="1"/>
        <pt x="310" y="795" on="0"/>
        <pt x="274" y="795" on="1"/>
        <pt x="221" y="795" on="0"/>
        <pt x="214" y="760" on="1"/>
        <pt x="180" y="767" on="1"/>
        <pt x="193" y="832" on="0"/>
      </contour>
    </TTGlyph>
    <TTGlyph name="P" xMin="52" yMin="0" xMax="502" yMax="700">
      <contour>
        <pt x="52" y="645" on="1"/>
        <pt x="52" y="700" on="1"/>
        <pt x="260" y="700" on="1"/>
        <pt x="383" y="700" on="0"/>
        <pt x="502" y="616" on="0"/>
        <pt x="502" y="383" on="0"/>
        <pt x="379" y="272" on="0"/>
        <pt x="260" y="272" on="1"/>
        <pt x="183" y="272" on="1"/>
        <pt x="183" y="55" on="1"/>
        <pt x="254" y="55" on="1"/>
        <pt x="254" y="0" on="1"/>
        <pt x="52" y="0" on="1"/>
        <pt x="52" y="55" on="1"/>
        <pt x="115" y="55" on="1"/>
        <pt x="115" y="645" on="1"/>
      </contour>
      <contour>
        <pt x="255" y="645" on="1"/>
        <pt x="183" y="645" on="1"/>
        <pt x="183" y="327" on="1"/>
        <pt x="255" y="327" on="1"/>
        <pt x="345" y="327" on="0"/>
        <pt x="434" y="406" on="0"/>
        <pt x="434" y="585" on="0"/>
        <pt x="346" y="645" on="0"/>
      </contour>
    </TTGlyph>
    <TTGlyph name="Q" xMin="40" yMin="-200" xMax="630" yMax="704">
      <contour>
        <pt x="40" y="348" on="1"/>
        <pt x="40" y="511" on="0"/>
        <pt x="209" y="704" on="0"/>
        <pt x="335" y="704" on="1"/>
        <pt x="630" y="704" on="0"/>
        <pt x="630" y="348" on="1"/>
        <pt x="630" y="195" on="0"/>
        <pt x="479" y="7" on="0"/>
        <pt x="362" y="-3" on="1"/>
        <pt x="390" y="-102" on="0"/>
        <pt x="520" y="-194" on="1"/>
        <pt x="461" y="-200" on="1"/>
        <pt x="411" y="-166" on="0"/>
        <pt x="315" y="-60" on="0"/>
        <pt x="298" y="-2" on="1"/>
        <pt x="40" y="18" on="0"/>
      </contour>
      <contour>
        <pt x="108" y="350" on="1"/>
        <pt x="108" y="56" on="0"/>
        <pt x="335" y="56" on="1"/>
        <pt x="433" y="56" on="0"/>
        <pt x="562" y="212" on="0"/>
        <pt x="562" y="350" on="1"/>
        <pt x="562" y="644" on="0"/>
        <pt x="335" y="644" on="1"/>
        <pt x="237" y="644" on="0"/>
        <pt x="108" y="487" on="0"/>
      </contour>
    </TTGlyph>
    <TTGlyph name="R" xMin="50" yMin="0" xMax="612" yMax="700">
      <contour>
        <pt x="50" y="645" on="1"/>
        <pt x="50" y="700" on="1"/>
        <pt x="291" y="700" on="1"/>
        <pt x="394" y="700" on="0"/>
        <pt x="506" y="610" on="0"/>
        <pt x="506" y="521" on="1"/>
        <pt x="506" y="462" on="0"/>
        <pt x="423" y="335" on="0"/>
        <pt x="383" y="312" on="1"/>
        <pt x="541" y="55" on="1"/>
        <pt x="612" y="55" on="1"/>
        <pt x="612" y="0" on="1"/>
        <pt x="502" y="0" on="1"/>
        <pt x="324" y="287" on="1"/>
        <pt x="179" y="287" on="1"/>
        <pt x="179" y="55" on="1"/>
        <pt x="252" y="55" on="1"/>
        <pt x="252" y="0" on="1"/>
        <pt x="50" y="0" on="1"/>
        <pt x="50" y="55" on="1"/>
        <pt x="111" y="55" on="1"/>
        <pt x="111" y="645" on="1"/>
      </contour>
      <contour>
        <pt x="286" y="645" on="1"/>
        <pt x="179" y="645" on="1"/>
        <pt x="179" y="342" on="1"/>
        <pt x="344" y="342" on="1"/>
        <pt x="438" y="428" on="0"/>
        <pt x="438" y="515" on="1"/>
        <pt x="438" y="579" on="0"/>
        <pt x="360" y="645" on="0"/>
      </contour>
    </TTGlyph>
    <TTGlyph name="S" xMin="25" yMin="-1" xMax="502" yMax="702">
      <contour>
        <pt x="238" y="59" on="1"/>
        <pt x="349" y="59" on="0"/>
        <pt x="403" y="115" on="1"/>
        <pt x="434" y="147" on="0"/>
        <pt x="434" y="235" on="0"/>
        <pt x="391" y="292" on="0"/>
        <pt x="323" y="323" on="0"/>
        <pt x="240" y="346" on="0"/>
        <pt x="157" y="372" on="0"/>
        <pt x="89" y="408" on="0"/>
        <pt x="46" y="474" on="0"/>
        <pt x="46" y="520" on="1"/>
        <pt x="46" y="600" on="0"/>
        <pt x="166" y="702" on="0"/>
        <pt x="364" y="702" on="0"/>
        <pt x="451" y="682" on="1"/>
        <pt x="451" y="681" on="1"/>
        <pt x="454" y="681" on="1"/>
        <pt x="465" y="556" on="1"/>
        <pt x="416" y="548" on="1"/>
        <pt x="405" y="632" on="1"/>
        <pt x="349" y="642" on="0"/>
        <pt x="214" y="642" on="0"/>
        <pt x="114" y="583" on="0"/>
        <pt x="114" y="475" on="0"/>
        <pt x="194" y="419" on="0"/>
        <pt x="308" y="390" on="0"/>
        <pt x="422" y="354" on="0"/>
        <pt x="502" y="266" on="0"/>
        <pt x="502" y="194" on="1"/>
        <pt x="502" y="97" on="0"/>
        <pt x="358" y="-1" on="0"/>
        <pt x="251" y="-1" on="1"/>
        <pt x="116" y="-1" on="0"/>
        <pt x="25" y="60" on="1"/>
        <pt x="26" y="166" on="1"/>
        <pt x="75" y="171" on="1"/>
        <pt x="77" y="95" on="1"/>
        <pt x="153" y="59" on="0"/>
      </contour>
    </TTGlyph>
    <TTGlyph name="T" xMin="20" yMin="0" xMax="501" yMax="700">
      <contour>
        <pt x="162" y="0" on="1"/>
        <pt x="162" y="55" on="1"/>
        <pt x="227" y="55" on="1"/>
        <pt x="227" y="640" on="1"/>
        <pt x="80" y="640" on="1"/>
        <pt x="69" y="548" on="1"/>
        <pt x="20" y="556" on="1"/>
        <pt x="32" y="700" on="1"/>
        <pt x="488" y="700" on="1"/>
        <pt x="501" y="556" on="1"/>
        <pt x="451" y="548" on="1"/>
        <pt x="439" y="640" on="1"/>
        <pt x="290" y="640" on="1"/>
        <pt x="290" y="55" on="1"/>
        <pt x="363" y="55" on="1"/>
        <pt x="363" y="0" on="1"/>
      </contour>
    </TTGlyph>
    <TTGlyph name="Thorn" xMin="51" yMin="-1" xMax="502" yMax="700">
      <contour>
        <pt x="51" y="668" on="1"/>
        <pt x="52" y="700" on="1"/>
        <pt x="183" y="700" on="1"/>
        <pt x="183" y="570" on="1"/>
        <pt x="260" y="570" on="1"/>
        <pt x="383" y="570" on="0"/>
        <pt x="502" y="486" on="0"/>
        <pt x="502" y="253" on="0"/>
        <pt x="379" y="142" on="0"/>
        <pt x="260" y="142" on="1"/>
        <pt x="183" y="142" on="1"/>
        <pt x="183" y="49" on="1"/>
        <pt x="252" y="45" on="1"/>
        <pt x="252" y="44" on="0"/>
        <pt x="252" y="22" on="1"/>
        <pt x="251" y="0" on="1"/>
        <pt x="51" y="-1" on="1"/>
        <pt x="51" y="38" on="0"/>
        <pt x="52" y="43" on="1"/>
        <pt x="104" y="50" on="1"/>
        <pt x="111" y="51" on="0"/>
        <pt x="115" y="59" on="1"/>
        <pt x="115" y="639" on="1"/>
        <pt x="111" y="648" on="0"/>
        <pt x="104" y="649" on="1"/>
        <pt x="51" y="655" on="1"/>
      </contour>
      <contour>
        <pt x="255" y="515" on="1"/>
        <pt x="183" y="515" on="1"/>
        <pt x="183" y="197" on="1"/>
        <pt x="255" y="197" on="1"/>
        <pt x="345" y="197" on="0"/>
        <pt x="434" y="276" on="0"/>
        <pt x="434" y="455" on="0"/>
        <pt x="346" y="515" on="0"/>
      </contour>
    </TTGlyph>
    <TTGlyph name="U" xMin="50" yMin="-4" xMax="683" yMax="700">
      <contour>
        <pt x="50" y="645" on="1"/>
        <pt x="50" y="700" on="1"/>
        <pt x="252" y="700" on="1"/>
        <pt x="252" y="645" on="1"/>
        <pt x="183" y="645" on="1"/>
        <pt x="183" y="301" on="1"/>
        <pt x="183" y="146" on="0"/>
        <pt x="244" y="95" on="1"/>
        <pt x="273" y="70" on="0"/>
        <pt x="333" y="51" on="0"/>
        <pt x="373" y="51" on="1"/>
        <pt x="454" y="51" on="0"/>
        <pt x="557" y="171" on="0"/>
        <pt x="557" y="301" on="1"/>
        <pt x="557" y="645" on="1"/>
        <pt x="491" y="645" on="1"/>
        <pt x="491" y="700" on="1"/>
        <pt x="683" y="700" on="1"/>
        <pt x="683" y="645" on="1"/>
        <pt x="620" y="645" on="1"/>
        <pt x="620" y="300" on="1"/>
        <pt x="620" y="143" on="0"/>
        <pt x="482" y="-4" on="0"/>
        <pt x="373" y="-4" on="1"/>
        <pt x="318" y="-4" on="0"/>
        <pt x="235" y="19" on="0"/>
        <pt x="196" y="50" on="1"/>
        <pt x="115" y="113" on="0"/>
        <pt x="115" y="300" on="1"/>
        <pt x="115" y="645" on="1"/>
      </contour>
    </TTGlyph>
    <TTGlyph name="Uacute" xMin="20" yMin="-4" xMax="653" yMax="901">
      <contour>
        <pt x="20" y="645" on="1"/>
        <pt x="20" y="700" on="1"/>
        <pt x="222" y="700" on="1"/>
        <pt x="222" y="645" on="1"/>
        <pt x="153" y="645" on="1"/>
        <pt x="153" y="301" on="1"/>
        <pt x="153" y="146" on="0"/>
        <pt x="214" y="95" on="1"/>
        <pt x="243" y="70" on="0"/>
        <pt x="303" y="51" on="0"/>
        <pt x="343" y="51" on="1"/>
        <pt x="424" y="51" on="0"/>
        <pt x="527" y="171" on="0"/>
        <pt x="527" y="301" on="1"/>
        <pt x="527" y="645" on="1"/>
        <pt x="461" y="645" on="1"/>
        <pt x="461" y="700" on="1"/>
        <pt x="653" y="700" on="1"/>
        <pt x="653" y="645" on="1"/>
        <pt x="590" y="645" on="1"/>
        <pt x="590" y="300" on="1"/>
        <pt x="590" y="143" on="0"/>
        <pt x="452" y="-4" on="0"/>
        <pt x="343" y="-4" on="1"/>
        <pt x="288" y="-4" on="0"/>
        <pt x="205" y="19" on="0"/>
        <pt x="166" y="50" on="1"/>
        <pt x="85" y="113" on="0"/>
        <pt x="85" y="300" on="1"/>
        <pt x="85" y="645" on="1"/>
      </contour>
      <contour>
        <pt x="429" y="901" on="1"/>
        <pt x="489" y="894" on="1"/>
        <pt x="370" y="746" on="1"/>
        <pt x="325" y="754" on="1"/>
      </contour>
    </TTGlyph>
    <TTGlyph name="Ucircumflex" xMin="20" yMin="-4" xMax="653" yMax="940">
      <contour>
        <pt x="20" y="645" on="1"/>
        <pt x="20" y="700" on="1"/>
        <pt x="222" y="700" on="1"/>
        <pt x="222" y="645" on="1"/>
        <pt x="153" y="645" on="1"/>
        <pt x="153" y="301" on="1"/>
        <pt x="153" y="146" on="0"/>
        <pt x="214" y="95" on="1"/>
        <pt x="243" y="70" on="0"/>
        <pt x="303" y="51" on="0"/>
        <pt x="343" y="51" on="1"/>
        <pt x="424" y="51" on="0"/>
        <pt x="527" y="171" on="0"/>
        <pt x="527" y="301" on="1"/>
        <pt x="527" y="645" on="1"/>
        <pt x="461" y="645" on="1"/>
        <pt x="461" y="700" on="1"/>
        <pt x="653" y="700" on="1"/>
        <pt x="653" y="645" on="1"/>
        <pt x="590" y="645" on="1"/>
        <pt x="590" y="300" on="1"/>
        <pt x="590" y="143" on="0"/>
        <pt x="452" y="-4" on="0"/>
        <pt x="343" y="-4" on="1"/>
        <pt x="288" y="-4" on="0"/>
        <pt x="205" y="19" on="0"/>
        <pt x="166" y="50" on="1"/>
        <pt x="85" y="113" on="0"/>
        <pt x="85" y="300" on="1"/>
        <pt x="85" y="645" on="1"/>
      </contour>
      <contour>
        <pt x="177" y="779" on="1"/>
        <pt x="344" y="940" on="1"/>
        <pt x="502" y="786" on="0"/>
        <pt x="510" y="779" on="1"/>
        <pt x="477" y="750" on="1"/>
        <pt x="343" y="883" on="1"/>
        <pt x="211" y="750" on="1"/>
      </contour>
    </TTGlyph>
    <TTGlyph name="Udieresis" xMin="20" yMin="-4" xMax="653" yMax="830">
      <contour>
        <pt x="20" y="645" on="1"/>
        <pt x="20" y="700" on="1"/>
        <pt x="222" y="700" on="1"/>
        <pt x="222" y="645" on="1"/>
        <pt x="153" y="645" on="1"/>
        <pt x="153" y="301" on="1"/>
        <pt x="153" y="146" on="0"/>
        <pt x="214" y="95" on="1"/>
        <pt x="243" y="70" on="0"/>
        <pt x="303" y="51" on="0"/>
        <pt x="343" y="51" on="1"/>
        <pt x="424" y="51" on="0"/>
        <pt x="527" y="171" on="0"/>
        <pt x="527" y="301" on="1"/>
        <pt x="527" y="645" on="1"/>
        <pt x="461" y="645" on="1"/>
        <pt x="461" y="700" on="1"/>
        <pt x="653" y="700" on="1"/>
        <pt x="653" y="645" on="1"/>
        <pt x="590" y="645" on="1"/>
        <pt x="590" y="300" on="1"/>
        <pt x="590" y="143" on="0"/>
        <pt x="452" y="-4" on="0"/>
        <pt x="343" y="-4" on="1"/>
        <pt x="288" y="-4" on="0"/>
        <pt x="205" y="19" on="0"/>
        <pt x="166" y="50" on="1"/>
        <pt x="85" y="113" on="0"/>
        <pt x="85" y="300" on="1"/>
        <pt x="85" y="645" on="1"/>
      </contour>
      <contour>
        <pt x="214" y="750" on="0"/>
        <pt x="193" y="773" on="0"/>
        <pt x="193" y="809" on="0"/>
        <pt x="214" y="830" on="0"/>
        <pt x="249" y="830" on="0"/>
        <pt x="270" y="809" on="0"/>
        <pt x="270" y="771" on="0"/>
        <pt x="248" y="750" on="0"/>
      </contour>
      <contour>
        <pt x="429" y="750" on="0"/>
        <pt x="409" y="773" on="0"/>
        <pt x="409" y="809" on="0"/>
        <pt x="429" y="830" on="0"/>
        <pt x="446" y="830" on="1"/>
        <pt x="486" y="830" on="0"/>
        <pt x="486" y="790" on="1"/>
        <pt x="486" y="771" on="0"/>
        <pt x="464" y="750" on="0"/>
      </contour>
    </TTGlyph>
    <TTGlyph name="Ugrave" xMin="20" yMin="-4" xMax="653" yMax="901">
      <contour>
        <pt x="20" y="645" on="1"/>
        <pt x="20" y="700" on="1"/>
        <pt x="222" y="700" on="1"/>
        <pt x="222" y="645" on="1"/>
        <pt x="153" y="645" on="1"/>
        <pt x="153" y="301" on="1"/>
        <pt x="153" y="146" on="0"/>
        <pt x="214" y="95" on="1"/>
        <pt x="243" y="70" on="0"/>
        <pt x="303" y="51" on="0"/>
        <pt x="343" y="51" on="1"/>
        <pt x="424" y="51" on="0"/>
        <pt x="527" y="171" on="0"/>
        <pt x="527" y="301" on="1"/>
        <pt x="527" y="645" on="1"/>
        <pt x="461" y="645" on="1"/>
        <pt x="461" y="700" on="1"/>
        <pt x="653" y="700" on="1"/>
        <pt x="653" y="645" on="1"/>
        <pt x="590" y="645" on="1"/>
        <pt x="590" y="300" on="1"/>
        <pt x="590" y="143" on="0"/>
        <pt x="452" y="-4" on="0"/>
        <pt x="343" y="-4" on="1"/>
        <pt x="288" y="-4" on="0"/>
        <pt x="205" y="19" on="0"/>
        <pt x="166" y="50" on="1"/>
        <pt x="85" y="113" on="0"/>
        <pt x="85" y="300" on="1"/>
        <pt x="85" y="645" on="1"/>
      </contour>
      <contour>
        <pt x="369" y="754" on="1"/>
        <pt x="323" y="746" on="1"/>
        <pt x="205" y="894" on="1"/>
        <pt x="265" y="901" on="1"/>
      </contour>
    </TTGlyph>
    <TTGlyph name="V" xMin="20" yMin="0" xMax="689" yMax="700">
      <contour>
        <pt x="493" y="645" on="1"/>
        <pt x="493" y="700" on="1"/>
        <pt x="689" y="700" on="1"/>
        <pt x="689" y="645" on="1"/>
        <pt x="617" y="645" on="1"/>
        <pt x="389" y="0" on="1"/>
        <pt x="323" y="0" on="1"/>
        <pt x="86" y="645" on="1"/>
        <pt x="20" y="645" on="1"/>
        <pt x="20" y="700" on="1"/>
        <pt x="222" y="700" on="1"/>
        <pt x="222" y="645" on="1"/>
        <pt x="153" y="645" on="1"/>
        <pt x="361" y="76" on="1"/>
        <pt x="553" y="645" on="1"/>
      </contour>
    </TTGlyph>
    <TTGlyph name="W" xMin="20" yMin="0" xMax="949" yMax="700">
      <contour>
        <pt x="20" y="645" on="1"/>
        <pt x="20" y="700" on="1"/>
        <pt x="222" y="700" on="1"/>
        <pt x="222" y="645" on="1"/>
        <pt x="147" y="645" on="1"/>
        <pt x="286" y="101" on="1"/>
        <pt x="451" y="700" on="1"/>
        <pt x="507" y="700" on="1"/>
        <pt x="663" y="99" on="1"/>
        <pt x="813" y="645" on="1"/>
        <pt x="753" y="645" on="1"/>
        <pt x="753" y="700" on="1"/>
        <pt x="949" y="700" on="1"/>
        <pt x="949" y="645" on="1"/>
        <pt x="877" y="645" on="1"/>
        <pt x="689" y="0" on="1"/>
        <pt x="628" y="0" on="1"/>
        <pt x="477" y="596" on="1"/>
        <pt x="312" y="0" on="1"/>
        <pt x="250" y="0" on="1"/>
        <pt x="84" y="645" on="1"/>
      </contour>
    </TTGlyph>
    <TTGlyph name="X" xMin="20" yMin="0" xMax="617" yMax="700">
      <contour>
        <pt x="401" y="0" on="1"/>
        <pt x="401" y="55" on="1"/>
        <pt x="470" y="55" on="1"/>
        <pt x="308" y="322" on="1"/>
        <pt x="155" y="55" on="1"/>
        <pt x="226" y="55" on="1"/>
        <pt x="226" y="0" on="1"/>
        <pt x="20" y="0" on="1"/>
        <pt x="20" y="55" on="1"/>
        <pt x="87" y="55" on="1"/>
        <pt x="277" y="373" on="1"/>
        <pt x="105" y="645" on="1"/>
        <pt x="40" y="645" on="1"/>
        <pt x="40" y="700" on="1"/>
        <pt x="242" y="700" on="1"/>
        <pt x="242" y="645" on="1"/>
        <pt x="182" y="645" on="1"/>
        <pt x="321" y="414" on="1"/>
        <pt x="453" y="645" on="1"/>
        <pt x="393" y="645" on="1"/>
        <pt x="393" y="700" on="1"/>
        <pt x="589" y="700" on="1"/>
        <pt x="589" y="645" on="1"/>
        <pt x="522" y="645" on="1"/>
        <pt x="352" y="363" on="1"/>
        <pt x="546" y="55" on="1"/>
        <pt x="617" y="55" on="1"/>
        <pt x="617" y="0" on="1"/>
      </contour>
    </TTGlyph>
    <TTGlyph name="Y" xMin="20" yMin="0" xMax="661" yMax="700">
      <contour>
        <pt x="20" y="645" on="1"/>
        <pt x="20" y="700" on="1"/>
        <pt x="222" y="700" on="1"/>
        <pt x="222" y="645" on="1"/>
        <pt x="159" y="645" on="1"/>
        <pt x="347" y="292" on="1"/>
        <pt x="526" y="645" on="1"/>
        <pt x="465" y="645" on="1"/>
        <pt x="465" y="700" on="1"/>
        <pt x="661" y="700" on="1"/>
        <pt x="661" y="645" on="1"/>
        <pt x="594" y="645" on="1"/>
        <pt x="379" y="236" on="1"/>
        <pt x="379" y="55" on="1"/>
        <pt x="451" y="55" on="1"/>
        <pt x="451" y="0" on="1"/>
        <pt x="251" y="0" on="1"/>
        <pt x="251" y="55" on="1"/>
        <pt x="316" y="55" on="1"/>
        <pt x="316" y="236" on="1"/>
        <pt x="88" y="645" on="1"/>
      </contour>
    </TTGlyph>
    <TTGlyph name="Yacute" xMin="20" yMin="0" xMax="661" yMax="900">
      <contour>
        <pt x="20" y="645" on="1"/>
        <pt x="20" y="700" on="1"/>
        <pt x="222" y="700" on="1"/>
        <pt x="222" y="645" on="1"/>
        <pt x="159" y="645" on="1"/>
        <pt x="347" y="292" on="1"/>
        <pt x="526" y="645" on="1"/>
        <pt x="465" y="645" on="1"/>
        <pt x="465" y="700" on="1"/>
        <pt x="661" y="700" on="1"/>
        <pt x="661" y="645" on="1"/>
        <pt x="594" y="645" on="1"/>
        <pt x="379" y="236" on="1"/>
        <pt x="379" y="55" on="1"/>
        <pt x="451" y="55" on="1"/>
        <pt x="451" y="0" on="1"/>
        <pt x="251" y="0" on="1"/>
        <pt x="251" y="55" on="1"/>
        <pt x="316" y="55" on="1"/>
        <pt x="316" y="236" on="1"/>
        <pt x="88" y="645" on="1"/>
      </contour>
      <contour>
        <pt x="414" y="900" on="1"/>
        <pt x="474" y="893" on="1"/>
        <pt x="355" y="745" on="1"/>
        <pt x="310" y="753" on="1"/>
      </contour>
    </TTGlyph>
    <TTGlyph name="Ydieresis" xMin="20" yMin="0" xMax="661" yMax="830">
      <contour>
        <pt x="20" y="645" on="1"/>
        <pt x="20" y="700" on="1"/>
        <pt x="222" y="700" on="1"/>
        <pt x="222" y="645" on="1"/>
        <pt x="159" y="645" on="1"/>
        <pt x="347" y="292" on="1"/>
        <pt x="526" y="645" on="1"/>
        <pt x="465" y="645" on="1"/>
        <pt x="465" y="700" on="1"/>
        <pt x="661" y="700" on="1"/>
        <pt x="661" y="645" on="1"/>
        <pt x="594" y="645" on="1"/>
        <pt x="379" y="236" on="1"/>
        <pt x="379" y="55" on="1"/>
        <pt x="451" y="55" on="1"/>
        <pt x="451" y="0" on="1"/>
        <pt x="251" y="0" on="1"/>
        <pt x="251" y="55" on="1"/>
        <pt x="316" y="55" on="1"/>
        <pt x="316" y="236" on="1"/>
        <pt x="88" y="645" on="1"/>
      </contour>
      <contour>
        <pt x="222" y="750" on="0"/>
        <pt x="201" y="773" on="0"/>
        <pt x="201" y="809" on="0"/>
        <pt x="222" y="830" on="0"/>
        <pt x="257" y="830" on="0"/>
        <pt x="278" y="809" on="0"/>
        <pt x="278" y="771" on="0"/>
        <pt x="256" y="750" on="0"/>
      </contour>
      <contour>
        <pt x="437" y="750" on="0"/>
        <pt x="417" y="773" on="0"/>
        <pt x="417" y="809" on="0"/>
        <pt x="437" y="830" on="0"/>
        <pt x="454" y="830" on="1"/>
        <pt x="494" y="830" on="0"/>
        <pt x="494" y="790" on="1"/>
        <pt x="494" y="771" on="0"/>
        <pt x="472" y="750" on="0"/>
      </contour>
    </TTGlyph>
    <TTGlyph name="Z" xMin="25" yMin="0" xMax="552" yMax="700">
      <contour>
        <pt x="35" y="0" on="1"/>
        <pt x="25" y="55" on="1"/>
        <pt x="418" y="645" on="1"/>
        <pt x="100" y="645" on="1"/>
        <pt x="88" y="548" on="1"/>
        <pt x="38" y="556" on="1"/>
        <pt x="51" y="700" on="1"/>
        <pt x="486" y="700" on="1"/>
        <pt x="496" y="645" on="1"/>
        <pt x="103" y="55" on="1"/>
        <pt x="488" y="55" on="1"/>
        <pt x="503" y="180" on="1"/>
        <pt x="552" y="175" on="1"/>
        <pt x="537" y="0" on="1"/>
      </contour>
    </TTGlyph>
    <TTGlyph name="a" xMin="40" yMin="-4" xMax="499" yMax="503">
      <contour>
        <pt x="182" y="-4" on="1"/>
        <pt x="49" y="-4" on="0"/>
        <pt x="41" y="101" on="1"/>
        <pt x="40" y="108" on="0"/>
        <pt x="40" y="115" on="1"/>
        <pt x="40" y="199" on="0"/>
        <pt x="141" y="227" on="1"/>
        <pt x="197" y="241" on="0"/>
        <pt x="357" y="259" on="1"/>
        <pt x="357" y="336" on="1"/>
        <pt x="357" y="445" on="0"/>
        <pt x="243" y="445" on="1"/>
        <pt x="161" y="444" on="0"/>
        <pt x="69" y="407" on="1"/>
        <pt x="52" y="450" on="1"/>
        <pt x="62" y="454" on="1"/>
        <pt x="140" y="488" on="0"/>
        <pt x="222" y="502" on="0"/>
        <pt x="260" y="503" on="0"/>
        <pt x="295" y="501" on="0"/>
        <pt x="351" y="485" on="0"/>
        <pt x="392" y="456" on="0"/>
        <pt x="422" y="398" on="0"/>
        <pt x="422" y="358" on="1"/>
        <pt x="422" y="50" on="1"/>
        <pt x="499" y="50" on="1"/>
        <pt x="499" y="0" on="1"/>
        <pt x="367" y="0" on="1"/>
        <pt x="357" y="38" on="1"/>
        <pt x="267" y="-4" on="0"/>
      </contour>
      <contour>
        <pt x="200" y="42" on="1"/>
        <pt x="276" y="42" on="0"/>
        <pt x="357" y="76" on="1"/>
        <pt x="357" y="219" on="1"/>
        <pt x="207" y="214" on="0"/>
        <pt x="163" y="199" on="1"/>
        <pt x="129" y="190" on="0"/>
        <pt x="101" y="143" on="0"/>
        <pt x="101" y="115" on="0"/>
        <pt x="101" y="110" on="1"/>
        <pt x="104" y="74" on="0"/>
        <pt x="160" y="42" on="0"/>
      </contour>
    </TTGlyph>
    <TTGlyph name="aacute" xMin="40" yMin="-4" xMax="499" yMax="750">
      <contour>
        <pt x="182" y="-4" on="1"/>
        <pt x="49" y="-4" on="0"/>
        <pt x="41" y="101" on="1"/>
        <pt x="40" y="108" on="0"/>
        <pt x="40" y="115" on="1"/>
        <pt x="40" y="199" on="0"/>
        <pt x="141" y="227" on="1"/>
        <pt x="197" y="241" on="0"/>
        <pt x="357" y="259" on="1"/>
        <pt x="357" y="336" on="1"/>
        <pt x="357" y="445" on="0"/>
        <pt x="243" y="445" on="1"/>
        <pt x="161" y="444" on="0"/>
        <pt x="69" y="407" on="1"/>
        <pt x="52" y="450" on="1"/>
        <pt x="62" y="454" on="1"/>
        <pt x="140" y="488" on="0"/>
        <pt x="222" y="502" on="0"/>
        <pt x="260" y="503" on="0"/>
        <pt x="295" y="501" on="0"/>
        <pt x="351" y="485" on="0"/>
        <pt x="392" y="456" on="0"/>
        <pt x="422" y="398" on="0"/>
        <pt x="422" y="358" on="1"/>
        <pt x="422" y="50" on="1"/>
        <pt x="499" y="50" on="1"/>
        <pt x="499" y="0" on="1"/>
        <pt x="367" y="0" on="1"/>
        <pt x="357" y="38" on="1"/>
        <pt x="267" y="-4" on="0"/>
      </contour>
      <contour>
        <pt x="200" y="42" on="1"/>
        <pt x="276" y="42" on="0"/>
        <pt x="357" y="76" on="1"/>
        <pt x="357" y="219" on="1"/>
        <pt x="207" y="214" on="0"/>
        <pt x="163" y="199" on="1"/>
        <pt x="129" y="190" on="0"/>
        <pt x="101" y="143" on="0"/>
        <pt x="101" y="115" on="0"/>
        <pt x="101" y="110" on="1"/>
        <pt x="104" y="74" on="0"/>
        <pt x="160" y="42" on="0"/>
      </contour>
      <contour>
        <pt x="326" y="750" on="1"/>
        <pt x="386" y="743" on="1"/>
        <pt x="267" y="595" on="1"/>
        <pt x="222" y="603" on="1"/>
      </contour>
    </TTGlyph>
    <TTGlyph name="acircumflex" xMin="40" yMin="-4" xMax="499" yMax="761">
      <contour>
        <pt x="182" y="-4" on="1"/>
        <pt x="49" y="-4" on="0"/>
        <pt x="41" y="101" on="1"/>
        <pt x="40" y="108" on="0"/>
        <pt x="40" y="115" on="1"/>
        <pt x="40" y="199" on="0"/>
        <pt x="141" y="227" on="1"/>
        <pt x="197" y="241" on="0"/>
        <pt x="357" y="259" on="1"/>
        <pt x="357" y="336" on="1"/>
        <pt x="357" y="445" on="0"/>
        <pt x="243" y="445" on="1"/>
        <pt x="161" y="444" on="0"/>
        <pt x="69" y="407" on="1"/>
        <pt x="52" y="450" on="1"/>
        <pt x="62" y="454" on="1"/>
        <pt x="140" y="488" on="0"/>
        <pt x="222" y="502" on="0"/>
        <pt x="260" y="503" on="0"/>
        <pt x="295" y="501" on="0"/>
        <pt x="351" y="485" on="0"/>
        <pt x="392" y="456" on="0"/>
        <pt x="422" y="398" on="0"/>
        <pt x="422" y="358" on="1"/>
        <pt x="422" y="50" on="1"/>
        <pt x="499" y="50" on="1"/>
        <pt x="499" y="0" on="1"/>
        <pt x="367" y="0" on="1"/>
        <pt x="357" y="38" on="1"/>
        <pt x="267" y="-4" on="0"/>
      </contour>
      <contour>
        <pt x="200" y="42" on="1"/>
        <pt x="276" y="42" on="0"/>
        <pt x="357" y="76" on="1"/>
        <pt x="357" y="219" on="1"/>
        <pt x="207" y="214" on="0"/>
        <pt x="163" y="199" on="1"/>
        <pt x="129" y="190" on="0"/>
        <pt x="101" y="143" on="0"/>
        <pt x="101" y="115" on="0"/>
        <pt x="101" y="110" on="1"/>
        <pt x="104" y="74" on="0"/>
        <pt x="160" y="42" on="0"/>
      </contour>
      <contour>
        <pt x="82" y="600" on="1"/>
        <pt x="249" y="761" on="1"/>
        <pt x="407" y="607" on="0"/>
        <pt x="415" y="600" on="1"/>
        <pt x="382" y="571" on="1"/>
        <pt x="248" y="704" on="1"/>
        <pt x="116" y="571" on="1"/>
      </contour>
    </TTGlyph>
    <TTGlyph name="acute" xMin="76" yMin="595" xMax="240" yMax="750">
      <contour>
        <pt x="180" y="750" on="1"/>
        <pt x="240" y="743" on="1"/>
        <pt x="121" y="595" on="1"/>
        <pt x="76" y="603" on="1"/>
      </contour>
    </TTGlyph>
    <TTGlyph name="adieresis" xMin="40" yMin="-4" xMax="499" yMax="650">
      <contour>
        <pt x="182" y="-4" on="1"/>
        <pt x="49" y="-4" on="0"/>
        <pt x="41" y="101" on="1"/>
        <pt x="40" y="108" on="0"/>
        <pt x="40" y="115" on="1"/>
        <pt x="40" y="199" on="0"/>
        <pt x="141" y="227" on="1"/>
        <pt x="197" y="241" on="0"/>
        <pt x="357" y="259" on="1"/>
        <pt x="357" y="336" on="1"/>
        <pt x="357" y="445" on="0"/>
        <pt x="243" y="445" on="1"/>
        <pt x="161" y="444" on="0"/>
        <pt x="69" y="407" on="1"/>
        <pt x="52" y="450" on="1"/>
        <pt x="62" y="454" on="1"/>
        <pt x="140" y="488" on="0"/>
        <pt x="222" y="502" on="0"/>
        <pt x="260" y="503" on="0"/>
        <pt x="295" y="501" on="0"/>
        <pt x="351" y="485" on="0"/>
        <pt x="392" y="456" on="0"/>
        <pt x="422" y="398" on="0"/>
        <pt x="422" y="358" on="1"/>
        <pt x="422" y="50" on="1"/>
        <pt x="499" y="50" on="1"/>
        <pt x="499" y="0" on="1"/>
        <pt x="367" y="0" on="1"/>
        <pt x="357" y="38" on="1"/>
        <pt x="267" y="-4" on="0"/>
      </contour>
      <contour>
        <pt x="200" y="42" on="1"/>
        <pt x="276" y="42" on="0"/>
        <pt x="357" y="76" on="1"/>
        <pt x="357" y="219" on="1"/>
        <pt x="207" y="214" on="0"/>
        <pt x="163" y="199" on="1"/>
        <pt x="129" y="190" on="0"/>
        <pt x="101" y="143" on="0"/>
        <pt x="101" y="115" on="0"/>
        <pt x="101" y="110" on="1"/>
        <pt x="104" y="74" on="0"/>
        <pt x="160" y="42" on="0"/>
      </contour>
      <contour>
        <pt x="119" y="570" on="0"/>
        <pt x="98" y="593" on="0"/>
        <pt x="98" y="629" on="0"/>
        <pt x="119" y="650" on="0"/>
        <pt x="154" y="650" on="0"/>
        <pt x="175" y="629" on="0"/>
        <pt x="175" y="591" on="0"/>
        <pt x="153" y="570" on="0"/>
      </contour>
      <contour>
        <pt x="334" y="570" on="0"/>
        <pt x="314" y="593" on="0"/>
        <pt x="314" y="629" on="0"/>
        <pt x="334" y="650" on="0"/>
        <pt x="351" y="650" on="1"/>
        <pt x="391" y="650" on="0"/>
        <pt x="391" y="610" on="1"/>
        <pt x="391" y="591" on="0"/>
        <pt x="369" y="570" on="0"/>
      </contour>
    </TTGlyph>
    <TTGlyph name="ae" xMin="40" yMin="-4" xMax="686" yMax="505">
      <contour>
        <pt x="373" y="468" on="1"/>
        <pt x="429" y="504" on="0"/>
        <pt x="587" y="504" on="0"/>
        <pt x="686" y="400" on="0"/>
        <pt x="686" y="306" on="1"/>
        <pt x="686" y="286" on="0"/>
        <pt x="683" y="263" on="1"/>
        <pt x="326" y="263" on="1"/>
        <pt x="325" y="252" on="0"/>
        <pt x="325" y="230" on="1"/>
        <pt x="325" y="54" on="0"/>
        <pt x="493" y="54" on="1"/>
        <pt x="537" y="54" on="0"/>
        <pt x="629" y="73" on="0"/>
        <pt x="644" y="81" on="1"/>
        <pt x="659" y="28" on="1"/>
        <pt x="635" y="15" on="0"/>
        <pt x="530" y="-4" on="0"/>
        <pt x="483" y="-4" on="1"/>
        <pt x="397" y="-4" on="0"/>
        <pt x="344" y="32" on="1"/>
        <pt x="260" y="-4" on="0"/>
        <pt x="182" y="-4" on="1"/>
        <pt x="49" y="-4" on="0"/>
        <pt x="41" y="101" on="1"/>
        <pt x="40" y="108" on="0"/>
        <pt x="40" y="115" on="1"/>
        <pt x="40" y="199" on="0"/>
        <pt x="141" y="227" on="1"/>
        <pt x="166" y="233" on="0"/>
        <pt x="260" y="247" on="1"/>
        <pt x="264" y="354" on="0"/>
        <pt x="321" y="423" on="1"/>
        <pt x="294" y="445" on="0"/>
        <pt x="181" y="444" on="0"/>
        <pt x="105" y="420" on="1"/>
        <pt x="101" y="334" on="1"/>
        <pt x="52" y="329" on="1"/>
        <pt x="52" y="450" on="1"/>
        <pt x="62" y="454" on="1"/>
        <pt x="140" y="488" on="0"/>
        <pt x="181" y="495" on="1"/>
        <pt x="229" y="503" on="0"/>
        <pt x="254" y="503" on="1"/>
        <pt x="326" y="503" on="0"/>
      </contour>
      <contour>
        <pt x="626" y="300" on="1"/>
        <pt x="626" y="418" on="0"/>
        <pt x="540" y="437" on="1"/>
        <pt x="522" y="442" on="0"/>
        <pt x="506" y="442" on="1"/>
        <pt x="436" y="442" on="0"/>
        <pt x="347" y="360" on="0"/>
        <pt x="333" y="300" on="1"/>
      </contour>
      <contour>
        <pt x="163" y="199" on="1"/>
        <pt x="129" y="190" on="0"/>
        <pt x="101" y="143" on="0"/>
        <pt x="101" y="115" on="0"/>
        <pt x="101" y="110" on="1"/>
        <pt x="104" y="74" on="0"/>
        <pt x="160" y="42" on="0"/>
        <pt x="247" y="42" on="0"/>
        <pt x="312" y="60" on="1"/>
        <pt x="263" y="116" on="0"/>
        <pt x="260" y="214" on="1"/>
        <pt x="192" y="209" on="0"/>
      </contour>
    </TTGlyph>
    <TTGlyph name="agrave" xMin="40" yMin="-4" xMax="499" yMax="750">
      <contour>
        <pt x="182" y="-4" on="1"/>
        <pt x="49" y="-4" on="0"/>
        <pt x="41" y="101" on="1"/>
        <pt x="40" y="108" on="0"/>
        <pt x="40" y="115" on="1"/>
        <pt x="40" y="199" on="0"/>
        <pt x="141" y="227" on="1"/>
        <pt x="197" y="241" on="0"/>
        <pt x="357" y="259" on="1"/>
        <pt x="357" y="336" on="1"/>
        <pt x="357" y="445" on="0"/>
        <pt x="243" y="445" on="1"/>
        <pt x="161" y="444" on="0"/>
        <pt x="69" y="407" on="1"/>
        <pt x="52" y="450" on="1"/>
        <pt x="62" y="454" on="1"/>
        <pt x="140" y="488" on="0"/>
        <pt x="222" y="502" on="0"/>
        <pt x="260" y="503" on="0"/>
        <pt x="295" y="501" on="0"/>
        <pt x="351" y="485" on="0"/>
        <pt x="392" y="456" on="0"/>
        <pt x="422" y="398" on="0"/>
        <pt x="422" y="358" on="1"/>
        <pt x="422" y="50" on="1"/>
        <pt x="499" y="50" on="1"/>
        <pt x="499" y="0" on="1"/>
        <pt x="367" y="0" on="1"/>
        <pt x="357" y="38" on="1"/>
        <pt x="267" y="-4" on="0"/>
      </contour>
      <contour>
        <pt x="200" y="42" on="1"/>
        <pt x="276" y="42" on="0"/>
        <pt x="357" y="76" on="1"/>
        <pt x="357" y="219" on="1"/>
        <pt x="207" y="214" on="0"/>
        <pt x="163" y="199" on="1"/>
        <pt x="129" y="190" on="0"/>
        <pt x="101" y="143" on="0"/>
        <pt x="101" y="115" on="0"/>
        <pt x="101" y="110" on="1"/>
        <pt x="104" y="74" on="0"/>
        <pt x="160" y="42" on="0"/>
      </contour>
      <contour>
        <pt x="276" y="603" on="1"/>
        <pt x="230" y="595" on="1"/>
        <pt x="112" y="743" on="1"/>
        <pt x="172" y="750" on="1"/>
      </contour>
    </TTGlyph>
    <TTGlyph name="ampersand" xMin="71" yMin="-4" xMax="808" yMax="749">
      <contour>
        <pt x="338" y="-4" on="1"/>
        <pt x="71" y="-4" on="0"/>
        <pt x="71" y="229" on="1"/>
        <pt x="71" y="330" on="0"/>
        <pt x="169" y="444" on="0"/>
        <pt x="254" y="461" on="1"/>
        <pt x="199" y="547" on="0"/>
        <pt x="199" y="654" on="0"/>
        <pt x="288" y="749" on="0"/>
        <pt x="376" y="749" on="1"/>
        <pt x="424" y="749" on="0"/>
        <pt x="484" y="726" on="0"/>
        <pt x="520" y="706" on="0"/>
        <pt x="528" y="699" on="1"/>
        <pt x="559" y="674" on="0"/>
        <pt x="560" y="674" on="1"/>
        <pt x="524" y="634" on="1"/>
        <pt x="451" y="694" on="0"/>
        <pt x="380" y="694" on="1"/>
        <pt x="311" y="694" on="0"/>
        <pt x="286" y="654" on="1"/>
        <pt x="264" y="622" on="0"/>
        <pt x="264" y="593" on="1"/>
        <pt x="264" y="525" on="0"/>
        <pt x="462" y="290" on="0"/>
        <pt x="600" y="163" on="1"/>
        <pt x="646" y="215" on="0"/>
        <pt x="672" y="288" on="1"/>
        <pt x="672" y="300" on="0"/>
        <pt x="660" y="302" on="1"/>
        <pt x="598" y="302" on="1"/>
        <pt x="597" y="308" on="0"/>
        <pt x="597" y="352" on="1"/>
        <pt x="807" y="353" on="1"/>
        <pt x="807" y="352" on="0"/>
        <pt x="808" y="328" on="1"/>
        <pt x="808" y="303" on="1"/>
        <pt x="738" y="303" on="1"/>
        <pt x="712" y="202" on="0"/>
        <pt x="644" y="123" on="1"/>
        <pt x="659" y="110" on="0"/>
        <pt x="726" y="52" on="1"/>
        <pt x="808" y="52" on="1"/>
        <pt x="807" y="0" on="1"/>
        <pt x="698" y="-1" on="1"/>
        <pt x="669" y="23" on="0"/>
        <pt x="602" y="83" on="1"/>
        <pt x="498" y="-4" on="0"/>
      </contour>
      <contour>
        <pt x="136" y="148" on="0"/>
        <pt x="236" y="51" on="0"/>
        <pt x="471" y="51" on="0"/>
        <pt x="559" y="122" on="1"/>
        <pt x="382" y="285" on="0"/>
        <pt x="288" y="411" on="1"/>
        <pt x="216" y="403" on="0"/>
        <pt x="136" y="311" on="0"/>
      </contour>
    </TTGlyph>
    <TTGlyph name="aring" xMin="40" yMin="-4" xMax="499" yMax="744">
      <contour>
        <pt x="182" y="-4" on="1"/>
        <pt x="49" y="-4" on="0"/>
        <pt x="41" y="101" on="1"/>
        <pt x="40" y="108" on="0"/>
        <pt x="40" y="115" on="1"/>
        <pt x="40" y="199" on="0"/>
        <pt x="141" y="227" on="1"/>
        <pt x="197" y="241" on="0"/>
        <pt x="357" y="259" on="1"/>
        <pt x="357" y="336" on="1"/>
        <pt x="357" y="445" on="0"/>
        <pt x="243" y="445" on="1"/>
        <pt x="161" y="444" on="0"/>
        <pt x="69" y="407" on="1"/>
        <pt x="52" y="450" on="1"/>
        <pt x="62" y="454" on="1"/>
        <pt x="140" y="488" on="0"/>
        <pt x="222" y="502" on="0"/>
        <pt x="260" y="503" on="0"/>
        <pt x="295" y="501" on="0"/>
        <pt x="351" y="485" on="0"/>
        <pt x="392" y="456" on="0"/>
        <pt x="422" y="398" on="0"/>
        <pt x="422" y="358" on="1"/>
        <pt x="422" y="50" on="1"/>
        <pt x="499" y="50" on="1"/>
        <pt x="499" y="0" on="1"/>
        <pt x="367" y="0" on="1"/>
        <pt x="357" y="38" on="1"/>
        <pt x="267" y="-4" on="0"/>
      </contour>
      <contour>
        <pt x="200" y="42" on="1"/>
        <pt x="276" y="42" on="0"/>
        <pt x="357" y="76" on="1"/>
        <pt x="357" y="219" on="1"/>
        <pt x="207" y="214" on="0"/>
        <pt x="163" y="199" on="1"/>
        <pt x="129" y="190" on="0"/>
        <pt x="101" y="143" on="0"/>
        <pt x="101" y="115" on="0"/>
        <pt x="101" y="110" on="1"/>
        <pt x="104" y="74" on="0"/>
        <pt x="160" y="42" on="0"/>
      </contour>
      <contour>
        <pt x="222" y="585" on="0"/>
        <pt x="175" y="623" on="0"/>
        <pt x="175" y="697" on="0"/>
        <pt x="225" y="744" on="0"/>
        <pt x="259" y="744" on="1"/>
        <pt x="344" y="744" on="0"/>
        <pt x="344" y="664" on="1"/>
        <pt x="344" y="631" on="0"/>
        <pt x="295" y="585" on="0"/>
      </contour>
      <contour>
        <pt x="239" y="716" on="0"/>
        <pt x="210" y="685" on="0"/>
        <pt x="210" y="639" on="0"/>
        <pt x="237" y="613" on="0"/>
        <pt x="280" y="613" on="0"/>
        <pt x="309" y="643" on="0"/>
        <pt x="309" y="689" on="0"/>
        <pt x="281" y="716" on="0"/>
      </contour>
    </TTGlyph>
    <TTGlyph name="asciicircum" xMin="136" yMin="300" xMax="406" yMax="463">
      <contour>
        <pt x="406" y="305" on="1"/>
        <pt x="374" y="300" on="1"/>
        <pt x="366" y="311" on="0"/>
        <pt x="282" y="413" on="0"/>
        <pt x="270" y="429" on="1"/>
        <pt x="260" y="416" on="0"/>
        <pt x="236" y="386" on="1"/>
        <pt x="180" y="318" on="0"/>
        <pt x="168" y="300" on="1"/>
        <pt x="136" y="305" on="1"/>
        <pt x="147" y="319" on="0"/>
        <pt x="259" y="449" on="0"/>
        <pt x="270" y="463" on="1"/>
        <pt x="281" y="449" on="0"/>
        <pt x="395" y="319" on="0"/>
      </contour>
    </TTGlyph>
    <TTGlyph name="asciitilde" xMin="122" yMin="308" xMax="488" yMax="386">
      <contour>
        <pt x="210" y="380" on="1"/>
        <pt x="244" y="380" on="0"/>
        <pt x="379" y="347" on="0"/>
        <pt x="431" y="347" on="0"/>
        <pt x="449" y="365" on="0"/>
        <pt x="453" y="386" on="1"/>
        <pt x="488" y="379" on="1"/>
        <pt x="479" y="340" on="0"/>
        <pt x="445" y="309" on="0"/>
        <pt x="392" y="309" on="0"/>
        <pt x="318" y="328" on="1"/>
        <pt x="252" y="343" on="0"/>
        <pt x="216" y="343" on="1"/>
        <pt x="163" y="343" on="0"/>
        <pt x="156" y="308" on="1"/>
        <pt x="122" y="315" on="1"/>
        <pt x="135" y="380" on="0"/>
      </contour>
    </TTGlyph>
    <TTGlyph name="asterisk" xMin="148" yMin="454" xMax="443" yMax="736">
      <contour>
        <pt x="274" y="736" on="1"/>
        <pt x="322" y="735" on="1"/>
        <pt x="322" y="688" on="0"/>
        <pt x="314" y="613" on="1"/>
        <pt x="427" y="656" on="1"/>
        <pt x="443" y="609" on="1"/>
        <pt x="397" y="593" on="0"/>
        <pt x="325" y="578" on="1"/>
        <pt x="400" y="483" on="1"/>
        <pt x="361" y="454" on="1"/>
        <pt x="332" y="492" on="0"/>
        <pt x="293" y="559" on="1"/>
        <pt x="239" y="480" on="0"/>
        <pt x="225" y="457" on="1"/>
        <pt x="186" y="485" on="1"/>
        <pt x="193" y="494" on="0"/>
        <pt x="264" y="581" on="1"/>
        <pt x="148" y="613" on="1"/>
        <pt x="162" y="660" on="1"/>
        <pt x="220" y="640" on="0"/>
        <pt x="278" y="613" on="1"/>
        <pt x="275" y="726" on="0"/>
      </contour>
    </TTGlyph>
    <TTGlyph name="at" xMin="85" yMin="-215" xMax="973" yMax="715">
      <contour>
        <pt x="758" y="16" on="1"/>
        <pt x="809" y="16" on="0"/>
        <pt x="908" y="143" on="0"/>
        <pt x="908" y="361" on="0"/>
        <pt x="848" y="519" on="0"/>
        <pt x="796" y="566" on="1"/>
        <pt x="692" y="657" on="0"/>
        <pt x="370" y="657" on="0"/>
        <pt x="150" y="413" on="0"/>
        <pt x="150" y="233" on="1"/>
        <pt x="150" y="131" on="0"/>
        <pt x="209" y="-23" on="0"/>
        <pt x="262" y="-68" on="1"/>
        <pt x="365" y="-157" on="0"/>
        <pt x="530" y="-157" on="1"/>
        <pt x="604" y="-157" on="0"/>
        <pt x="675" y="-125" on="1"/>
        <pt x="704" y="-175" on="1"/>
        <pt x="633" y="-215" on="0"/>
        <pt x="523" y="-215" on="1"/>
        <pt x="288" y="-215" on="0"/>
        <pt x="170" y="-61" on="1"/>
        <pt x="85" y="50" on="0"/>
        <pt x="85" y="445" on="0"/>
        <pt x="344" y="715" on="0"/>
        <pt x="536" y="715" on="1"/>
        <pt x="721" y="715" on="0"/>
        <pt x="844" y="606" on="1"/>
        <pt x="904" y="553" on="0"/>
        <pt x="973" y="378" on="0"/>
        <pt x="973" y="190" on="0"/>
        <pt x="930" y="69" on="0"/>
        <pt x="896" y="34" on="1"/>
        <pt x="828" y="-39" on="0"/>
        <pt x="750" y="-39" on="1"/>
        <pt x="711" y="-39" on="0"/>
        <pt x="659" y="2" on="0"/>
        <pt x="655" y="38" on="1"/>
        <pt x="567" y="-4" on="0"/>
        <pt x="480" y="-4" on="1"/>
        <pt x="347" y="-4" on="0"/>
        <pt x="339" y="101" on="1"/>
        <pt x="338" y="108" on="0"/>
        <pt x="338" y="115" on="1"/>
        <pt x="338" y="199" on="0"/>
        <pt x="439" y="227" on="1"/>
        <pt x="495" y="241" on="0"/>
        <pt x="655" y="259" on="1"/>
        <pt x="655" y="336" on="1"/>
        <pt x="655" y="445" on="0"/>
        <pt x="541" y="445" on="1"/>
        <pt x="481" y="444" on="0"/>
        <pt x="405" y="420" on="1"/>
        <pt x="401" y="334" on="1"/>
        <pt x="352" y="329" on="1"/>
        <pt x="352" y="445" on="1"/>
        <pt x="350" y="450" on="1"/>
        <pt x="360" y="454" on="1"/>
        <pt x="438" y="488" on="0"/>
        <pt x="520" y="502" on="0"/>
        <pt x="558" y="503" on="0"/>
        <pt x="593" y="501" on="0"/>
        <pt x="649" y="485" on="0"/>
        <pt x="690" y="456" on="0"/>
        <pt x="720" y="398" on="0"/>
        <pt x="720" y="358" on="1"/>
        <pt x="720" y="47" on="1"/>
        <pt x="723" y="16" on="0"/>
      </contour>
      <contour>
        <pt x="498" y="42" on="1"/>
        <pt x="574" y="42" on="0"/>
        <pt x="655" y="76" on="1"/>
        <pt x="655" y="219" on="1"/>
        <pt x="505" y="214" on="0"/>
        <pt x="461" y="199" on="1"/>
        <pt x="427" y="190" on="0"/>
        <pt x="399" y="143" on="0"/>
        <pt x="399" y="115" on="0"/>
        <pt x="399" y="110" on="1"/>
        <pt x="402" y="74" on="0"/>
        <pt x="458" y="42" on="0"/>
      </contour>
    </TTGlyph>
    <TTGlyph name="atilde" xMin="40" yMin="-4" xMax="499" yMax="661">
      <contour>
        <pt x="182" y="-4" on="1"/>
        <pt x="49" y="-4" on="0"/>
        <pt x="41" y="101" on="1"/>
        <pt x="40" y="108" on="0"/>
        <pt x="40" y="115" on="1"/>
        <pt x="40" y="199" on="0"/>
        <pt x="141" y="227" on="1"/>
        <pt x="197" y="241" on="0"/>
        <pt x="357" y="259" on="1"/>
        <pt x="357" y="336" on="1"/>
        <pt x="357" y="445" on="0"/>
        <pt x="243" y="445" on="1"/>
        <pt x="161" y="444" on="0"/>
        <pt x="69" y="407" on="1"/>
        <pt x="52" y="450" on="1"/>
        <pt x="62" y="454" on="1"/>
        <pt x="140" y="488" on="0"/>
        <pt x="222" y="502" on="0"/>
        <pt x="260" y="503" on="0"/>
        <pt x="295" y="501" on="0"/>
        <pt x="351" y="485" on="0"/>
        <pt x="392" y="456" on="0"/>
        <pt x="422" y="398" on="0"/>
        <pt x="422" y="358" on="1"/>
        <pt x="422" y="50" on="1"/>
        <pt x="499" y="50" on="1"/>
        <pt x="499" y="0" on="1"/>
        <pt x="367" y="0" on="1"/>
        <pt x="357" y="38" on="1"/>
        <pt x="267" y="-4" on="0"/>
      </contour>
      <contour>
        <pt x="200" y="42" on="1"/>
        <pt x="276" y="42" on="0"/>
        <pt x="357" y="76" on="1"/>
        <pt x="357" y="219" on="1"/>
        <pt x="207" y="214" on="0"/>
        <pt x="163" y="199" on="1"/>
        <pt x="129" y="190" on="0"/>
        <pt x="101" y="143" on="0"/>
        <pt x="101" y="115" on="0"/>
        <pt x="101" y="110" on="1"/>
        <pt x="104" y="74" on="0"/>
        <pt x="160" y="42" on="0"/>
      </contour>
      <contour>
        <pt x="144" y="655" on="1"/>
        <pt x="178" y="655" on="0"/>
        <pt x="313" y="622" on="0"/>
        <pt x="365" y="622" on="0"/>
        <pt x="383" y="640" on="0"/>
        <pt x="387" y="661" on="1"/>
        <pt x="422" y="654" on="1"/>
        <pt x="413" y="615" on="0"/>
        <pt x="379" y="584" on="0"/>
        <pt x="326" y="584" on="0"/>
        <pt x="252" y="603" on="1"/>
        <pt x="186" y="618" on="0"/>
        <pt x="150" y="618" on="1"/>
        <pt x="97" y="618" on="0"/>
        <pt x="90" y="583" on="1"/>
        <pt x="56" y="590" on="1"/>
        <pt x="69" y="655" on="0"/>
      </contour>
    </TTGlyph>
    <TTGlyph name="b" xMin="50" yMin="0" xMax="515" yMax="750">
      <contour>
        <pt x="50" y="700" on="1"/>
        <pt x="50" y="750" on="1"/>
        <pt x="182" y="750" on="1"/>
        <pt x="182" y="460" on="1"/>
        <pt x="242" y="509" on="0"/>
        <pt x="316" y="509" on="1"/>
        <pt x="384" y="509" on="0"/>
        <pt x="444" y="467" on="1"/>
        <pt x="476" y="444" on="0"/>
        <pt x="515" y="346" on="0"/>
        <pt x="515" y="276" on="1"/>
        <pt x="515" y="143" on="0"/>
        <pt x="449" y="76" on="1"/>
        <pt x="374" y="0" on="0"/>
        <pt x="259" y="0" on="1"/>
        <pt x="216" y="0" on="0"/>
        <pt x="131" y="14" on="0"/>
        <pt x="117" y="23" on="1"/>
        <pt x="117" y="700" on="1"/>
      </contour>
      <contour>
        <pt x="182" y="425" on="1"/>
        <pt x="182" y="56" on="1"/>
        <pt x="211" y="49" on="0"/>
        <pt x="245" y="49" on="1"/>
        <pt x="344" y="49" on="0"/>
        <pt x="450" y="165" on="0"/>
        <pt x="450" y="271" on="1"/>
        <pt x="450" y="394" on="0"/>
        <pt x="378" y="432" on="1"/>
        <pt x="343" y="451" on="0"/>
        <pt x="244" y="451" on="0"/>
      </contour>
    </TTGlyph>
    <TTGlyph name="backslash" xMin="107" yMin="-200" xMax="495" yMax="749">
      <contour>
        <pt x="495" y="-200" on="1"/>
        <pt x="425" y="-200" on="1"/>
        <pt x="107" y="749" on="1"/>
        <pt x="177" y="749" on="1"/>
      </contour>
    </TTGlyph>
    <TTGlyph name="bar" xMin="112" yMin="-200" xMax="172" yMax="749">
      <contour>
        <pt x="112" y="749" on="1"/>
        <pt x="172" y="749" on="1"/>
        <pt x="172" y="-200" on="1"/>
        <pt x="112" y="-200" on="1"/>
      </contour>
    </TTGlyph>
    <TTGlyph name="braceleft" xMin="61" yMin="-250" xMax="353" yMax="749">
      <contour>
        <pt x="61" y="221" on="1"/>
        <pt x="61" y="278" on="1"/>
        <pt x="177" y="278" on="0"/>
        <pt x="177" y="378" on="1"/>
        <pt x="177" y="613" on="1"/>
        <pt x="177" y="657" on="0"/>
        <pt x="194" y="687" on="1"/>
        <pt x="229" y="749" on="0"/>
        <pt x="333" y="749" on="1"/>
        <pt x="343" y="749" on="0"/>
        <pt x="353" y="748" on="1"/>
        <pt x="353" y="691" on="1"/>
        <pt x="349" y="691" on="0"/>
        <pt x="345" y="691" on="1"/>
        <pt x="302" y="691" on="0"/>
        <pt x="237" y="648" on="0"/>
        <pt x="237" y="591" on="1"/>
        <pt x="237" y="381" on="1"/>
        <pt x="237" y="289" on="0"/>
        <pt x="180" y="249" on="1"/>
        <pt x="237" y="211" on="0"/>
        <pt x="237" y="118" on="1"/>
        <pt x="237" y="-92" on="1"/>
        <pt x="237" y="-150" on="0"/>
        <pt x="302" y="-192" on="0"/>
        <pt x="345" y="-192" on="1"/>
        <pt x="349" y="-192" on="0"/>
        <pt x="353" y="-192" on="1"/>
        <pt x="353" y="-249" on="1"/>
        <pt x="343" y="-250" on="0"/>
        <pt x="313" y="-250" on="0"/>
        <pt x="268" y="-243" on="0"/>
        <pt x="211" y="-218" on="0"/>
        <pt x="177" y="-158" on="0"/>
        <pt x="177" y="-114" on="1"/>
        <pt x="177" y="96" on="1"/>
        <pt x="177" y="217" on="0"/>
        <pt x="68" y="221" on="1"/>
      </contour>
    </TTGlyph>
    <TTGlyph name="braceright" xMin="61" yMin="-250" xMax="353" yMax="749">
      <contour>
        <pt x="353" y="221" on="1"/>
        <pt x="346" y="221" on="1"/>
        <pt x="237" y="217" on="0"/>
        <pt x="237" y="96" on="1"/>
        <pt x="237" y="-114" on="1"/>
        <pt x="237" y="-158" on="0"/>
        <pt x="220" y="-188" on="1"/>
        <pt x="185" y="-250" on="0"/>
        <pt x="81" y="-250" on="1"/>
        <pt x="71" y="-250" on="0"/>
        <pt x="61" y="-249" on="1"/>
        <pt x="61" y="-192" on="1"/>
        <pt x="65" y="-192" on="0"/>
        <pt x="69" y="-192" on="1"/>
        <pt x="112" y="-192" on="0"/>
        <pt x="177" y="-150" on="0"/>
        <pt x="177" y="-92" on="1"/>
        <pt x="177" y="118" on="1"/>
        <pt x="177" y="211" on="0"/>
        <pt x="234" y="249" on="1"/>
        <pt x="177" y="289" on="0"/>
        <pt x="177" y="381" on="1"/>
        <pt x="177" y="591" on="1"/>
        <pt x="177" y="648" on="0"/>
        <pt x="112" y="691" on="0"/>
        <pt x="69" y="691" on="1"/>
        <pt x="65" y="691" on="0"/>
        <pt x="61" y="691" on="1"/>
        <pt x="61" y="748" on="1"/>
        <pt x="71" y="749" on="0"/>
        <pt x="100" y="749" on="0"/>
        <pt x="145" y="742" on="0"/>
        <pt x="203" y="717" on="0"/>
        <pt x="237" y="657" on="0"/>
        <pt x="237" y="613" on="1"/>
        <pt x="237" y="378" on="1"/>
        <pt x="237" y="278" on="0"/>
        <pt x="353" y="278" on="1"/>
      </contour>
    </TTGlyph>
    <TTGlyph name="bracketleft" xMin="107" yMin="-201" xMax="300" yMax="750">
      <contour>
        <pt x="138" y="-201" on="1"/>
        <pt x="138" y="-200" on="1"/>
        <pt x="107" y="-200" on="1"/>
        <pt x="107" y="750" on="1"/>
        <pt x="172" y="750" on="1"/>
        <pt x="172" y="749" on="1"/>
        <pt x="300" y="749" on="1"/>
        <pt x="300" y="691" on="1"/>
        <pt x="172" y="691" on="1"/>
        <pt x="172" y="-143" on="1"/>
        <pt x="300" y="-143" on="1"/>
        <pt x="300" y="-201" on="1"/>
      </contour>
    </TTGlyph>
    <TTGlyph name="bracketright" xMin="107" yMin="-201" xMax="300" yMax="750">
      <contour>
        <pt x="269" y="-200" on="1"/>
        <pt x="269" y="-201" on="1"/>
        <pt x="107" y="-201" on="1"/>
        <pt x="107" y="-143" on="1"/>
        <pt x="235" y="-143" on="1"/>
        <pt x="235" y="691" on="1"/>
        <pt x="107" y="691" on="1"/>
        <pt x="107" y="749" on="1"/>
        <pt x="235" y="749" on="1"/>
        <pt x="235" y="750" on="1"/>
        <pt x="300" y="750" on="1"/>
        <pt x="300" y="-200" on="1"/>
      </contour>
    </TTGlyph>
    <TTGlyph name="breve" xMin="80" yMin="589" xMax="420" yMax="700">
      <contour>
        <pt x="110" y="700" on="1"/>
        <pt x="110" y="689" on="0"/>
        <pt x="128" y="656" on="0"/>
        <pt x="156" y="634" on="0"/>
        <pt x="212" y="618" on="0"/>
        <pt x="250" y="618" on="0"/>
        <pt x="293" y="619" on="0"/>
        <pt x="351" y="636" on="0"/>
        <pt x="364" y="648" on="1"/>
        <pt x="388" y="672" on="0"/>
        <pt x="390" y="692" on="1"/>
        <pt x="390" y="700" on="1"/>
        <pt x="420" y="700" on="1"/>
        <pt x="420" y="661" on="0"/>
        <pt x="386" y="630" on="1"/>
        <pt x="371" y="615" on="0"/>
        <pt x="336" y="603" on="1"/>
        <pt x="298" y="590" on="0"/>
        <pt x="202" y="590" on="0"/>
        <pt x="134" y="611" on="0"/>
        <pt x="118" y="628" on="1"/>
        <pt x="83" y="662" on="0"/>
        <pt x="81" y="688" on="1"/>
        <pt x="80" y="700" on="1"/>
      </contour>
    </TTGlyph>
    <TTGlyph name="brokenbar" xMin="112" yMin="-200" xMax="172" yMax="749">
      <contour>
        <pt x="112" y="200" on="1"/>
        <pt x="172" y="200" on="1"/>
        <pt x="172" y="-200" on="1"/>
        <pt x="112" y="-200" on="1"/>
      </contour>
      <contour>
        <pt x="172" y="400" on="1"/>
        <pt x="112" y="400" on="1"/>
        <pt x="112" y="749" on="1"/>
        <pt x="172" y="749" on="1"/>
      </contour>
    </TTGlyph>
    <TTGlyph name="bullet" xMin="103" yMin="293" xMax="358" yMax="557">
      <contour>
        <pt x="175" y="293" on="0"/>
        <pt x="103" y="361" on="0"/>
        <pt x="103" y="481" on="0"/>
        <pt x="177" y="557" on="0"/>
        <pt x="285" y="557" on="0"/>
        <pt x="358" y="488" on="0"/>
        <pt x="358" y="368" on="0"/>
        <pt x="283" y="293" on="0"/>
      </contour>
    </TTGlyph>
    <TTGlyph name="c" xMin="45" yMin="-4" xMax="443" yMax="506">
      <contour>
        <pt x="300" y="446" on="1"/>
        <pt x="215" y="446" on="0"/>
        <pt x="110" y="333" on="0"/>
        <pt x="110" y="231" on="1"/>
        <pt x="110" y="54" on="0"/>
        <pt x="275" y="54" on="1"/>
        <pt x="339" y="54" on="0"/>
        <pt x="425" y="75" on="0"/>
        <pt x="429" y="78" on="1"/>
        <pt x="443" y="31" on="1"/>
        <pt x="420" y="16" on="0"/>
        <pt x="314" y="-4" on="0"/>
        <pt x="228" y="-4" on="0"/>
        <pt x="158" y="14" on="0"/>
        <pt x="87" y="60" on="0"/>
        <pt x="45" y="159" on="0"/>
        <pt x="45" y="230" on="1"/>
        <pt x="45" y="361" on="0"/>
        <pt x="112" y="428" on="1"/>
        <pt x="187" y="505" on="0"/>
        <pt x="301" y="505" on="1"/>
        <pt x="337" y="505" on="0"/>
        <pt x="418" y="486" on="0"/>
        <pt x="440" y="466" on="1"/>
        <pt x="440" y="335" on="1"/>
        <pt x="391" y="328" on="1"/>
        <pt x="386" y="433" on="1"/>
        <pt x="345" y="446" on="0"/>
      </contour>
    </TTGlyph>
    <TTGlyph name="ccedilla" xMin="45" yMin="-139" xMax="443" yMax="506">
      <contour>
        <pt x="300" y="446" on="1"/>
        <pt x="215" y="446" on="0"/>
        <pt x="110" y="333" on="0"/>
        <pt x="110" y="231" on="1"/>
        <pt x="110" y="54" on="0"/>
        <pt x="275" y="54" on="1"/>
        <pt x="339" y="54" on="0"/>
        <pt x="425" y="75" on="0"/>
        <pt x="429" y="78" on="1"/>
        <pt x="443" y="31" on="1"/>
        <pt x="420" y="16" on="0"/>
        <pt x="314" y="-4" on="0"/>
        <pt x="228" y="-4" on="0"/>
        <pt x="158" y="14" on="0"/>
        <pt x="87" y="60" on="0"/>
        <pt x="45" y="159" on="0"/>
        <pt x="45" y="230" on="1"/>
        <pt x="45" y="361" on="0"/>
        <pt x="112" y="428" on="1"/>
        <pt x="187" y="505" on="0"/>
        <pt x="301" y="505" on="1"/>
        <pt x="337" y="505" on="0"/>
        <pt x="418" y="486" on="0"/>
        <pt x="440" y="466" on="1"/>
        <pt x="440" y="335" on="1"/>
        <pt x="391" y="328" on="1"/>
        <pt x="386" y="433" on="1"/>
        <pt x="345" y="446" on="0"/>
      </contour>
      <contour>
        <pt x="202" y="-118" on="1"/>
        <pt x="277" y="-92" on="0"/>
        <pt x="277" y="-46" on="1"/>
        <pt x="277" y="-21" on="0"/>
        <pt x="270" y="0" on="1"/>
        <pt x="305" y="6" on="1"/>
        <pt x="313" y="-15" on="0"/>
        <pt x="313" y="-32" on="1"/>
        <pt x="313" y="-70" on="0"/>
        <pt x="254" y="-129" on="0"/>
        <pt x="212" y="-139" on="1"/>
      </contour>
    </TTGlyph>
    <TTGlyph name="cedilla" xMin="58" yMin="-139" xMax="169" yMax="6">
      <contour>
        <pt x="58" y="-118" on="1"/>
        <pt x="133" y="-92" on="0"/>
        <pt x="133" y="-46" on="1"/>
        <pt x="133" y="-21" on="0"/>
        <pt x="126" y="0" on="1"/>
        <pt x="161" y="6" on="1"/>
        <pt x="169" y="-15" on="0"/>
        <pt x="169" y="-32" on="1"/>
        <pt x="169" y="-70" on="0"/>
        <pt x="110" y="-129" on="0"/>
        <pt x="68" y="-139" on="1"/>
      </contour>
    </TTGlyph>
    <TTGlyph name="cent" xMin="45" yMin="-100" xMax="444" yMax="600">
      <contour>
        <pt x="300" y="446" on="1"/>
        <pt x="289" y="446" on="1"/>
        <pt x="289" y="54" on="1"/>
        <pt x="347" y="56" on="0"/>
        <pt x="424" y="79" on="0"/>
        <pt x="428" y="82" on="1"/>
        <pt x="444" y="28" on="1"/>
        <pt x="394" y="1" on="0"/>
        <pt x="289" y="-3" on="1"/>
        <pt x="289" y="-100" on="1"/>
        <pt x="259" y="-100" on="1"/>
        <pt x="259" y="-4" on="1"/>
        <pt x="177" y="-2" on="0"/>
        <pt x="118" y="40" on="1"/>
        <pt x="84" y="64" on="0"/>
        <pt x="45" y="161" on="0"/>
        <pt x="45" y="230" on="1"/>
        <pt x="45" y="356" on="0"/>
        <pt x="167" y="489" on="0"/>
        <pt x="259" y="502" on="1"/>
        <pt x="259" y="600" on="1"/>
        <pt x="289" y="600" on="1"/>
        <pt x="289" y="505" on="1"/>
        <pt x="296" y="505" on="0"/>
        <pt x="342" y="505" on="0"/>
        <pt x="420" y="485" on="0"/>
        <pt x="440" y="466" on="1"/>
        <pt x="440" y="345" on="1"/>
        <pt x="391" y="338" on="1"/>
        <pt x="386" y="433" on="1"/>
        <pt x="345" y="446" on="0"/>
      </contour>
      <contour>
        <pt x="110" y="231" on="1"/>
        <pt x="110" y="63" on="0"/>
        <pt x="259" y="54" on="1"/>
        <pt x="259" y="442" on="1"/>
        <pt x="190" y="430" on="0"/>
        <pt x="110" y="320" on="0"/>
      </contour>
    </TTGlyph>
    <TTGlyph name="circumflex" xMin="116" yMin="571" xMax="449" yMax="761">
      <contour>
        <pt x="116" y="600" on="1"/>
        <pt x="283" y="761" on="1"/>
        <pt x="441" y="607" on="0"/>
        <pt x="449" y="600" on="1"/>
        <pt x="416" y="571" on="1"/>
        <pt x="282" y="704" on="1"/>
        <pt x="150" y="571" on="1"/>
      </contour>
    </TTGlyph>
    <TTGlyph name="colon" xMin="79" yMin="-8" xMax="149" yMax="473">
      <contour>
        <pt x="79" y="29" on="1"/>
        <pt x="79" y="48" on="0"/>
        <pt x="98" y="70" on="0"/>
        <pt x="114" y="70" on="1"/>
        <pt x="149" y="70" on="0"/>
        <pt x="149" y="29" on="1"/>
        <pt x="149" y="12" on="0"/>
        <pt x="129" y="-8" on="0"/>
        <pt x="114" y="-8" on="1"/>
        <pt x="79" y="-8" on="0"/>
      </contour>
      <contour>
        <pt x="79" y="432" on="1"/>
        <pt x="79" y="451" on="0"/>
        <pt x="98" y="473" on="0"/>
        <pt x="114" y="473" on="1"/>
        <pt x="149" y="473" on="0"/>
        <pt x="149" y="432" on="1"/>
        <pt x="149" y="415" on="0"/>
        <pt x="129" y="395" on="0"/>
        <pt x="114" y="395" on="1"/>
        <pt x="79" y="395" on="0"/>
      </contour>
    </TTGlyph>
    <TTGlyph name="comma" xMin="13" yMin="-103" xMax="87" yMax="65">
      <contour>
        <pt x="33" y="65" on="1"/>
        <pt x="33" y="65" on="0"/>
        <pt x="87" y="64" on="1"/>
        <pt x="87" y="9" on="0"/>
        <pt x="59" y="-103" on="1"/>
        <pt x="13" y="-101" on="1"/>
        <pt x="18" y="-67" on="1"/>
        <pt x="33" y="24" on="0"/>
        <pt x="33" y="62" on="0"/>
      </contour>
    </TTGlyph>
    <TTGlyph name="copyright" xMin="85" yMin="-5" xMax="703" yMax="625">
      <contour>
        <pt x="259" y="-5" on="0"/>
        <pt x="85" y="157" on="0"/>
        <pt x="85" y="449" on="0"/>
        <pt x="263" y="625" on="0"/>
        <pt x="529" y="625" on="0"/>
        <pt x="703" y="462" on="0"/>
        <pt x="703" y="171" on="0"/>
        <pt x="525" y="-5" on="0"/>
      </contour>
      <contour>
        <pt x="276" y="597" on="0"/>
        <pt x="115" y="436" on="0"/>
        <pt x="115" y="178" on="0"/>
        <pt x="274" y="23" on="0"/>
        <pt x="512" y="23" on="0"/>
        <pt x="673" y="184" on="0"/>
        <pt x="673" y="442" on="0"/>
        <pt x="514" y="597" on="0"/>
      </contour>
      <contour>
        <pt x="387" y="477" on="1"/>
        <pt x="325" y="477" on="0"/>
        <pt x="253" y="385" on="0"/>
        <pt x="253" y="299" on="1"/>
        <pt x="253" y="152" on="0"/>
        <pt x="368" y="152" on="1"/>
        <pt x="416" y="152" on="0"/>
        <pt x="476" y="164" on="1"/>
        <pt x="483" y="135" on="1"/>
        <pt x="435" y="122" on="0"/>
        <pt x="364" y="122" on="1"/>
        <pt x="216" y="122" on="0"/>
        <pt x="216" y="299" on="1"/>
        <pt x="216" y="396" on="0"/>
        <pt x="260" y="450" on="1"/>
        <pt x="307" y="506" on="0"/>
        <pt x="385" y="506" on="1"/>
        <pt x="411" y="506" on="0"/>
        <pt x="470" y="496" on="0"/>
        <pt x="480" y="492" on="1"/>
        <pt x="487" y="414" on="1"/>
        <pt x="460" y="410" on="1"/>
        <pt x="453" y="469" on="1"/>
        <pt x="417" y="477" on="0"/>
      </contour>
    </TTGlyph>
    <TTGlyph name="currency" xMin="89" yMin="236" xMax="515" yMax="663">
      <contour>
        <pt x="134" y="324" on="1"/>
        <pt x="100" y="372" on="0"/>
        <pt x="100" y="520" on="0"/>
        <pt x="138" y="571" on="1"/>
        <pt x="90" y="620" on="1"/>
        <pt x="131" y="661" on="1"/>
        <pt x="180" y="612" on="1"/>
        <pt x="232" y="650" on="0"/>
        <pt x="374" y="650" on="0"/>
        <pt x="425" y="615" on="1"/>
        <pt x="473" y="663" on="1"/>
        <pt x="515" y="621" on="1"/>
        <pt x="466" y="572" on="1"/>
        <pt x="500" y="522" on="0"/>
        <pt x="500" y="381" on="0"/>
        <pt x="462" y="330" on="1"/>
        <pt x="515" y="277" on="1"/>
        <pt x="474" y="236" on="1"/>
        <pt x="421" y="289" on="1"/>
        <pt x="368" y="250" on="0"/>
        <pt x="228" y="250" on="0"/>
        <pt x="177" y="283" on="1"/>
        <pt x="131" y="237" on="1"/>
        <pt x="89" y="279" on="1"/>
      </contour>
      <contour>
        <pt x="242" y="592" on="0"/>
        <pt x="160" y="509" on="0"/>
        <pt x="160" y="385" on="0"/>
        <pt x="240" y="308" on="0"/>
        <pt x="358" y="308" on="0"/>
        <pt x="440" y="391" on="0"/>
        <pt x="440" y="515" on="0"/>
        <pt x="360" y="592" on="0"/>
      </contour>
    </TTGlyph>
    <TTGlyph name="d" xMin="45" yMin="-4" xMax="530" yMax="750">
      <contour>
        <pt x="123" y="37" on="1"/>
        <pt x="88" y="60" on="0"/>
        <pt x="45" y="159" on="0"/>
        <pt x="45" y="230" on="1"/>
        <pt x="45" y="361" on="0"/>
        <pt x="112" y="430" on="1"/>
        <pt x="183" y="504" on="0"/>
        <pt x="274" y="504" on="1"/>
        <pt x="330" y="504" on="0"/>
        <pt x="388" y="475" on="1"/>
        <pt x="388" y="700" on="1"/>
        <pt x="321" y="700" on="1"/>
        <pt x="321" y="750" on="1"/>
        <pt x="453" y="750" on="1"/>
        <pt x="453" y="50" on="1"/>
        <pt x="530" y="50" on="1"/>
        <pt x="530" y="0" on="1"/>
        <pt x="398" y="0" on="1"/>
        <pt x="390" y="32" on="1"/>
        <pt x="333" y="-4" on="0"/>
        <pt x="185" y="-4" on="0"/>
      </contour>
      <contour>
        <pt x="388" y="81" on="1"/>
        <pt x="388" y="432" on="1"/>
        <pt x="342" y="446" on="0"/>
        <pt x="301" y="446" on="1"/>
        <pt x="215" y="446" on="0"/>
        <pt x="110" y="333" on="0"/>
        <pt x="110" y="231" on="1"/>
        <pt x="110" y="177" on="0"/>
        <pt x="141" y="102" on="0"/>
        <pt x="167" y="84" on="1"/>
        <pt x="212" y="54" on="0"/>
        <pt x="332" y="54" on="0"/>
      </contour>
    </TTGlyph>
    <TTGlyph name="degree" xMin="90" yMin="513" xMax="287" yMax="710">
      <contour>
        <pt x="145" y="513" on="0"/>
        <pt x="90" y="563" on="0"/>
        <pt x="90" y="654" on="0"/>
        <pt x="147" y="710" on="0"/>
        <pt x="232" y="710" on="0"/>
        <pt x="287" y="660" on="0"/>
        <pt x="287" y="568" on="0"/>
        <pt x="230" y="513" on="0"/>
      </contour>
      <contour>
        <pt x="160" y="682" on="0"/>
        <pt x="120" y="640" on="0"/>
        <pt x="120" y="578" on="0"/>
        <pt x="158" y="541" on="0"/>
        <pt x="217" y="541" on="0"/>
        <pt x="257" y="582" on="0"/>
        <pt x="257" y="644" on="0"/>
        <pt x="218" y="682" on="0"/>
      </contour>
    </TTGlyph>
    <TTGlyph name="dieresis" xMin="109" yMin="570" xMax="402" yMax="650">
      <contour>
        <pt x="130" y="570" on="0"/>
        <pt x="109" y="593" on="0"/>
        <pt x="109" y="629" on="0"/>
        <pt x="130" y="650" on="0"/>
        <pt x="165" y="650" on="0"/>
        <pt x="186" y="629" on="0"/>
        <pt x="186" y="591" on="0"/>
        <pt x="164" y="570" on="0"/>
      </contour>
      <contour>
        <pt x="345" y="570" on="0"/>
        <pt x="325" y="593" on="0"/>
        <pt x="325" y="629" on="0"/>
        <pt x="345" y="650" on="0"/>
        <pt x="362" y="650" on="1"/>
        <pt x="402" y="650" on="0"/>
        <pt x="402" y="610" on="1"/>
        <pt x="402" y="591" on="0"/>
        <pt x="380" y="570" on="0"/>
      </contour>
    </TTGlyph>
    <TTGlyph name="divide" xMin="146" yMin="48" xMax="600" yMax="468">
      <contour>
        <pt x="333" y="95" on="1"/>
        <pt x="333" y="117" on="0"/>
        <pt x="357" y="144" on="0"/>
        <pt x="377" y="144" on="1"/>
        <pt x="420" y="144" on="0"/>
        <pt x="420" y="95" on="1"/>
        <pt x="420" y="74" on="0"/>
        <pt x="395" y="48" on="0"/>
        <pt x="377" y="48" on="1"/>
        <pt x="333" y="48" on="0"/>
      </contour>
      <contour>
        <pt x="333" y="418" on="1"/>
        <pt x="333" y="440" on="0"/>
        <pt x="358" y="468" on="0"/>
        <pt x="377" y="468" on="1"/>
        <pt x="420" y="468" on="0"/>
        <pt x="420" y="418" on="1"/>
        <pt x="420" y="397" on="0"/>
        <pt x="395" y="372" on="0"/>
        <pt x="377" y="372" on="1"/>
        <pt x="333" y="372" on="0"/>
      </contour>
      <contour>
        <pt x="146" y="290" on="1"/>
        <pt x="600" y="290" on="1"/>
        <pt x="600" y="232" on="1"/>
        <pt x="146" y="232" on="1"/>
      </contour>
    </TTGlyph>
    <TTGlyph name="dollar" xMin="65" yMin="-100" xMax="489" yMax="700">
      <contour>
        <pt x="306" y="547" on="1"/>
        <pt x="301" y="547" on="1"/>
        <pt x="301" y="334" on="1"/>
        <pt x="417" y="301" on="0"/>
        <pt x="450" y="267" on="1"/>
        <pt x="489" y="226" on="0"/>
        <pt x="489" y="88" on="0"/>
        <pt x="383" y="3" on="0"/>
        <pt x="301" y="-3" on="1"/>
        <pt x="301" y="-100" on="1"/>
        <pt x="266" y="-100" on="1"/>
        <pt x="266" y="-4" on="1"/>
        <pt x="126" y="2" on="0"/>
        <pt x="65" y="52" on="1"/>
        <pt x="86" y="97" on="1"/>
        <pt x="112" y="74" on="0"/>
        <pt x="215" y="49" on="0"/>
        <pt x="264" y="49" on="1"/>
        <pt x="266" y="49" on="1"/>
        <pt x="266" y="288" on="1"/>
        <pt x="152" y="320" on="0"/>
        <pt x="122" y="349" on="1"/>
        <pt x="84" y="385" on="0"/>
        <pt x="84" y="508" on="0"/>
        <pt x="182" y="593" on="0"/>
        <pt x="266" y="599" on="1"/>
        <pt x="266" y="700" on="1"/>
        <pt x="301" y="700" on="1"/>
        <pt x="301" y="600" on="1"/>
        <pt x="362" y="598" on="0"/>
        <pt x="430" y="586" on="1"/>
        <pt x="452" y="582" on="1"/>
        <pt x="440" y="531" on="1"/>
        <pt x="344" y="547" on="0"/>
      </contour>
      <contour>
        <pt x="429" y="161" on="1"/>
        <pt x="429" y="209" on="0"/>
        <pt x="363" y="260" on="0"/>
        <pt x="301" y="278" on="1"/>
        <pt x="301" y="51" on="1"/>
        <pt x="429" y="65" on="0"/>
      </contour>
      <contour>
        <pt x="210" y="537" on="0"/>
        <pt x="149" y="486" on="0"/>
        <pt x="149" y="405" on="0"/>
        <pt x="209" y="361" on="0"/>
        <pt x="266" y="344" on="1"/>
        <pt x="266" y="544" on="1"/>
      </contour>
    </TTGlyph>
    <TTGlyph name="dotaccent" xMin="94" yMin="600" xMax="164" yMax="678">
      <contour>
        <pt x="94" y="637" on="1"/>
        <pt x="94" y="656" on="0"/>
        <pt x="113" y="678" on="0"/>
        <pt x="129" y="678" on="1"/>
        <pt x="164" y="678" on="0"/>
        <pt x="164" y="637" on="1"/>
        <pt x="164" y="620" on="0"/>
        <pt x="144" y="600" on="0"/>
        <pt x="129" y="600" on="1"/>
        <pt x="94" y="600" on="0"/>
      </contour>
    </TTGlyph>
    <TTGlyph name="dotlessi" xMin="60" yMin="-1" xMax="266" yMax="500">
      <contour>
        <pt x="191" y="459" on="1"/>
        <pt x="191" y="40" on="1"/>
        <pt x="266" y="35" on="1"/>
        <pt x="266" y="34" on="0"/>
        <pt x="266" y="17" on="1"/>
        <pt x="265" y="0" on="1"/>
        <pt x="65" y="-1" on="1"/>
        <pt x="65" y="28" on="0"/>
        <pt x="66" y="33" on="1"/>
        <pt x="118" y="40" on="1"/>
        <pt x="126" y="41" on="0"/>
        <pt x="126" y="54" on="1"/>
        <pt x="126" y="444" on="1"/>
        <pt x="126" y="455" on="0"/>
        <pt x="120" y="455" on="1"/>
        <pt x="60" y="457" on="1"/>
        <pt x="61" y="491" on="1"/>
        <pt x="115" y="500" on="0"/>
        <pt x="171" y="500" on="0"/>
        <pt x="191" y="474" on="0"/>
      </contour>
    </TTGlyph>
    <TTGlyph name="e" xMin="45" yMin="-4" xMax="471" yMax="505">
      <contour>
        <pt x="108" y="224" on="1"/>
        <pt x="108" y="135" on="0"/>
        <pt x="210" y="54" on="0"/>
        <pt x="278" y="54" on="1"/>
        <pt x="322" y="54" on="0"/>
        <pt x="415" y="71" on="0"/>
        <pt x="430" y="78" on="1"/>
        <pt x="443" y="31" on="1"/>
        <pt x="420" y="16" on="0"/>
        <pt x="315" y="-4" on="0"/>
        <pt x="228" y="-4" on="0"/>
        <pt x="159" y="14" on="0"/>
        <pt x="87" y="60" on="0"/>
        <pt x="45" y="158" on="0"/>
        <pt x="45" y="229" on="1"/>
        <pt x="45" y="361" on="0"/>
        <pt x="113" y="431" on="1"/>
        <pt x="184" y="504" on="0"/>
        <pt x="372" y="504" on="0"/>
        <pt x="471" y="400" on="0"/>
        <pt x="471" y="306" on="1"/>
        <pt x="471" y="286" on="0"/>
        <pt x="468" y="263" on="1"/>
        <pt x="111" y="263" on="1"/>
        <pt x="108" y="242" on="0"/>
      </contour>
      <contour>
        <pt x="411" y="313" on="1"/>
        <pt x="411" y="375" on="0"/>
        <pt x="337" y="442" on="0"/>
        <pt x="288" y="442" on="1"/>
        <pt x="221" y="442" on="0"/>
        <pt x="133" y="361" on="0"/>
        <pt x="118" y="302" on="1"/>
        <pt x="411" y="302" on="1"/>
        <pt x="411" y="308" on="0"/>
      </contour>
    </TTGlyph>
    <TTGlyph name="eacute" xMin="45" yMin="-4" xMax="471" yMax="750">
      <contour>
        <pt x="108" y="224" on="1"/>
        <pt x="108" y="135" on="0"/>
        <pt x="210" y="54" on="0"/>
        <pt x="278" y="54" on="1"/>
        <pt x="322" y="54" on="0"/>
        <pt x="415" y="71" on="0"/>
        <pt x="430" y="78" on="1"/>
        <pt x="443" y="31" on="1"/>
        <pt x="420" y="16" on="0"/>
        <pt x="315" y="-4" on="0"/>
        <pt x="228" y="-4" on="0"/>
        <pt x="159" y="14" on="0"/>
        <pt x="87" y="60" on="0"/>
        <pt x="45" y="158" on="0"/>
        <pt x="45" y="229" on="1"/>
        <pt x="45" y="361" on="0"/>
        <pt x="113" y="431" on="1"/>
        <pt x="184" y="504" on="0"/>
        <pt x="372" y="504" on="0"/>
        <pt x="471" y="400" on="0"/>
        <pt x="471" y="306" on="1"/>
        <pt x="471" y="286" on="0"/>
        <pt x="468" y="263" on="1"/>
        <pt x="111" y="263" on="1"/>
        <pt x="108" y="242" on="0"/>
      </contour>
      <contour>
        <pt x="411" y="313" on="1"/>
        <pt x="411" y="375" on="0"/>
        <pt x="337" y="442" on="0"/>
        <pt x="288" y="442" on="1"/>
        <pt x="221" y="442" on="0"/>
        <pt x="133" y="361" on="0"/>
        <pt x="118" y="302" on="1"/>
        <pt x="411" y="302" on="1"/>
        <pt x="411" y="308" on="0"/>
      </contour>
      <contour>
        <pt x="387" y="750" on="1"/>
        <pt x="447" y="743" on="1"/>
        <pt x="328" y="595" on="1"/>
        <pt x="283" y="603" on="1"/>
      </contour>
    </TTGlyph>
    <TTGlyph name="ecircumflex" xMin="45" yMin="-4" xMax="471" yMax="761">
      <contour>
        <pt x="108" y="224" on="1"/>
        <pt x="108" y="135" on="0"/>
        <pt x="210" y="54" on="0"/>
        <pt x="278" y="54" on="1"/>
        <pt x="322" y="54" on="0"/>
        <pt x="415" y="71" on="0"/>
        <pt x="430" y="78" on="1"/>
        <pt x="443" y="31" on="1"/>
        <pt x="420" y="16" on="0"/>
        <pt x="315" y="-4" on="0"/>
        <pt x="228" y="-4" on="0"/>
        <pt x="159" y="14" on="0"/>
        <pt x="87" y="60" on="0"/>
        <pt x="45" y="158" on="0"/>
        <pt x="45" y="229" on="1"/>
        <pt x="45" y="361" on="0"/>
        <pt x="113" y="431" on="1"/>
        <pt x="184" y="504" on="0"/>
        <pt x="372" y="504" on="0"/>
        <pt x="471" y="400" on="0"/>
        <pt x="471" y="306" on="1"/>
        <pt x="471" y="286" on="0"/>
        <pt x="468" y="263" on="1"/>
        <pt x="111" y="263" on="1"/>
        <pt x="108" y="242" on="0"/>
      </contour>
      <contour>
        <pt x="411" y="313" on="1"/>
        <pt x="411" y="375" on="0"/>
        <pt x="337" y="442" on="0"/>
        <pt x="288" y="442" on="1"/>
        <pt x="221" y="442" on="0"/>
        <pt x="133" y="361" on="0"/>
        <pt x="118" y="302" on="1"/>
        <pt x="411" y="302" on="1"/>
        <pt x="411" y="308" on="0"/>
      </contour>
      <contour>
        <pt x="125" y="600" on="1"/>
        <pt x="292" y="761" on="1"/>
        <pt x="450" y="607" on="0"/>
        <pt x="458" y="600" on="1"/>
        <pt x="425" y="571" on="1"/>
        <pt x="291" y="704" on="1"/>
        <pt x="159" y="571" on="1"/>
      </contour>
    </TTGlyph>
    <TTGlyph name="edieresis" xMin="45" yMin="-4" xMax="471" yMax="650">
      <contour>
        <pt x="108" y="224" on="1"/>
        <pt x="108" y="135" on="0"/>
        <pt x="210" y="54" on="0"/>
        <pt x="278" y="54" on="1"/>
        <pt x="322" y="54" on="0"/>
        <pt x="415" y="71" on="0"/>
        <pt x="430" y="78" on="1"/>
        <pt x="443" y="31" on="1"/>
        <pt x="420" y="16" on="0"/>
        <pt x="315" y="-4" on="0"/>
        <pt x="228" y="-4" on="0"/>
        <pt x="159" y="14" on="0"/>
        <pt x="87" y="60" on="0"/>
        <pt x="45" y="158" on="0"/>
        <pt x="45" y="229" on="1"/>
        <pt x="45" y="361" on="0"/>
        <pt x="113" y="431" on="1"/>
        <pt x="184" y="504" on="0"/>
        <pt x="372" y="504" on="0"/>
        <pt x="471" y="400" on="0"/>
        <pt x="471" y="306" on="1"/>
        <pt x="471" y="286" on="0"/>
        <pt x="468" y="263" on="1"/>
        <pt x="111" y="263" on="1"/>
        <pt x="108" y="242" on="0"/>
      </contour>
      <contour>
        <pt x="411" y="313" on="1"/>
        <pt x="411" y="375" on="0"/>
        <pt x="337" y="442" on="0"/>
        <pt x="288" y="442" on="1"/>
        <pt x="221" y="442" on="0"/>
        <pt x="133" y="361" on="0"/>
        <pt x="118" y="302" on="1"/>
        <pt x="411" y="302" on="1"/>
        <pt x="411" y="308" on="0"/>
      </contour>
      <contour>
        <pt x="168" y="570" on="0"/>
        <pt x="147" y="593" on="0"/>
        <pt x="147" y="629" on="0"/>
        <pt x="168" y="650" on="0"/>
        <pt x="203" y="650" on="0"/>
        <pt x="224" y="629" on="0"/>
        <pt x="224" y="591" on="0"/>
        <pt x="202" y="570" on="0"/>
      </contour>
      <contour>
        <pt x="383" y="570" on="0"/>
        <pt x="363" y="593" on="0"/>
        <pt x="363" y="629" on="0"/>
        <pt x="383" y="650" on="0"/>
        <pt x="400" y="650" on="1"/>
        <pt x="440" y="650" on="0"/>
        <pt x="440" y="610" on="1"/>
        <pt x="440" y="591" on="0"/>
        <pt x="418" y="570" on="0"/>
      </contour>
    </TTGlyph>
    <TTGlyph name="egrave" xMin="45" yMin="-4" xMax="471" yMax="750">
      <contour>
        <pt x="108" y="224" on="1"/>
        <pt x="108" y="135" on="0"/>
        <pt x="210" y="54" on="0"/>
        <pt x="278" y="54" on="1"/>
        <pt x="322" y="54" on="0"/>
        <pt x="415" y="71" on="0"/>
        <pt x="430" y="78" on="1"/>
        <pt x="443" y="31" on="1"/>
        <pt x="420" y="16" on="0"/>
        <pt x="315" y="-4" on="0"/>
        <pt x="228" y="-4" on="0"/>
        <pt x="159" y="14" on="0"/>
        <pt x="87" y="60" on="0"/>
        <pt x="45" y="158" on="0"/>
        <pt x="45" y="229" on="1"/>
        <pt x="45" y="361" on="0"/>
        <pt x="113" y="431" on="1"/>
        <pt x="184" y="504" on="0"/>
        <pt x="372" y="504" on="0"/>
        <pt x="471" y="400" on="0"/>
        <pt x="471" y="306" on="1"/>
        <pt x="471" y="286" on="0"/>
        <pt x="468" y="263" on="1"/>
        <pt x="111" y="263" on="1"/>
        <pt x="108" y="242" on="0"/>
      </contour>
      <contour>
        <pt x="411" y="313" on="1"/>
        <pt x="411" y="375" on="0"/>
        <pt x="337" y="442" on="0"/>
        <pt x="288" y="442" on="1"/>
        <pt x="221" y="442" on="0"/>
        <pt x="133" y="361" on="0"/>
        <pt x="118" y="302" on="1"/>
        <pt x="411" y="302" on="1"/>
        <pt x="411" y="308" on="0"/>
      </contour>
      <contour>
        <pt x="312" y="603" on="1"/>
        <pt x="266" y="595" on="1"/>
        <pt x="148" y="743" on="1"/>
        <pt x="208" y="750" on="1"/>
      </contour>
    </TTGlyph>
    <TTGlyph name="eight" xMin="86" yMin="-4" xMax="532" yMax="666">
      <contour>
        <pt x="532" y="173" on="1"/>
        <pt x="532" y="132" on="0"/>
        <pt x="497" y="66" on="0"/>
        <pt x="452" y="25" on="0"/>
        <pt x="365" y="-4" on="0"/>
        <pt x="251" y="-4" on="0"/>
        <pt x="165" y="25" on="0"/>
        <pt x="120" y="66" on="0"/>
        <pt x="106" y="92" on="1"/>
        <pt x="86" y="133" on="0"/>
        <pt x="86" y="173" on="1"/>
        <pt x="86" y="248" on="0"/>
        <pt x="143" y="339" on="0"/>
        <pt x="199" y="382" on="1"/>
        <pt x="124" y="423" on="0"/>
        <pt x="124" y="518" on="1"/>
        <pt x="124" y="597" on="0"/>
        <pt x="228" y="666" on="0"/>
        <pt x="308" y="666" on="1"/>
        <pt x="494" y="666" on="0"/>
        <pt x="494" y="518" on="1"/>
        <pt x="494" y="428" on="0"/>
        <pt x="417" y="367" on="1"/>
        <pt x="471" y="344" on="0"/>
        <pt x="532" y="255" on="0"/>
      </contour>
      <contour>
        <pt x="151" y="173" on="1"/>
        <pt x="151" y="138" on="0"/>
        <pt x="181" y="88" on="0"/>
        <pt x="218" y="64" on="0"/>
        <pt x="244" y="58" on="1"/>
        <pt x="278" y="49" on="0"/>
        <pt x="359" y="49" on="0"/>
        <pt x="429" y="79" on="0"/>
        <pt x="443" y="102" on="1"/>
        <pt x="467" y="141" on="0"/>
        <pt x="467" y="211" on="0"/>
        <pt x="445" y="268" on="0"/>
        <pt x="416" y="301" on="0"/>
        <pt x="363" y="329" on="0"/>
        <pt x="323" y="341" on="0"/>
        <pt x="256" y="359" on="0"/>
        <pt x="239" y="365" on="1"/>
        <pt x="151" y="291" on="0"/>
      </contour>
      <contour>
        <pt x="417" y="471" on="1"/>
        <pt x="426" y="496" on="0"/>
        <pt x="426" y="535" on="0"/>
        <pt x="425" y="545" on="1"/>
        <pt x="407" y="613" on="0"/>
        <pt x="308" y="613" on="1"/>
        <pt x="270" y="613" on="0"/>
        <pt x="217" y="591" on="0"/>
        <pt x="206" y="574" on="1"/>
        <pt x="189" y="546" on="0"/>
        <pt x="189" y="494" on="0"/>
        <pt x="206" y="455" on="0"/>
        <pt x="226" y="432" on="0"/>
        <pt x="271" y="411" on="0"/>
        <pt x="298" y="403" on="0"/>
        <pt x="360" y="387" on="0"/>
        <pt x="373" y="383" on="1"/>
        <pt x="408" y="418" on="0"/>
      </contour>
    </TTGlyph>
    <TTGlyph name="ellipsis" xMin="29" yMin="-8" xMax="350" yMax="70">
      <contour>
        <pt x="29" y="29" on="1"/>
        <pt x="29" y="48" on="0"/>
        <pt x="48" y="70" on="0"/>
        <pt x="64" y="70" on="1"/>
        <pt x="99" y="70" on="0"/>
        <pt x="99" y="29" on="1"/>
        <pt x="99" y="12" on="0"/>
        <pt x="79" y="-8" on="0"/>
        <pt x="64" y="-8" on="1"/>
        <pt x="29" y="-8" on="0"/>
      </contour>
      <contour>
        <pt x="155" y="29" on="1"/>
        <pt x="155" y="48" on="0"/>
        <pt x="174" y="70" on="0"/>
        <pt x="190" y="70" on="1"/>
        <pt x="226" y="70" on="0"/>
        <pt x="226" y="29" on="1"/>
        <pt x="226" y="12" on="0"/>
        <pt x="205" y="-8" on="0"/>
        <pt x="190" y="-8" on="1"/>
        <pt x="155" y="-8" on="0"/>
      </contour>
      <contour>
        <pt x="279" y="29" on="1"/>
        <pt x="279" y="48" on="0"/>
        <pt x="298" y="70" on="0"/>
        <pt x="314" y="70" on="1"/>
        <pt x="350" y="70" on="0"/>
        <pt x="350" y="29" on="1"/>
        <pt x="350" y="12" on="0"/>
        <pt x="329" y="-8" on="0"/>
        <pt x="314" y="-8" on="1"/>
        <pt x="279" y="-8" on="0"/>
      </contour>
    </TTGlyph>
    <TTGlyph name="emdash" xMin="80" yMin="232" xMax="634" yMax="290">
      <contour>
        <pt x="80" y="290" on="1"/>
        <pt x="634" y="290" on="1"/>
        <pt x="634" y="232" on="1"/>
        <pt x="80" y="232" on="1"/>
      </contour>
    </TTGlyph>
    <TTGlyph name="endash" xMin="80" yMin="232" xMax="534" yMax="290">
      <contour>
        <pt x="80" y="290" on="1"/>
        <pt x="534" y="290" on="1"/>
        <pt x="534" y="232" on="1"/>
        <pt x="80" y="232" on="1"/>
      </contour>
    </TTGlyph>
    <TTGlyph name="equal" xMin="146" yMin="103" xMax="600" yMax="383">
      <contour>
        <pt x="146" y="383" on="1"/>
        <pt x="600" y="383" on="1"/>
        <pt x="600" y="325" on="1"/>
        <pt x="146" y="325" on="1"/>
      </contour>
      <contour>
        <pt x="146" y="161" on="1"/>
        <pt x="600" y="161" on="1"/>
        <pt x="600" y="103" on="1"/>
        <pt x="146" y="103" on="1"/>
      </contour>
    </TTGlyph>
    <TTGlyph name="eth" xMin="75" yMin="-4" xMax="550" yMax="781">
      <contour>
        <pt x="550" y="270" on="1"/>
        <pt x="550" y="136" on="0"/>
        <pt x="414" y="-4" on="0"/>
        <pt x="204" y="-4" on="0"/>
        <pt x="75" y="116" on="0"/>
        <pt x="75" y="363" on="0"/>
        <pt x="212" y="504" on="0"/>
        <pt x="314" y="504" on="1"/>
        <pt x="379" y="504" on="0"/>
        <pt x="423" y="471" on="1"/>
        <pt x="360" y="578" on="0"/>
        <pt x="247" y="645" on="1"/>
        <pt x="173" y="549" on="1"/>
        <pt x="148" y="569" on="1"/>
        <pt x="219" y="661" on="1"/>
        <pt x="168" y="687" on="0"/>
        <pt x="115" y="704" on="1"/>
        <pt x="131" y="750" on="1"/>
        <pt x="190" y="726" on="0"/>
        <pt x="246" y="697" on="1"/>
        <pt x="311" y="781" on="1"/>
        <pt x="336" y="761" on="1"/>
        <pt x="275" y="681" on="1"/>
        <pt x="550" y="525" on="0"/>
      </contour>
      <contour>
        <pt x="316" y="446" on="1"/>
        <pt x="240" y="446" on="0"/>
        <pt x="140" y="338" on="0"/>
        <pt x="140" y="153" on="0"/>
        <pt x="235" y="54" on="0"/>
        <pt x="386" y="54" on="0"/>
        <pt x="482" y="158" on="0"/>
        <pt x="485" y="256" on="1"/>
        <pt x="485" y="307" on="0"/>
        <pt x="470" y="362" on="1"/>
        <pt x="467" y="359" on="1"/>
        <pt x="408" y="446" on="0"/>
      </contour>
    </TTGlyph>
    <TTGlyph name="exclam" xMin="106" yMin="0" xMax="176" yMax="700">
      <contour>
        <pt x="172" y="129" on="1"/>
        <pt x="112" y="129" on="1"/>
        <pt x="112" y="695" on="1"/>
        <pt x="172" y="700" on="1"/>
      </contour>
      <contour>
        <pt x="106" y="21" on="0"/>
        <pt x="106" y="49" on="0"/>
        <pt x="127" y="70" on="0"/>
        <pt x="155" y="70" on="0"/>
        <pt x="176" y="49" on="0"/>
        <pt x="176" y="21" on="0"/>
        <pt x="155" y="0" on="0"/>
        <pt x="127" y="0" on="0"/>
      </contour>
    </TTGlyph>
    <TTGlyph name="exclamdown" xMin="104" yMin="-200" xMax="174" yMax="500">
      <contour>
        <pt x="170" y="371" on="1"/>
        <pt x="170" y="-200" on="1"/>
        <pt x="110" y="-195" on="1"/>
        <pt x="110" y="371" on="1"/>
      </contour>
      <contour>
        <pt x="104" y="451" on="0"/>
        <pt x="104" y="479" on="0"/>
        <pt x="125" y="500" on="0"/>
        <pt x="153" y="500" on="0"/>
        <pt x="174" y="479" on="0"/>
        <pt x="174" y="451" on="0"/>
        <pt x="153" y="430" on="0"/>
        <pt x="125" y="430" on="0"/>
      </contour>
    </TTGlyph>
    <TTGlyph name="f" xMin="40" yMin="0" xMax="320" yMax="751">
      <contour>
        <pt x="102" y="690" on="0"/>
        <pt x="192" y="751" on="0"/>
        <pt x="292" y="751" on="0"/>
        <pt x="320" y="740" on="1"/>
        <pt x="317" y="693" on="1"/>
        <pt x="293" y="696" on="0"/>
        <pt x="258" y="696" on="0"/>
        <pt x="225" y="689" on="0"/>
        <pt x="207" y="680" on="1"/>
        <pt x="167" y="658" on="0"/>
        <pt x="167" y="598" on="1"/>
        <pt x="167" y="500" on="1"/>
        <pt x="288" y="500" on="1"/>
        <pt x="288" y="442" on="1"/>
        <pt x="167" y="442" on="1"/>
        <pt x="167" y="50" on="1"/>
        <pt x="252" y="50" on="1"/>
        <pt x="252" y="0" on="1"/>
        <pt x="40" y="0" on="1"/>
        <pt x="40" y="50" on="1"/>
        <pt x="102" y="50" on="1"/>
        <pt x="102" y="442" on="1"/>
        <pt x="51" y="442" on="1"/>
        <pt x="59" y="490" on="1"/>
        <pt x="102" y="499" on="1"/>
        <pt x="102" y="621" on="1"/>
      </contour>
    </TTGlyph>
    <TTGlyph name="five" xMin="27" yMin="-3" xMax="428" yMax="662">
      <contour>
        <pt x="421" y="201" on="1"/>
        <pt x="421" y="97" on="0"/>
        <pt x="279" y="-3" on="0"/>
        <pt x="152" y="-3" on="1"/>
        <pt x="86" y="-3" on="0"/>
        <pt x="27" y="13" on="1"/>
        <pt x="43" y="65" on="1"/>
        <pt x="83" y="52" on="0"/>
        <pt x="146" y="52" on="1"/>
        <pt x="246" y="52" on="0"/>
        <pt x="353" y="125" on="0"/>
        <pt x="353" y="198" on="1"/>
        <pt x="353" y="262" on="0"/>
        <pt x="314" y="287" on="1"/>
        <pt x="294" y="300" on="0"/>
        <pt x="257" y="316" on="0"/>
        <pt x="224" y="320" on="1"/>
        <pt x="183" y="324" on="0"/>
        <pt x="120" y="324" on="1"/>
        <pt x="109" y="324" on="1"/>
        <pt x="129" y="662" on="1"/>
        <pt x="415" y="662" on="1"/>
        <pt x="428" y="518" on="1"/>
        <pt x="378" y="510" on="1"/>
        <pt x="366" y="607" on="1"/>
        <pt x="192" y="607" on="1"/>
        <pt x="178" y="369" on="1"/>
        <pt x="316" y="369" on="0"/>
        <pt x="370" y="326" on="1"/>
        <pt x="391" y="308" on="0"/>
        <pt x="421" y="245" on="0"/>
      </contour>
    </TTGlyph>
    <TTGlyph name="four" xMin="85" yMin="-1" xMax="538" yMax="662">
      <contour>
        <pt x="402" y="140" on="1"/>
        <pt x="102" y="140" on="1"/>
        <pt x="85" y="195" on="1"/>
        <pt x="402" y="662" on="1"/>
        <pt x="470" y="662" on="1"/>
        <pt x="470" y="195" on="1"/>
        <pt x="516" y="195" on="1"/>
        <pt x="517" y="140" on="1"/>
        <pt x="470" y="140" on="1"/>
        <pt x="470" y="49" on="1"/>
        <pt x="538" y="45" on="1"/>
        <pt x="538" y="44" on="0"/>
        <pt x="538" y="22" on="1"/>
        <pt x="537" y="0" on="1"/>
        <pt x="337" y="-1" on="1"/>
        <pt x="337" y="38" on="0"/>
        <pt x="338" y="43" on="1"/>
        <pt x="390" y="50" on="1"/>
        <pt x="400" y="51" on="0"/>
        <pt x="402" y="63" on="1"/>
      </contour>
      <contour>
        <pt x="402" y="195" on="1"/>
        <pt x="402" y="562" on="1"/>
        <pt x="152" y="195" on="1"/>
      </contour>
    </TTGlyph>
    <TTGlyph name="fraction" xMin="112" yMin="-200" xMax="490" yMax="749">
      <contour>
        <pt x="430" y="749" on="1"/>
        <pt x="490" y="749" on="1"/>
        <pt x="172" y="-200" on="1"/>
        <pt x="112" y="-200" on="1"/>
      </contour>
    </TTGlyph>
    <TTGlyph name="g" xMin="40" yMin="-250" xMax="521" yMax="504">
      <contour>
        <pt x="41" y="-104" on="1"/>
        <pt x="41" y="-14" on="0"/>
        <pt x="148" y="54" on="1"/>
        <pt x="106" y="84" on="0"/>
        <pt x="106" y="167" on="0"/>
        <pt x="142" y="193" on="1"/>
        <pt x="68" y="229" on="0"/>
        <pt x="68" y="339" on="1"/>
        <pt x="68" y="416" on="0"/>
        <pt x="184" y="504" on="0"/>
        <pt x="274" y="504" on="1"/>
        <pt x="303" y="504" on="0"/>
        <pt x="333" y="499" on="1"/>
        <pt x="521" y="504" on="1"/>
        <pt x="519" y="466" on="1"/>
        <pt x="410" y="466" on="1"/>
        <pt x="465" y="425" on="0"/>
        <pt x="465" y="261" on="0"/>
        <pt x="355" y="171" on="0"/>
        <pt x="268" y="171" on="1"/>
        <pt x="212" y="171" on="0"/>
        <pt x="175" y="181" on="1"/>
        <pt x="156" y="163" on="0"/>
        <pt x="156" y="107" on="0"/>
        <pt x="225" y="76" on="0"/>
        <pt x="334" y="61" on="0"/>
        <pt x="384" y="50" on="0"/>
        <pt x="450" y="26" on="0"/>
        <pt x="470" y="10" on="1"/>
        <pt x="517" y="-29" on="0"/>
        <pt x="517" y="-94" on="1"/>
        <pt x="517" y="-139" on="0"/>
        <pt x="475" y="-203" on="0"/>
        <pt x="438" y="-220" on="1"/>
        <pt x="370" y="-250" on="0"/>
        <pt x="276" y="-250" on="1"/>
        <pt x="151" y="-250" on="0"/>
        <pt x="41" y="-164" on="0"/>
      </contour>
      <contour>
        <pt x="106" y="-97" on="1"/>
        <pt x="106" y="-138" on="0"/>
        <pt x="186" y="-192" on="0"/>
        <pt x="268" y="-192" on="1"/>
        <pt x="452" y="-192" on="0"/>
        <pt x="452" y="-94" on="1"/>
        <pt x="452" y="-45" on="0"/>
        <pt x="408" y="-24" on="1"/>
        <pt x="370" y="-5" on="0"/>
        <pt x="324" y="4" on="1"/>
        <pt x="226" y="18" on="0"/>
        <pt x="183" y="35" on="1"/>
        <pt x="106" y="-28" on="0"/>
      </contour>
      <contour>
        <pt x="209" y="451" on="0"/>
        <pt x="133" y="394" on="0"/>
        <pt x="133" y="281" on="0"/>
        <pt x="192" y="224" on="0"/>
        <pt x="322" y="224" on="0"/>
        <pt x="397" y="289" on="0"/>
        <pt x="397" y="345" on="1"/>
        <pt x="397" y="451" on="0"/>
        <pt x="271" y="451" on="1"/>
      </contour>
    </TTGlyph>
    <TTGlyph name="germandbls" xMin="34" yMin="-4" xMax="583" yMax="750">
      <contour>
        <pt x="34" y="-1" on="1"/>
        <pt x="35" y="33" on="1"/>
        <pt x="87" y="40" on="1"/>
        <pt x="94" y="41" on="0"/>
        <pt x="96" y="50" on="1"/>
        <pt x="96" y="447" on="1"/>
        <pt x="48" y="447" on="1"/>
        <pt x="54" y="500" on="1"/>
        <pt x="96" y="500" on="1"/>
        <pt x="96" y="614" on="1"/>
        <pt x="96" y="682" on="0"/>
        <pt x="179" y="750" on="0"/>
        <pt x="315" y="750" on="0"/>
        <pt x="366" y="708" on="1"/>
        <pt x="391" y="687" on="0"/>
        <pt x="423" y="619" on="0"/>
        <pt x="423" y="583" on="1"/>
        <pt x="423" y="525" on="0"/>
        <pt x="344" y="452" on="0"/>
        <pt x="312" y="406" on="0"/>
        <pt x="312" y="341" on="0"/>
        <pt x="368" y="298" on="0"/>
        <pt x="447" y="276" on="0"/>
        <pt x="527" y="250" on="0"/>
        <pt x="583" y="189" on="0"/>
        <pt x="583" y="140" on="1"/>
        <pt x="583" y="72" on="0"/>
        <pt x="484" y="-4" on="0"/>
        <pt x="393" y="-4" on="1"/>
        <pt x="348" y="-4" on="0"/>
        <pt x="258" y="16" on="0"/>
        <pt x="236" y="32" on="1"/>
        <pt x="259" y="85" on="1"/>
        <pt x="272" y="74" on="0"/>
        <pt x="352" y="53" on="0"/>
        <pt x="393" y="53" on="0"/>
        <pt x="396" y="53" on="1"/>
        <pt x="450" y="54" on="0"/>
        <pt x="518" y="96" on="0"/>
        <pt x="518" y="173" on="0"/>
        <pt x="462" y="214" on="0"/>
        <pt x="383" y="236" on="0"/>
        <pt x="303" y="262" on="0"/>
        <pt x="247" y="322" on="0"/>
        <pt x="247" y="402" on="0"/>
        <pt x="274" y="449" on="0"/>
        <pt x="326" y="506" on="0"/>
        <pt x="340" y="529" on="1"/>
        <pt x="361" y="554" on="0"/>
        <pt x="361" y="613" on="0"/>
        <pt x="338" y="641" on="1"/>
        <pt x="296" y="694" on="0"/>
        <pt x="243" y="694" on="1"/>
        <pt x="208" y="694" on="0"/>
        <pt x="161" y="643" on="0"/>
        <pt x="161" y="597" on="1"/>
        <pt x="161" y="0" on="1"/>
        <pt x="155" y="0" on="1"/>
      </contour>
    </TTGlyph>
    <TTGlyph name="grave" xMin="71" yMin="595" xMax="235" yMax="750">
      <contour>
        <pt x="235" y="603" on="1"/>
        <pt x="189" y="595" on="1"/>
        <pt x="71" y="743" on="1"/>
        <pt x="131" y="750" on="1"/>
      </contour>
    </TTGlyph>
    <TTGlyph name="greater" xMin="100" yMin="100" xMax="455" yMax="500">
      <contour>
        <pt x="103" y="100" on="1"/>
        <pt x="100" y="153" on="1"/>
        <pt x="282" y="251" on="0"/>
        <pt x="373" y="299" on="1"/>
        <pt x="100" y="448" on="1"/>
        <pt x="103" y="500" on="1"/>
        <pt x="455" y="300" on="1"/>
      </contour>
    </TTGlyph>
    <TTGlyph name="guillemotleft" xMin="75" yMin="88" xMax="600" yMax="430">
      <contour>
        <pt x="344" y="136" on="1"/>
        <pt x="344" y="88" on="1"/>
        <pt x="75" y="259" on="1"/>
        <pt x="344" y="430" on="1"/>
        <pt x="344" y="382" on="1"/>
        <pt x="140" y="259" on="1"/>
      </contour>
      <contour>
        <pt x="600" y="136" on="1"/>
        <pt x="600" y="88" on="1"/>
        <pt x="331" y="259" on="1"/>
        <pt x="600" y="430" on="1"/>
        <pt x="600" y="382" on="1"/>
        <pt x="396" y="259" on="1"/>
      </contour>
    </TTGlyph>
    <TTGlyph name="guillemotright" xMin="75" yMin="88" xMax="600" yMax="430">
      <contour>
        <pt x="331" y="88" on="1"/>
        <pt x="331" y="136" on="1"/>
        <pt x="535" y="259" on="1"/>
        <pt x="331" y="382" on="1"/>
        <pt x="331" y="430" on="1"/>
        <pt x="600" y="259" on="1"/>
      </contour>
      <contour>
        <pt x="75" y="88" on="1"/>
        <pt x="75" y="136" on="1"/>
        <pt x="279" y="259" on="1"/>
        <pt x="75" y="382" on="1"/>
        <pt x="75" y="430" on="1"/>
        <pt x="344" y="259" on="1"/>
      </contour>
    </TTGlyph>
    <TTGlyph name="guilsinglleft" xMin="75" yMin="88" xMax="344" yMax="430">
      <contour>
        <pt x="344" y="136" on="1"/>
        <pt x="344" y="88" on="1"/>
        <pt x="75" y="259" on="1"/>
        <pt x="344" y="430" on="1"/>
        <pt x="344" y="382" on="1"/>
        <pt x="140" y="259" on="1"/>
      </contour>
    </TTGlyph>
    <TTGlyph name="guilsinglright" xMin="75" yMin="88" xMax="344" yMax="430">
      <contour>
        <pt x="75" y="88" on="1"/>
        <pt x="75" y="136" on="1"/>
        <pt x="279" y="259" on="1"/>
        <pt x="75" y="382" on="1"/>
        <pt x="75" y="430" on="1"/>
        <pt x="344" y="259" on="1"/>
      </contour>
    </TTGlyph>
    <TTGlyph name="h" xMin="59" yMin="0" xMax="589" yMax="750">
      <contour>
        <pt x="387" y="0" on="1"/>
        <pt x="387" y="50" on="1"/>
        <pt x="448" y="50" on="1"/>
        <pt x="448" y="342" on="1"/>
        <pt x="448" y="377" on="0"/>
        <pt x="419" y="421" on="0"/>
        <pt x="396" y="428" on="1"/>
        <pt x="358" y="441" on="0"/>
        <pt x="334" y="439" on="1"/>
        <pt x="269" y="437" on="0"/>
        <pt x="191" y="393" on="1"/>
        <pt x="191" y="50" on="1"/>
        <pt x="267" y="50" on="1"/>
        <pt x="267" y="0" on="1"/>
        <pt x="65" y="0" on="1"/>
        <pt x="65" y="50" on="1"/>
        <pt x="126" y="50" on="1"/>
        <pt x="126" y="700" on="1"/>
        <pt x="59" y="700" on="1"/>
        <pt x="59" y="750" on="1"/>
        <pt x="191" y="750" on="1"/>
        <pt x="191" y="438" on="1"/>
        <pt x="322" y="528" on="0"/>
        <pt x="428" y="494" on="1"/>
        <pt x="452" y="487" on="0"/>
        <pt x="487" y="460" on="0"/>
        <pt x="513" y="406" on="0"/>
        <pt x="513" y="368" on="1"/>
        <pt x="513" y="50" on="1"/>
        <pt x="589" y="50" on="1"/>
        <pt x="589" y="0" on="1"/>
      </contour>
    </TTGlyph>
    <TTGlyph name="hyphen" xMin="146" yMin="232" xMax="448" yMax="290">
      <contour>
        <pt x="146" y="290" on="1"/>
        <pt x="448" y="290" on="1"/>
        <pt x="448" y="232" on="1"/>
        <pt x="146" y="232" on="1"/>
      </contour>
    </TTGlyph>
    <TTGlyph name="i" xMin="59" yMin="0" xMax="266" yMax="725">
      <contour>
        <pt x="59" y="450" on="1"/>
        <pt x="59" y="500" on="1"/>
        <pt x="191" y="500" on="1"/>
        <pt x="191" y="50" on="1"/>
        <pt x="266" y="50" on="1"/>
        <pt x="266" y="0" on="1"/>
        <pt x="64" y="0" on="1"/>
        <pt x="64" y="50" on="1"/>
        <pt x="126" y="50" on="1"/>
        <pt x="126" y="450" on="1"/>
      </contour>
      <contour>
        <pt x="137" y="634" on="0"/>
        <pt x="115" y="659" on="0"/>
        <pt x="115" y="700" on="0"/>
        <pt x="138" y="725" on="0"/>
        <pt x="178" y="725" on="0"/>
        <pt x="203" y="700" on="0"/>
        <pt x="203" y="657" on="0"/>
        <pt x="177" y="634" on="0"/>
      </contour>
    </TTGlyph>
    <TTGlyph name="iacute" xMin="60" yMin="-1" xMax="275" yMax="750">
      <contour>
        <pt x="191" y="459" on="1"/>
        <pt x="191" y="40" on="1"/>
        <pt x="266" y="35" on="1"/>
        <pt x="266" y="34" on="0"/>
        <pt x="266" y="17" on="1"/>
        <pt x="265" y="0" on="1"/>
        <pt x="65" y="-1" on="1"/>
        <pt x="65" y="28" on="0"/>
        <pt x="66" y="33" on="1"/>
        <pt x="118" y="40" on="1"/>
        <pt x="126" y="41" on="0"/>
        <pt x="126" y="54" on="1"/>
        <pt x="126" y="444" on="1"/>
        <pt x="126" y="455" on="0"/>
        <pt x="120" y="455" on="1"/>
        <pt x="60" y="457" on="1"/>
        <pt x="61" y="491" on="1"/>
        <pt x="115" y="500" on="0"/>
        <pt x="171" y="500" on="0"/>
        <pt x="191" y="474" on="0"/>
      </contour>
      <contour>
        <pt x="215" y="750" on="1"/>
        <pt x="275" y="743" on="1"/>
        <pt x="156" y="595" on="1"/>
        <pt x="111" y="603" on="1"/>
      </contour>
    </TTGlyph>
    <TTGlyph name="icircumflex" xMin="60" yMin="-1" xMax="393" yMax="761">
      <contour>
        <pt x="261" y="459" on="1"/>
        <pt x="261" y="40" on="1"/>
        <pt x="336" y="35" on="1"/>
        <pt x="336" y="34" on="0"/>
        <pt x="336" y="17" on="1"/>
        <pt x="335" y="0" on="1"/>
        <pt x="135" y="-1" on="1"/>
        <pt x="135" y="28" on="0"/>
        <pt x="136" y="33" on="1"/>
        <pt x="188" y="40" on="1"/>
        <pt x="196" y="41" on="0"/>
        <pt x="196" y="54" on="1"/>
        <pt x="196" y="444" on="1"/>
        <pt x="196" y="455" on="0"/>
        <pt x="190" y="455" on="1"/>
        <pt x="130" y="457" on="1"/>
        <pt x="131" y="491" on="1"/>
        <pt x="185" y="500" on="0"/>
        <pt x="241" y="500" on="0"/>
        <pt x="261" y="474" on="0"/>
      </contour>
      <contour>
        <pt x="60" y="600" on="1"/>
        <pt x="227" y="761" on="1"/>
        <pt x="385" y="607" on="0"/>
        <pt x="393" y="600" on="1"/>
        <pt x="360" y="571" on="1"/>
        <pt x="226" y="704" on="1"/>
        <pt x="94" y="571" on="1"/>
      </contour>
    </TTGlyph>
    <TTGlyph name="idieresis" xMin="60" yMin="-1" xMax="353" yMax="650">
      <contour>
        <pt x="241" y="459" on="1"/>
        <pt x="241" y="40" on="1"/>
        <pt x="316" y="35" on="1"/>
        <pt x="316" y="34" on="0"/>
        <pt x="316" y="17" on="1"/>
        <pt x="315" y="0" on="1"/>
        <pt x="115" y="-1" on="1"/>
        <pt x="115" y="28" on="0"/>
        <pt x="116" y="33" on="1"/>
        <pt x="168" y="40" on="1"/>
        <pt x="176" y="41" on="0"/>
        <pt x="176" y="54" on="1"/>
        <pt x="176" y="444" on="1"/>
        <pt x="176" y="455" on="0"/>
        <pt x="170" y="455" on="1"/>
        <pt x="110" y="457" on="1"/>
        <pt x="111" y="491" on="1"/>
        <pt x="165" y="500" on="0"/>
        <pt x="221" y="500" on="0"/>
        <pt x="241" y="474" on="0"/>
      </contour>
      <contour>
        <pt x="81" y="570" on="0"/>
        <pt x="60" y="593" on="0"/>
        <pt x="60" y="629" on="0"/>
        <pt x="81" y="650" on="0"/>
        <pt x="116" y="650" on="0"/>
        <pt x="137" y="629" on="0"/>
        <pt x="137" y="591" on="0"/>
        <pt x="115" y="570" on="0"/>
      </contour>
      <contour>
        <pt x="296" y="570" on="0"/>
        <pt x="276" y="593" on="0"/>
        <pt x="276" y="629" on="0"/>
        <pt x="296" y="650" on="0"/>
        <pt x="313" y="650" on="1"/>
        <pt x="353" y="650" on="0"/>
        <pt x="353" y="610" on="1"/>
        <pt x="353" y="591" on="0"/>
        <pt x="331" y="570" on="0"/>
      </contour>
    </TTGlyph>
    <TTGlyph name="igrave" xMin="20" yMin="-1" xMax="266" yMax="750">
      <contour>
        <pt x="191" y="459" on="1"/>
        <pt x="191" y="40" on="1"/>
        <pt x="266" y="35" on="1"/>
        <pt x="266" y="34" on="0"/>
        <pt x="266" y="17" on="1"/>
        <pt x="265" y="0" on="1"/>
        <pt x="65" y="-1" on="1"/>
        <pt x="65" y="28" on="0"/>
        <pt x="66" y="33" on="1"/>
        <pt x="118" y="40" on="1"/>
        <pt x="126" y="41" on="0"/>
        <pt x="126" y="54" on="1"/>
        <pt x="126" y="444" on="1"/>
        <pt x="126" y="455" on="0"/>
        <pt x="120" y="455" on="1"/>
        <pt x="60" y="457" on="1"/>
        <pt x="61" y="491" on="1"/>
        <pt x="115" y="500" on="0"/>
        <pt x="171" y="500" on="0"/>
        <pt x="191" y="474" on="0"/>
      </contour>
      <contour>
        <pt x="184" y="603" on="1"/>
        <pt x="138" y="595" on="1"/>
        <pt x="20" y="743" on="1"/>
        <pt x="80" y="750" on="1"/>
      </contour>
    </TTGlyph>
    <TTGlyph name="j" xMin="50" yMin="-248" xMax="235" yMax="725">
      <contour>
        <pt x="159" y="450" on="1"/>
        <pt x="92" y="450" on="1"/>
        <pt x="92" y="500" on="1"/>
        <pt x="224" y="500" on="1"/>
        <pt x="224" y="0" on="1"/>
        <pt x="224" y="-3" on="0"/>
        <pt x="224" y="-5" on="1"/>
        <pt x="224" y="-45" on="0"/>
        <pt x="195" y="-124" on="0"/>
        <pt x="174" y="-152" on="1"/>
        <pt x="131" y="-210" on="0"/>
        <pt x="95" y="-237" on="1"/>
        <pt x="80" y="-248" on="1"/>
        <pt x="50" y="-209" on="1"/>
        <pt x="160" y="-104" on="0"/>
        <pt x="159" y="0" on="1"/>
      </contour>
      <contour>
        <pt x="170" y="634" on="0"/>
        <pt x="147" y="659" on="0"/>
        <pt x="147" y="700" on="0"/>
        <pt x="171" y="725" on="0"/>
        <pt x="211" y="725" on="0"/>
        <pt x="235" y="700" on="0"/>
        <pt x="235" y="657" on="0"/>
        <pt x="210" y="634" on="0"/>
      </contour>
    </TTGlyph>
    <TTGlyph name="k" xMin="60" yMin="0" xMax="542" yMax="750">
      <contour>
        <pt x="309" y="450" on="1"/>
        <pt x="309" y="500" on="1"/>
        <pt x="519" y="500" on="1"/>
        <pt x="519" y="450" on="1"/>
        <pt x="425" y="450" on="1"/>
        <pt x="257" y="266" on="1"/>
        <pt x="447" y="50" on="1"/>
        <pt x="542" y="50" on="1"/>
        <pt x="542" y="0" on="1"/>
        <pt x="415" y="0" on="1"/>
        <pt x="192" y="266" on="1"/>
        <pt x="192" y="50" on="1"/>
        <pt x="267" y="50" on="1"/>
        <pt x="267" y="0" on="1"/>
        <pt x="65" y="0" on="1"/>
        <pt x="65" y="50" on="1"/>
        <pt x="127" y="50" on="1"/>
        <pt x="127" y="700" on="1"/>
        <pt x="60" y="700" on="1"/>
        <pt x="60" y="750" on="1"/>
        <pt x="192" y="750" on="1"/>
        <pt x="192" y="266" on="1"/>
        <pt x="350" y="450" on="1"/>
      </contour>
    </TTGlyph>
    <TTGlyph name="l" xMin="60" yMin="0" xMax="267" yMax="750">
      <contour>
        <pt x="60" y="700" on="1"/>
        <pt x="60" y="750" on="1"/>
        <pt x="192" y="750" on="1"/>
        <pt x="192" y="50" on="1"/>
        <pt x="267" y="50" on="1"/>
        <pt x="267" y="0" on="1"/>
        <pt x="65" y="0" on="1"/>
        <pt x="65" y="50" on="1"/>
        <pt x="127" y="50" on="1"/>
        <pt x="127" y="700" on="1"/>
      </contour>
    </TTGlyph>
    <TTGlyph name="less" xMin="100" yMin="100" xMax="455" yMax="500">
      <contour>
        <pt x="100" y="300" on="1"/>
        <pt x="452" y="500" on="1"/>
        <pt x="455" y="448" on="1"/>
        <pt x="181" y="299" on="1"/>
        <pt x="273" y="251" on="0"/>
        <pt x="455" y="153" on="1"/>
        <pt x="452" y="100" on="1"/>
      </contour>
    </TTGlyph>
    <TTGlyph name="logicalnot" xMin="100" yMin="152" xMax="522" yMax="290">
      <contour>
        <pt x="100" y="290" on="1"/>
        <pt x="522" y="290" on="1"/>
        <pt x="522" y="152" on="1"/>
        <pt x="462" y="152" on="1"/>
        <pt x="462" y="232" on="1"/>
        <pt x="100" y="232" on="1"/>
      </contour>
    </TTGlyph>
    <TTGlyph name="lozenge" xMin="248" yMin="100" xMax="482" yMax="700">
      <contour>
        <pt x="248" y="400" on="1"/>
        <pt x="359" y="700" on="1"/>
        <pt x="372" y="700" on="1"/>
        <pt x="482" y="400" on="1"/>
        <pt x="372" y="100" on="1"/>
        <pt x="359" y="100" on="1"/>
      </contour>
      <contour>
        <pt x="468" y="400" on="1"/>
        <pt x="364" y="685" on="1"/>
        <pt x="259" y="400" on="1"/>
        <pt x="364" y="114" on="1"/>
      </contour>
    </TTGlyph>
    <TTGlyph name="m" xMin="50" yMin="0" xMax="848" yMax="503">
      <contour>
        <pt x="355" y="0" on="1"/>
        <pt x="355" y="50" on="1"/>
        <pt x="417" y="50" on="1"/>
        <pt x="417" y="344" on="1"/>
        <pt x="417" y="441" on="0"/>
        <pt x="309" y="441" on="1"/>
        <pt x="252" y="440" on="0"/>
        <pt x="181" y="403" on="1"/>
        <pt x="181" y="50" on="1"/>
        <pt x="257" y="50" on="1"/>
        <pt x="257" y="0" on="1"/>
        <pt x="55" y="0" on="1"/>
        <pt x="55" y="50" on="1"/>
        <pt x="116" y="50" on="1"/>
        <pt x="116" y="450" on="1"/>
        <pt x="50" y="450" on="1"/>
        <pt x="50" y="500" on="1"/>
        <pt x="182" y="500" on="1"/>
        <pt x="182" y="450" on="1"/>
        <pt x="181" y="450" on="1"/>
        <pt x="181" y="447" on="1"/>
        <pt x="264" y="499" on="0"/>
        <pt x="333" y="503" on="1"/>
        <pt x="428" y="503" on="0"/>
        <pt x="462" y="449" on="1"/>
        <pt x="549" y="499" on="0"/>
        <pt x="626" y="503" on="1"/>
        <pt x="696" y="503" on="0"/>
        <pt x="732" y="474" on="1"/>
        <pt x="749" y="461" on="0"/>
        <pt x="774" y="406" on="0"/>
        <pt x="774" y="368" on="1"/>
        <pt x="774" y="50" on="1"/>
        <pt x="848" y="50" on="1"/>
        <pt x="848" y="0" on="1"/>
        <pt x="646" y="0" on="1"/>
        <pt x="646" y="50" on="1"/>
        <pt x="709" y="50" on="1"/>
        <pt x="709" y="343" on="1"/>
        <pt x="709" y="441" on="0"/>
        <pt x="602" y="441" on="1"/>
        <pt x="544" y="440" on="0"/>
        <pt x="479" y="405" on="1"/>
        <pt x="482" y="388" on="0"/>
        <pt x="482" y="368" on="1"/>
        <pt x="482" y="50" on="1"/>
        <pt x="557" y="50" on="1"/>
        <pt x="557" y="0" on="1"/>
      </contour>
    </TTGlyph>
    <TTGlyph name="macron" xMin="100" yMin="590" xMax="400" yMax="648">
      <contour>
        <pt x="100" y="648" on="1"/>
        <pt x="400" y="648" on="1"/>
        <pt x="400" y="590" on="1"/>
        <pt x="100" y="590" on="1"/>
      </contour>
    </TTGlyph>
    <TTGlyph name="mu" xMin="60" yMin="-250" xMax="590" yMax="500">
      <contour>
        <pt x="195" y="-250" on="1"/>
        <pt x="130" y="-250" on="1"/>
        <pt x="130" y="250" on="1"/>
        <pt x="195" y="250" on="1"/>
      </contour>
      <contour>
        <pt x="448" y="58" on="1"/>
        <pt x="357" y="-3" on="0"/>
        <pt x="276" y="-3" on="1"/>
        <pt x="242" y="-3" on="0"/>
        <pt x="196" y="14" on="1"/>
        <pt x="166" y="25" on="0"/>
        <pt x="130" y="86" on="0"/>
        <pt x="130" y="132" on="1"/>
        <pt x="130" y="450" on="1"/>
        <pt x="60" y="450" on="1"/>
        <pt x="60" y="500" on="1"/>
        <pt x="195" y="500" on="1"/>
        <pt x="195" y="152" on="1"/>
        <pt x="195" y="117" on="0"/>
        <pt x="225" y="72" on="0"/>
        <pt x="248" y="65" on="1"/>
        <pt x="286" y="53" on="0"/>
        <pt x="309" y="55" on="1"/>
        <pt x="369" y="56" on="0"/>
        <pt x="448" y="98" on="1"/>
        <pt x="448" y="450" on="1"/>
        <pt x="378" y="450" on="1"/>
        <pt x="378" y="500" on="1"/>
        <pt x="513" y="500" on="1"/>
        <pt x="513" y="50" on="1"/>
        <pt x="590" y="50" on="1"/>
        <pt x="590" y="0" on="1"/>
        <pt x="458" y="0" on="1"/>
      </contour>
    </TTGlyph>
    <TTGlyph name="multiply" xMin="115" yMin="-21" xMax="517" yMax="381">
      <contour>
        <pt x="476" y="-21" on="1"/>
        <pt x="316" y="139" on="1"/>
        <pt x="156" y="-21" on="1"/>
        <pt x="115" y="20" on="1"/>
        <pt x="275" y="180" on="1"/>
        <pt x="115" y="340" on="1"/>
        <pt x="156" y="381" on="1"/>
        <pt x="316" y="221" on="1"/>
        <pt x="476" y="381" on="1"/>
        <pt x="517" y="340" on="1"/>
        <pt x="357" y="180" on="1"/>
        <pt x="517" y="20" on="1"/>
      </contour>
    </TTGlyph>
    <TTGlyph name="n" xMin="50" yMin="0" xMax="571" yMax="503">
      <contour>
        <pt x="50" y="450" on="1"/>
        <pt x="50" y="500" on="1"/>
        <pt x="182" y="500" on="1"/>
        <pt x="182" y="444" on="1"/>
        <pt x="264" y="500" on="0"/>
        <pt x="339" y="503" on="1"/>
        <pt x="412" y="503" on="0"/>
        <pt x="450" y="474" on="1"/>
        <pt x="467" y="461" on="0"/>
        <pt x="494" y="406" on="0"/>
        <pt x="494" y="368" on="1"/>
        <pt x="494" y="50" on="1"/>
        <pt x="571" y="50" on="1"/>
        <pt x="571" y="0" on="1"/>
        <pt x="369" y="0" on="1"/>
        <pt x="369" y="50" on="1"/>
        <pt x="429" y="50" on="1"/>
        <pt x="429" y="343" on="1"/>
        <pt x="429" y="440" on="0"/>
        <pt x="315" y="440" on="1"/>
        <pt x="253" y="438" on="0"/>
        <pt x="182" y="399" on="1"/>
        <pt x="182" y="50" on="1"/>
        <pt x="257" y="50" on="1"/>
        <pt x="257" y="0" on="1"/>
        <pt x="55" y="0" on="1"/>
        <pt x="55" y="50" on="1"/>
        <pt x="117" y="50" on="1"/>
        <pt x="117" y="450" on="1"/>
      </contour>
    </TTGlyph>
    <TTGlyph name="nine" xMin="70" yMin="-4" xMax="481" yMax="662">
      <contour>
        <pt x="158" y="287" on="0"/>
        <pt x="70" y="376" on="0"/>
        <pt x="70" y="550" on="0"/>
        <pt x="189" y="662" on="0"/>
        <pt x="372" y="662" on="0"/>
        <pt x="481" y="570" on="0"/>
        <pt x="481" y="471" on="1"/>
        <pt x="481" y="413" on="0"/>
        <pt x="443" y="299" on="0"/>
        <pt x="387" y="212" on="0"/>
        <pt x="307" y="128" on="0"/>
        <pt x="241" y="74" on="0"/>
        <pt x="202" y="48" on="1"/>
        <pt x="149" y="14" on="0"/>
        <pt x="114" y="-4" on="1"/>
        <pt x="86" y="44" on="1"/>
        <pt x="98" y="44" on="0"/>
        <pt x="209" y="121" on="0"/>
        <pt x="254" y="158" on="0"/>
        <pt x="274" y="177" on="1"/>
        <pt x="320" y="223" on="0"/>
        <pt x="350" y="269" on="1"/>
        <pt x="271" y="269" on="0"/>
        <pt x="230" y="276" on="1"/>
      </contour>
      <contour>
        <pt x="381" y="324" on="1"/>
        <pt x="413" y="393" on="0"/>
        <pt x="413" y="542" on="0"/>
        <pt x="335" y="607" on="0"/>
        <pt x="218" y="607" on="0"/>
        <pt x="138" y="524" on="0"/>
        <pt x="138" y="404" on="0"/>
        <pt x="196" y="337" on="0"/>
        <pt x="242" y="331" on="1"/>
        <pt x="278" y="324" on="0"/>
      </contour>
    </TTGlyph>
    <TTGlyph name="ntilde" xMin="50" yMin="0" xMax="571" yMax="675">
      <contour>
        <pt x="50" y="450" on="1"/>
        <pt x="50" y="500" on="1"/>
        <pt x="182" y="500" on="1"/>
        <pt x="182" y="444" on="1"/>
        <pt x="264" y="500" on="0"/>
        <pt x="339" y="503" on="1"/>
        <pt x="412" y="503" on="0"/>
        <pt x="450" y="474" on="1"/>
        <pt x="467" y="461" on="0"/>
        <pt x="494" y="406" on="0"/>
        <pt x="494" y="368" on="1"/>
        <pt x="494" y="50" on="1"/>
        <pt x="571" y="50" on="1"/>
        <pt x="571" y="0" on="1"/>
        <pt x="369" y="0" on="1"/>
        <pt x="369" y="50" on="1"/>
        <pt x="429" y="50" on="1"/>
        <pt x="429" y="343" on="1"/>
        <pt x="429" y="440" on="0"/>
        <pt x="315" y="440" on="1"/>
        <pt x="253" y="438" on="0"/>
        <pt x="182" y="399" on="1"/>
        <pt x="182" y="50" on="1"/>
        <pt x="257" y="50" on="1"/>
        <pt x="257" y="0" on="1"/>
        <pt x="55" y="0" on="1"/>
        <pt x="55" y="50" on="1"/>
        <pt x="117" y="50" on="1"/>
        <pt x="117" y="450" on="1"/>
      </contour>
      <contour>
        <pt x="212" y="669" on="1"/>
        <pt x="246" y="669" on="0"/>
        <pt x="381" y="636" on="0"/>
        <pt x="433" y="636" on="0"/>
        <pt x="451" y="654" on="0"/>
        <pt x="455" y="675" on="1"/>
        <pt x="490" y="668" on="1"/>
        <pt x="481" y="629" on="0"/>
        <pt x="447" y="598" on="0"/>
        <pt x="394" y="598" on="0"/>
        <pt x="320" y="617" on="1"/>
        <pt x="254" y="632" on="0"/>
        <pt x="218" y="632" on="1"/>
        <pt x="165" y="632" on="0"/>
        <pt x="158" y="597" on="1"/>
        <pt x="124" y="604" on="1"/>
        <pt x="137" y="669" on="0"/>
      </contour>
    </TTGlyph>
    <TTGlyph name="numbersign" xMin="23" yMin="44" xMax="560" yMax="679">
      <contour>
        <pt x="63" y="458" on="1"/>
        <pt x="69" y="516" on="1"/>
        <pt x="191" y="516" on="1"/>
        <pt x="220" y="679" on="1"/>
        <pt x="280" y="679" on="1"/>
        <pt x="251" y="516" on="1"/>
        <pt x="393" y="516" on="1"/>
        <pt x="422" y="679" on="1"/>
        <pt x="482" y="679" on="1"/>
        <pt x="453" y="516" on="1"/>
        <pt x="560" y="516" on="1"/>
        <pt x="554" y="458" on="1"/>
        <pt x="443" y="458" on="1"/>
        <pt x="413" y="287" on="1"/>
        <pt x="520" y="287" on="1"/>
        <pt x="514" y="229" on="1"/>
        <pt x="403" y="229" on="1"/>
        <pt x="371" y="44" on="1"/>
        <pt x="311" y="44" on="1"/>
        <pt x="343" y="229" on="1"/>
        <pt x="201" y="229" on="1"/>
        <pt x="169" y="44" on="1"/>
        <pt x="109" y="44" on="1"/>
        <pt x="141" y="229" on="1"/>
        <pt x="23" y="229" on="1"/>
        <pt x="29" y="287" on="1"/>
        <pt x="151" y="287" on="1"/>
        <pt x="181" y="458" on="1"/>
      </contour>
      <contour>
        <pt x="241" y="458" on="1"/>
        <pt x="211" y="287" on="1"/>
        <pt x="353" y="287" on="1"/>
        <pt x="383" y="458" on="1"/>
      </contour>
    </TTGlyph>
    <TTGlyph name="o" xMin="45" yMin="-4" xMax="520" yMax="504">
      <contour>
        <pt x="174" y="-4" on="0"/>
        <pt x="45" y="116" on="0"/>
        <pt x="45" y="363" on="0"/>
        <pt x="182" y="504" on="0"/>
        <pt x="390" y="504" on="0"/>
        <pt x="520" y="384" on="0"/>
        <pt x="520" y="137" on="0"/>
        <pt x="383" y="-4" on="0"/>
      </contour>
      <contour>
        <pt x="210" y="446" on="0"/>
        <pt x="110" y="338" on="0"/>
        <pt x="110" y="153" on="0"/>
        <pt x="205" y="54" on="0"/>
        <pt x="355" y="54" on="0"/>
        <pt x="455" y="161" on="0"/>
        <pt x="455" y="346" on="0"/>
        <pt x="359" y="446" on="0"/>
      </contour>
    </TTGlyph>
    <TTGlyph name="oacute" xMin="46" yMin="-4" xMax="521" yMax="750">
      <contour>
        <pt x="175" y="-4" on="0"/>
        <pt x="46" y="116" on="0"/>
        <pt x="46" y="363" on="0"/>
        <pt x="183" y="504" on="0"/>
        <pt x="391" y="504" on="0"/>
        <pt x="521" y="384" on="0"/>
        <pt x="521" y="137" on="0"/>
        <pt x="384" y="-4" on="0"/>
      </contour>
      <contour>
        <pt x="211" y="446" on="0"/>
        <pt x="111" y="338" on="0"/>
        <pt x="111" y="153" on="0"/>
        <pt x="206" y="54" on="0"/>
        <pt x="356" y="54" on="0"/>
        <pt x="456" y="161" on="0"/>
        <pt x="456" y="346" on="0"/>
        <pt x="360" y="446" on="0"/>
      </contour>
      <contour>
        <pt x="404" y="750" on="1"/>
        <pt x="464" y="743" on="1"/>
        <pt x="345" y="595" on="1"/>
        <pt x="300" y="603" on="1"/>
      </contour>
    </TTGlyph>
    <TTGlyph name="ocircumflex" xMin="46" yMin="-4" xMax="521" yMax="761">
      <contour>
        <pt x="175" y="-4" on="0"/>
        <pt x="46" y="116" on="0"/>
        <pt x="46" y="363" on="0"/>
        <pt x="183" y="504" on="0"/>
        <pt x="391" y="504" on="0"/>
        <pt x="521" y="384" on="0"/>
        <pt x="521" y="137" on="0"/>
        <pt x="384" y="-4" on="0"/>
      </contour>
      <contour>
        <pt x="211" y="446" on="0"/>
        <pt x="111" y="338" on="0"/>
        <pt x="111" y="153" on="0"/>
        <pt x="206" y="54" on="0"/>
        <pt x="356" y="54" on="0"/>
        <pt x="456" y="161" on="0"/>
        <pt x="456" y="346" on="0"/>
        <pt x="360" y="446" on="0"/>
      </contour>
      <contour>
        <pt x="130" y="600" on="1"/>
        <pt x="297" y="761" on="1"/>
        <pt x="455" y="607" on="0"/>
        <pt x="463" y="600" on="1"/>
        <pt x="430" y="571" on="1"/>
        <pt x="296" y="704" on="1"/>
        <pt x="164" y="571" on="1"/>
      </contour>
    </TTGlyph>
    <TTGlyph name="odieresis" xMin="46" yMin="-4" xMax="521" yMax="660">
      <contour>
        <pt x="175" y="-4" on="0"/>
        <pt x="46" y="116" on="0"/>
        <pt x="46" y="363" on="0"/>
        <pt x="183" y="504" on="0"/>
        <pt x="391" y="504" on="0"/>
        <pt x="521" y="384" on="0"/>
        <pt x="521" y="137" on="0"/>
        <pt x="384" y="-4" on="0"/>
      </contour>
      <contour>
        <pt x="211" y="446" on="0"/>
        <pt x="111" y="338" on="0"/>
        <pt x="111" y="153" on="0"/>
        <pt x="206" y="54" on="0"/>
        <pt x="356" y="54" on="0"/>
        <pt x="456" y="161" on="0"/>
        <pt x="456" y="346" on="0"/>
        <pt x="360" y="446" on="0"/>
      </contour>
      <contour>
        <pt x="165" y="580" on="0"/>
        <pt x="144" y="603" on="0"/>
        <pt x="144" y="639" on="0"/>
        <pt x="165" y="660" on="0"/>
        <pt x="200" y="660" on="0"/>
        <pt x="221" y="639" on="0"/>
        <pt x="221" y="601" on="0"/>
        <pt x="199" y="580" on="0"/>
      </contour>
      <contour>
        <pt x="380" y="580" on="0"/>
        <pt x="360" y="603" on="0"/>
        <pt x="360" y="639" on="0"/>
        <pt x="380" y="660" on="0"/>
        <pt x="397" y="660" on="1"/>
        <pt x="437" y="660" on="0"/>
        <pt x="437" y="620" on="1"/>
        <pt x="437" y="601" on="0"/>
        <pt x="415" y="580" on="0"/>
      </contour>
    </TTGlyph>
    <TTGlyph name="oe" xMin="45" yMin="-4" xMax="748" yMax="505">
      <contour>
        <pt x="426" y="44" on="1"/>
        <pt x="363" y="-4" on="0"/>
        <pt x="174" y="-4" on="0"/>
        <pt x="45" y="116" on="0"/>
        <pt x="45" y="363" on="0"/>
        <pt x="182" y="504" on="0"/>
        <pt x="381" y="504" on="0"/>
        <pt x="441" y="456" on="1"/>
        <pt x="397" y="406" on="1"/>
        <pt x="352" y="446" on="0"/>
        <pt x="210" y="446" on="0"/>
        <pt x="110" y="338" on="0"/>
        <pt x="110" y="153" on="0"/>
        <pt x="205" y="54" on="0"/>
        <pt x="339" y="54" on="0"/>
        <pt x="385" y="89" on="1"/>
      </contour>
      <contour>
        <pt x="385" y="224" on="1"/>
        <pt x="385" y="135" on="0"/>
        <pt x="487" y="54" on="0"/>
        <pt x="555" y="54" on="1"/>
        <pt x="599" y="54" on="0"/>
        <pt x="692" y="71" on="0"/>
        <pt x="707" y="78" on="1"/>
        <pt x="720" y="31" on="1"/>
        <pt x="697" y="16" on="0"/>
        <pt x="592" y="-4" on="0"/>
        <pt x="505" y="-4" on="0"/>
        <pt x="436" y="14" on="0"/>
        <pt x="364" y="60" on="0"/>
        <pt x="322" y="158" on="0"/>
        <pt x="322" y="229" on="1"/>
        <pt x="322" y="361" on="0"/>
        <pt x="390" y="431" on="1"/>
        <pt x="461" y="504" on="0"/>
        <pt x="649" y="504" on="0"/>
        <pt x="748" y="400" on="0"/>
        <pt x="748" y="306" on="1"/>
        <pt x="748" y="286" on="0"/>
        <pt x="745" y="263" on="1"/>
        <pt x="388" y="263" on="1"/>
        <pt x="385" y="242" on="0"/>
      </contour>
      <contour>
        <pt x="688" y="313" on="1"/>
        <pt x="688" y="375" on="0"/>
        <pt x="614" y="442" on="0"/>
        <pt x="565" y="442" on="1"/>
        <pt x="498" y="442" on="0"/>
        <pt x="410" y="361" on="0"/>
        <pt x="395" y="302" on="1"/>
        <pt x="688" y="302" on="1"/>
        <pt x="688" y="308" on="0"/>
      </contour>
    </TTGlyph>
    <TTGlyph name="ograve" xMin="46" yMin="-4" xMax="521" yMax="750">
      <contour>
        <pt x="175" y="-4" on="0"/>
        <pt x="46" y="116" on="0"/>
        <pt x="46" y="363" on="0"/>
        <pt x="183" y="504" on="0"/>
        <pt x="391" y="504" on="0"/>
        <pt x="521" y="384" on="0"/>
        <pt x="521" y="137" on="0"/>
        <pt x="384" y="-4" on="0"/>
      </contour>
      <contour>
        <pt x="211" y="446" on="0"/>
        <pt x="111" y="338" on="0"/>
        <pt x="111" y="153" on="0"/>
        <pt x="206" y="54" on="0"/>
        <pt x="356" y="54" on="0"/>
        <pt x="456" y="161" on="0"/>
        <pt x="456" y="346" on="0"/>
        <pt x="360" y="446" on="0"/>
      </contour>
      <contour>
        <pt x="326" y="603" on="1"/>
        <pt x="280" y="595" on="1"/>
        <pt x="162" y="743" on="1"/>
        <pt x="222" y="750" on="1"/>
      </contour>
    </TTGlyph>
    <TTGlyph name="one" xMin="77" yMin="0" xMax="300" yMax="662">
      <contour>
        <pt x="78" y="577" on="1"/>
        <pt x="78" y="577" on="0"/>
        <pt x="77" y="626" on="1"/>
        <pt x="237" y="662" on="1"/>
        <pt x="300" y="662" on="1"/>
        <pt x="300" y="0" on="1"/>
        <pt x="237" y="0" on="1"/>
        <pt x="237" y="613" on="1"/>
      </contour>
    </TTGlyph>
    <TTGlyph name="onehalf" xMin="81" yMin="0" xMax="815" yMax="750">
      <contour>
        <pt x="82" y="691" on="1"/>
        <pt x="82" y="691" on="0"/>
        <pt x="81" y="725" on="1"/>
        <pt x="190" y="749" on="1"/>
        <pt x="233" y="749" on="1"/>
        <pt x="233" y="300" on="1"/>
        <pt x="190" y="300" on="1"/>
        <pt x="190" y="716" on="1"/>
      </contour>
      <contour>
        <pt x="537" y="413" on="1"/>
        <pt x="600" y="448" on="0"/>
        <pt x="716" y="448" on="0"/>
        <pt x="790" y="392" on="0"/>
        <pt x="790" y="328" on="1"/>
        <pt x="790" y="237" on="0"/>
        <pt x="678" y="128" on="1"/>
        <pt x="662" y="113" on="0"/>
        <pt x="593" y="49" on="0"/>
        <pt x="582" y="38" on="1"/>
        <pt x="772" y="38" on="1"/>
        <pt x="782" y="122" on="1"/>
        <pt x="815" y="119" on="1"/>
        <pt x="805" y="1" on="1"/>
        <pt x="531" y="1" on="1"/>
        <pt x="523" y="38" on="1"/>
        <pt x="649" y="160" on="0"/>
        <pt x="676" y="191" on="1"/>
        <pt x="745" y="270" on="0"/>
        <pt x="745" y="330" on="1"/>
        <pt x="745" y="359" on="0"/>
        <pt x="707" y="411" on="0"/>
        <pt x="659" y="411" on="1"/>
        <pt x="614" y="411" on="0"/>
        <pt x="569" y="388" on="1"/>
        <pt x="554" y="381" on="1"/>
      </contour>
      <contour>
        <pt x="509" y="750" on="1"/>
        <pt x="556" y="750" on="1"/>
        <pt x="305" y="0" on="1"/>
        <pt x="257" y="0" on="1"/>
      </contour>
    </TTGlyph>
    <TTGlyph name="onequarter" xMin="79" yMin="-1" xMax="770" yMax="750">
      <contour>
        <pt x="509" y="750" on="1"/>
        <pt x="556" y="750" on="1"/>
        <pt x="305" y="0" on="1"/>
        <pt x="257" y="0" on="1"/>
      </contour>
      <contour>
        <pt x="675" y="98" on="1"/>
        <pt x="465" y="98" on="1"/>
        <pt x="453" y="136" on="1"/>
        <pt x="675" y="463" on="1"/>
        <pt x="723" y="463" on="1"/>
        <pt x="723" y="136" on="1"/>
        <pt x="755" y="136" on="1"/>
        <pt x="756" y="98" on="1"/>
        <pt x="723" y="98" on="1"/>
        <pt x="723" y="34" on="1"/>
        <pt x="770" y="31" on="1"/>
        <pt x="769" y="1" on="0"/>
        <pt x="769" y="0" on="1"/>
        <pt x="630" y="-1" on="1"/>
        <pt x="630" y="30" on="1"/>
        <pt x="667" y="35" on="1"/>
        <pt x="672" y="36" on="0"/>
        <pt x="675" y="44" on="1"/>
      </contour>
      <contour>
        <pt x="675" y="136" on="1"/>
        <pt x="675" y="393" on="1"/>
        <pt x="500" y="136" on="1"/>
      </contour>
      <contour>
        <pt x="80" y="692" on="1"/>
        <pt x="80" y="692" on="0"/>
        <pt x="79" y="725" on="1"/>
        <pt x="188" y="749" on="1"/>
        <pt x="230" y="749" on="1"/>
        <pt x="230" y="300" on="1"/>
        <pt x="188" y="300" on="1"/>
        <pt x="188" y="716" on="1"/>
      </contour>
    </TTGlyph>
    <TTGlyph name="onesuperior" xMin="87" yMin="500" xMax="170" yMax="749">
      <contour>
        <pt x="170" y="749" on="1"/>
        <pt x="170" y="500" on="1"/>
        <pt x="146" y="500" on="1"/>
        <pt x="146" y="731" on="1"/>
        <pt x="87" y="717" on="1"/>
        <pt x="87" y="735" on="1"/>
        <pt x="146" y="749" on="1"/>
      </contour>
    </TTGlyph>
    <TTGlyph name="ordfeminine" xMin="71" yMin="499" xMax="238" yMax="682">
      <contour>
        <pt x="76" y="663" on="1"/>
        <pt x="123" y="682" on="0"/>
        <pt x="145" y="682" on="1"/>
        <pt x="210" y="682" on="0"/>
        <pt x="210" y="629" on="1"/>
        <pt x="210" y="518" on="1"/>
        <pt x="238" y="518" on="1"/>
        <pt x="238" y="500" on="1"/>
        <pt x="190" y="500" on="1"/>
        <pt x="186" y="514" on="1"/>
        <pt x="154" y="499" on="0"/>
        <pt x="123" y="499" on="1"/>
        <pt x="75" y="499" on="0"/>
        <pt x="72" y="537" on="1"/>
        <pt x="72" y="540" on="0"/>
        <pt x="72" y="543" on="1"/>
        <pt x="72" y="572" on="0"/>
        <pt x="108" y="582" on="1"/>
        <pt x="126" y="587" on="0"/>
        <pt x="186" y="594" on="1"/>
        <pt x="186" y="621" on="1"/>
        <pt x="186" y="661" on="0"/>
        <pt x="145" y="661" on="1"/>
        <pt x="110" y="661" on="0"/>
        <pt x="82" y="647" on="1"/>
      </contour>
      <contour>
        <pt x="94" y="540" on="1"/>
        <pt x="95" y="515" on="0"/>
        <pt x="156" y="515" on="0"/>
        <pt x="186" y="527" on="1"/>
        <pt x="186" y="579" on="1"/>
        <pt x="127" y="576" on="0"/>
        <pt x="116" y="572" on="1"/>
        <pt x="93" y="565" on="0"/>
        <pt x="93" y="546" on="1"/>
        <pt x="93" y="543" on="0"/>
      </contour>
    </TTGlyph>
    <TTGlyph name="ordmasculine" xMin="58" yMin="501" xMax="242" yMax="699">
      <contour>
        <pt x="108" y="501" on="0"/>
        <pt x="58" y="548" on="0"/>
        <pt x="58" y="644" on="0"/>
        <pt x="111" y="699" on="0"/>
        <pt x="192" y="699" on="0"/>
        <pt x="242" y="653" on="0"/>
        <pt x="242" y="557" on="0"/>
        <pt x="189" y="501" on="0"/>
      </contour>
      <contour>
        <pt x="122" y="677" on="0"/>
        <pt x="83" y="635" on="0"/>
        <pt x="83" y="563" on="0"/>
        <pt x="120" y="524" on="0"/>
        <pt x="178" y="524" on="0"/>
        <pt x="217" y="566" on="0"/>
        <pt x="217" y="638" on="0"/>
        <pt x="180" y="677" on="0"/>
      </contour>
    </TTGlyph>
    <TTGlyph name="oslash" xMin="75" yMin="-7" xMax="550" yMax="508">
      <contour>
        <pt x="131" y="64" on="1"/>
        <pt x="75" y="128" on="0"/>
        <pt x="75" y="363" on="0"/>
        <pt x="212" y="504" on="0"/>
        <pt x="317" y="504" on="1"/>
        <pt x="401" y="504" on="0"/>
        <pt x="458" y="466" on="1"/>
        <pt x="493" y="508" on="1"/>
        <pt x="526" y="486" on="1"/>
        <pt x="488" y="440" on="1"/>
        <pt x="550" y="376" on="0"/>
        <pt x="550" y="137" on="0"/>
        <pt x="413" y="-4" on="0"/>
        <pt x="217" y="-4" on="0"/>
        <pt x="160" y="38" on="1"/>
        <pt x="124" y="-7" on="1"/>
        <pt x="92" y="17" on="1"/>
      </contour>
      <contour>
        <pt x="385" y="54" on="0"/>
        <pt x="485" y="161" on="0"/>
        <pt x="485" y="336" on="0"/>
        <pt x="445" y="387" on="1"/>
        <pt x="202" y="89" on="1"/>
        <pt x="246" y="54" on="0"/>
      </contour>
      <contour>
        <pt x="240" y="446" on="0"/>
        <pt x="140" y="338" on="0"/>
        <pt x="140" y="167" on="0"/>
        <pt x="175" y="118" on="1"/>
        <pt x="416" y="414" on="1"/>
        <pt x="373" y="446" on="0"/>
        <pt x="317" y="446" on="1"/>
      </contour>
    </TTGlyph>
    <TTGlyph name="otilde" xMin="46" yMin="-4" xMax="521" yMax="661">
      <contour>
        <pt x="175" y="-4" on="0"/>
        <pt x="46" y="116" on="0"/>
        <pt x="46" y="363" on="0"/>
        <pt x="183" y="504" on="0"/>
        <pt x="391" y="504" on="0"/>
        <pt x="521" y="384" on="0"/>
        <pt x="521" y="137" on="0"/>
        <pt x="384" y="-4" on="0"/>
      </contour>
      <contour>
        <pt x="211" y="446" on="0"/>
        <pt x="111" y="338" on="0"/>
        <pt x="111" y="153" on="0"/>
        <pt x="206" y="54" on="0"/>
        <pt x="356" y="54" on="0"/>
        <pt x="456" y="161" on="0"/>
        <pt x="456" y="346" on="0"/>
        <pt x="360" y="446" on="0"/>
      </contour>
      <contour>
        <pt x="200" y="655" on="1"/>
        <pt x="234" y="655" on="0"/>
        <pt x="369" y="622" on="0"/>
        <pt x="421" y="622" on="0"/>
        <pt x="439" y="640" on="0"/>
        <pt x="443" y="661" on="1"/>
        <pt x="478" y="654" on="1"/>
        <pt x="469" y="615" on="0"/>
        <pt x="435" y="584" on="0"/>
        <pt x="382" y="584" on="0"/>
        <pt x="308" y="603" on="1"/>
        <pt x="242" y="618" on="0"/>
        <pt x="206" y="618" on="1"/>
        <pt x="153" y="618" on="0"/>
        <pt x="146" y="583" on="1"/>
        <pt x="112" y="590" on="1"/>
        <pt x="125" y="655" on="0"/>
      </contour>
    </TTGlyph>
    <TTGlyph name="p" xMin="60" yMin="-250" xMax="525" yMax="509">
      <contour>
        <pt x="60" y="450" on="1"/>
        <pt x="60" y="500" on="1"/>
        <pt x="192" y="500" on="1"/>
        <pt x="192" y="463" on="1"/>
        <pt x="255" y="509" on="0"/>
        <pt x="326" y="509" on="1"/>
        <pt x="394" y="509" on="0"/>
        <pt x="454" y="467" on="1"/>
        <pt x="486" y="444" on="0"/>
        <pt x="525" y="346" on="0"/>
        <pt x="525" y="276" on="1"/>
        <pt x="525" y="143" on="0"/>
        <pt x="459" y="76" on="1"/>
        <pt x="384" y="0" on="0"/>
        <pt x="265" y="0" on="1"/>
        <pt x="230" y="0" on="0"/>
        <pt x="192" y="5" on="1"/>
        <pt x="192" y="-200" on="1"/>
        <pt x="277" y="-200" on="1"/>
        <pt x="277" y="-250" on="1"/>
        <pt x="65" y="-250" on="1"/>
        <pt x="65" y="-200" on="1"/>
        <pt x="127" y="-200" on="1"/>
        <pt x="127" y="450" on="1"/>
      </contour>
      <contour>
        <pt x="192" y="422" on="1"/>
        <pt x="192" y="56" on="1"/>
        <pt x="221" y="49" on="0"/>
        <pt x="255" y="49" on="1"/>
        <pt x="354" y="49" on="0"/>
        <pt x="460" y="165" on="0"/>
        <pt x="460" y="271" on="1"/>
        <pt x="460" y="394" on="0"/>
        <pt x="388" y="432" on="1"/>
        <pt x="353" y="451" on="0"/>
        <pt x="261" y="451" on="0"/>
      </contour>
    </TTGlyph>
    <TTGlyph name="paragraph" xMin="115" yMin="0" xMax="498" yMax="700">
      <contour>
        <pt x="209" y="359" on="0"/>
        <pt x="115" y="447" on="0"/>
        <pt x="115" y="601" on="0"/>
        <pt x="212" y="700" on="0"/>
        <pt x="281" y="700" on="1"/>
        <pt x="341" y="700" on="1"/>
        <pt x="341" y="200" on="1"/>
        <pt x="281" y="200" on="1"/>
        <pt x="281" y="359" on="1"/>
      </contour>
      <contour>
        <pt x="498" y="700" on="1"/>
        <pt x="498" y="0" on="1"/>
        <pt x="448" y="0" on="1"/>
        <pt x="448" y="700" on="1"/>
      </contour>
    </TTGlyph>
    <TTGlyph name="parenleft" xMin="64" yMin="-200" xMax="267" yMax="750">
      <contour>
        <pt x="145" y="487" on="0"/>
        <pt x="129" y="350" on="0"/>
        <pt x="129" y="166" on="0"/>
        <pt x="155" y="0" on="0"/>
        <pt x="188" y="-89" on="0"/>
        <pt x="233" y="-154" on="0"/>
        <pt x="244" y="-162" on="1"/>
        <pt x="254" y="-170" on="0"/>
        <pt x="267" y="-178" on="1"/>
        <pt x="235" y="-200" on="1"/>
        <pt x="226" y="-196" on="0"/>
        <pt x="218" y="-193" on="0"/>
        <pt x="177" y="-163" on="0"/>
        <pt x="149" y="-126" on="0"/>
        <pt x="108" y="-51" on="0"/>
        <pt x="96" y="-5" on="1"/>
        <pt x="64" y="111" on="0"/>
        <pt x="64" y="270" on="1"/>
        <pt x="64" y="445" on="0"/>
        <pt x="98" y="554" on="1"/>
        <pt x="130" y="656" on="0"/>
        <pt x="168" y="697" on="1"/>
        <pt x="207" y="740" on="0"/>
        <pt x="226" y="746" on="1"/>
        <pt x="235" y="750" on="1"/>
        <pt x="267" y="721" on="1"/>
        <pt x="258" y="718" on="0"/>
        <pt x="226" y="686" on="0"/>
        <pt x="199" y="649" on="0"/>
        <pt x="168" y="576" on="0"/>
      </contour>
    </TTGlyph>
    <TTGlyph name="parenright" xMin="64" yMin="-200" xMax="267" yMax="750">
      <contour>
        <pt x="248" y="506" on="0"/>
        <pt x="267" y="358" on="0"/>
        <pt x="267" y="185" on="0"/>
        <pt x="248" y="41" on="0"/>
        <pt x="223" y="-51" on="0"/>
        <pt x="182" y="-126" on="0"/>
        <pt x="154" y="-163" on="0"/>
        <pt x="113" y="-193" on="0"/>
        <pt x="105" y="-196" on="0"/>
        <pt x="96" y="-200" on="1"/>
        <pt x="64" y="-178" on="1"/>
        <pt x="0" y="0" on="0"/>
        <pt x="66" y="-177" on="1"/>
        <pt x="144" y="-132" on="0"/>
        <pt x="179" y="27" on="1"/>
        <pt x="202" y="130" on="0"/>
        <pt x="202" y="380" on="0"/>
        <pt x="174" y="554" on="0"/>
        <pt x="133" y="645" on="0"/>
        <pt x="92" y="704" on="0"/>
        <pt x="78" y="712" on="1"/>
        <pt x="64" y="721" on="1"/>
        <pt x="96" y="750" on="1"/>
        <pt x="108" y="747" on="0"/>
        <pt x="147" y="716" on="0"/>
        <pt x="180" y="678" on="0"/>
        <pt x="219" y="602" on="0"/>
      </contour>
    </TTGlyph>
    <TTGlyph name="percent" xMin="80" yMin="-5" xMax="610" yMax="520">
      <contour>
        <pt x="498" y="500" on="1"/>
        <pt x="558" y="500" on="1"/>
        <pt x="180" y="0" on="1"/>
        <pt x="120" y="0" on="1"/>
      </contour>
      <contour>
        <pt x="80" y="400" on="1"/>
        <pt x="80" y="449" on="0"/>
        <pt x="150" y="520" on="0"/>
        <pt x="200" y="520" on="1"/>
        <pt x="320" y="520" on="0"/>
        <pt x="320" y="400" on="1"/>
        <pt x="320" y="350" on="0"/>
        <pt x="249" y="280" on="0"/>
        <pt x="200" y="280" on="1"/>
        <pt x="80" y="280" on="0"/>
      </contour>
      <contour>
        <pt x="166" y="482" on="0"/>
        <pt x="120" y="434" on="0"/>
        <pt x="120" y="360" on="0"/>
        <pt x="164" y="318" on="0"/>
        <pt x="233" y="318" on="0"/>
        <pt x="280" y="366" on="0"/>
        <pt x="280" y="440" on="0"/>
        <pt x="235" y="482" on="0"/>
      </contour>
      <contour>
        <pt x="370" y="115" on="1"/>
        <pt x="370" y="164" on="0"/>
        <pt x="440" y="235" on="0"/>
        <pt x="490" y="235" on="1"/>
        <pt x="610" y="235" on="0"/>
        <pt x="610" y="115" on="1"/>
        <pt x="610" y="65" on="0"/>
        <pt x="539" y="-5" on="0"/>
        <pt x="490" y="-5" on="1"/>
        <pt x="370" y="-5" on="0"/>
      </contour>
      <contour>
        <pt x="456" y="197" on="0"/>
        <pt x="410" y="149" on="0"/>
        <pt x="410" y="75" on="0"/>
        <pt x="454" y="33" on="0"/>
        <pt x="523" y="33" on="0"/>
        <pt x="570" y="81" on="0"/>
        <pt x="570" y="155" on="0"/>
        <pt x="525" y="197" on="0"/>
      </contour>
    </TTGlyph>
    <TTGlyph name="period" xMin="34" yMin="-8" xMax="104" yMax="70">
      <contour>
        <pt x="34" y="29" on="1"/>
        <pt x="34" y="48" on="0"/>
        <pt x="53" y="70" on="0"/>
        <pt x="69" y="70" on="1"/>
        <pt x="104" y="70" on="0"/>
        <pt x="104" y="29" on="1"/>
        <pt x="104" y="12" on="0"/>
        <pt x="84" y="-8" on="0"/>
        <pt x="69" y="-8" on="1"/>
        <pt x="34" y="-8" on="0"/>
      </contour>
    </TTGlyph>
    <TTGlyph name="periodcentered" xMin="34" yMin="348" xMax="99" yMax="420">
      <contour>
        <pt x="34" y="382" on="1"/>
        <pt x="34" y="399" on="0"/>
        <pt x="52" y="420" on="0"/>
        <pt x="66" y="420" on="1"/>
        <pt x="99" y="420" on="0"/>
        <pt x="99" y="382" on="1"/>
        <pt x="99" y="367" on="0"/>
        <pt x="80" y="348" on="0"/>
        <pt x="66" y="348" on="1"/>
        <pt x="34" y="348" on="0"/>
      </contour>
    </TTGlyph>
    <TTGlyph name="perthousand" xMin="80" yMin="-5" xMax="897" yMax="520">
      <contour>
        <pt x="516" y="520" on="1"/>
        <pt x="576" y="520" on="1"/>
        <pt x="180" y="0" on="1"/>
        <pt x="120" y="0" on="1"/>
      </contour>
      <contour>
        <pt x="80" y="400" on="1"/>
        <pt x="80" y="449" on="0"/>
        <pt x="150" y="520" on="0"/>
        <pt x="200" y="520" on="1"/>
        <pt x="320" y="520" on="0"/>
        <pt x="320" y="400" on="1"/>
        <pt x="320" y="350" on="0"/>
        <pt x="249" y="280" on="0"/>
        <pt x="200" y="280" on="1"/>
        <pt x="80" y="280" on="0"/>
      </contour>
      <contour>
        <pt x="166" y="482" on="0"/>
        <pt x="120" y="434" on="0"/>
        <pt x="120" y="360" on="0"/>
        <pt x="164" y="318" on="0"/>
        <pt x="233" y="318" on="0"/>
        <pt x="280" y="366" on="0"/>
        <pt x="280" y="440" on="0"/>
        <pt x="235" y="482" on="0"/>
      </contour>
      <contour>
        <pt x="370" y="115" on="1"/>
        <pt x="370" y="164" on="0"/>
        <pt x="440" y="235" on="0"/>
        <pt x="490" y="235" on="1"/>
        <pt x="610" y="235" on="0"/>
        <pt x="610" y="115" on="1"/>
        <pt x="610" y="65" on="0"/>
        <pt x="539" y="-5" on="0"/>
        <pt x="490" y="-5" on="1"/>
        <pt x="370" y="-5" on="0"/>
      </contour>
      <contour>
        <pt x="456" y="197" on="0"/>
        <pt x="410" y="149" on="0"/>
        <pt x="410" y="75" on="0"/>
        <pt x="454" y="33" on="0"/>
        <pt x="523" y="33" on="0"/>
        <pt x="570" y="81" on="0"/>
        <pt x="570" y="155" on="0"/>
        <pt x="525" y="197" on="0"/>
      </contour>
      <contour>
        <pt x="657" y="115" on="1"/>
        <pt x="657" y="164" on="0"/>
        <pt x="727" y="235" on="0"/>
        <pt x="777" y="235" on="1"/>
        <pt x="897" y="235" on="0"/>
        <pt x="897" y="115" on="1"/>
        <pt x="897" y="65" on="0"/>
        <pt x="826" y="-5" on="0"/>
        <pt x="777" y="-5" on="1"/>
        <pt x="657" y="-5" on="0"/>
      </contour>
      <contour>
        <pt x="744" y="197" on="0"/>
        <pt x="697" y="149" on="0"/>
        <pt x="697" y="75" on="0"/>
        <pt x="742" y="33" on="0"/>
        <pt x="810" y="33" on="0"/>
        <pt x="857" y="81" on="0"/>
        <pt x="857" y="155" on="0"/>
        <pt x="812" y="197" on="0"/>
      </contour>
    </TTGlyph>
    <TTGlyph name="plus" xMin="146" yMin="0" xMax="646" yMax="500">
      <contour>
        <pt x="146" y="290" on="1"/>
        <pt x="366" y="290" on="1"/>
        <pt x="366" y="500" on="1"/>
        <pt x="426" y="500" on="1"/>
        <pt x="426" y="290" on="1"/>
        <pt x="646" y="290" on="1"/>
        <pt x="646" y="232" on="1"/>
        <pt x="426" y="232" on="1"/>
        <pt x="426" y="0" on="1"/>
        <pt x="366" y="0" on="1"/>
        <pt x="366" y="232" on="1"/>
        <pt x="146" y="232" on="1"/>
      </contour>
    </TTGlyph>
    <TTGlyph name="plusminus" xMin="146" yMin="65" xMax="646" yMax="700">
      <contour>
        <pt x="146" y="490" on="1"/>
        <pt x="366" y="490" on="1"/>
        <pt x="366" y="700" on="1"/>
        <pt x="426" y="700" on="1"/>
        <pt x="426" y="490" on="1"/>
        <pt x="646" y="490" on="1"/>
        <pt x="646" y="432" on="1"/>
        <pt x="426" y="432" on="1"/>
        <pt x="426" y="200" on="1"/>
        <pt x="366" y="200" on="1"/>
        <pt x="366" y="432" on="1"/>
        <pt x="146" y="432" on="1"/>
      </contour>
      <contour>
        <pt x="146" y="123" on="1"/>
        <pt x="646" y="123" on="1"/>
        <pt x="646" y="65" on="1"/>
        <pt x="146" y="65" on="1"/>
      </contour>
    </TTGlyph>
    <TTGlyph name="q" xMin="45" yMin="-250" xMax="538" yMax="505">
      <contour>
        <pt x="326" y="-250" on="1"/>
        <pt x="326" y="-200" on="1"/>
        <pt x="388" y="-200" on="1"/>
        <pt x="388" y="31" on="1"/>
        <pt x="332" y="-4" on="0"/>
        <pt x="258" y="-4" on="1"/>
        <pt x="185" y="-4" on="0"/>
        <pt x="123" y="37" on="1"/>
        <pt x="88" y="60" on="0"/>
        <pt x="45" y="159" on="0"/>
        <pt x="45" y="230" on="1"/>
        <pt x="45" y="361" on="0"/>
        <pt x="112" y="430" on="1"/>
        <pt x="183" y="504" on="0"/>
        <pt x="274" y="504" on="1"/>
        <pt x="330" y="504" on="0"/>
        <pt x="388" y="475" on="1"/>
        <pt x="388" y="495" on="1"/>
        <pt x="453" y="500" on="1"/>
        <pt x="453" y="-200" on="1"/>
        <pt x="538" y="-200" on="1"/>
        <pt x="538" y="-250" on="1"/>
      </contour>
      <contour>
        <pt x="332" y="54" on="0"/>
        <pt x="388" y="81" on="1"/>
        <pt x="388" y="432" on="1"/>
        <pt x="342" y="446" on="0"/>
        <pt x="301" y="446" on="1"/>
        <pt x="215" y="446" on="0"/>
        <pt x="110" y="333" on="0"/>
        <pt x="110" y="231" on="1"/>
        <pt x="110" y="177" on="0"/>
        <pt x="141" y="102" on="0"/>
        <pt x="167" y="84" on="1"/>
        <pt x="212" y="54" on="0"/>
      </contour>
    </TTGlyph>
    <TTGlyph name="question" xMin="58" yMin="-34" xMax="414" yMax="700">
      <contour>
        <pt x="237" y="700" on="1"/>
        <pt x="316" y="700" on="0"/>
        <pt x="413" y="616" on="0"/>
        <pt x="414" y="552" on="1"/>
        <pt x="414" y="509" on="0"/>
        <pt x="356" y="429" on="0"/>
        <pt x="282" y="355" on="1"/>
        <pt x="185" y="260" on="0"/>
        <pt x="185" y="128" on="1"/>
        <pt x="140" y="128" on="1"/>
        <pt x="140" y="278" on="0"/>
        <pt x="305" y="451" on="0"/>
        <pt x="349" y="516" on="0"/>
        <pt x="348" y="593" on="0"/>
        <pt x="318" y="620" on="1"/>
        <pt x="286" y="648" on="0"/>
        <pt x="231" y="648" on="1"/>
        <pt x="198" y="648" on="0"/>
        <pt x="123" y="625" on="0"/>
        <pt x="102" y="612" on="1"/>
        <pt x="81" y="599" on="1"/>
        <pt x="58" y="638" on="1"/>
        <pt x="66" y="645" on="0"/>
        <pt x="96" y="666" on="0"/>
        <pt x="190" y="700" on="0"/>
      </contour>
      <contour>
        <pt x="127" y="6" on="1"/>
        <pt x="127" y="26" on="0"/>
        <pt x="148" y="49" on="0"/>
        <pt x="165" y="49" on="1"/>
        <pt x="203" y="49" on="0"/>
        <pt x="203" y="6" on="1"/>
        <pt x="203" y="-12" on="0"/>
        <pt x="182" y="-34" on="0"/>
        <pt x="165" y="-34" on="1"/>
        <pt x="127" y="-34" on="0"/>
      </contour>
    </TTGlyph>
    <TTGlyph name="questiondown" xMin="84" yMin="-200" xMax="440" yMax="534">
      <contour>
        <pt x="261" y="-200" on="1"/>
        <pt x="182" y="-200" on="0"/>
        <pt x="85" y="-116" on="0"/>
        <pt x="84" y="-52" on="1"/>
        <pt x="84" y="-9" on="0"/>
        <pt x="142" y="71" on="0"/>
        <pt x="216" y="145" on="1"/>
        <pt x="313" y="240" on="0"/>
        <pt x="313" y="372" on="1"/>
        <pt x="358" y="372" on="1"/>
        <pt x="358" y="222" on="0"/>
        <pt x="193" y="49" on="0"/>
        <pt x="149" y="-16" on="0"/>
        <pt x="150" y="-93" on="0"/>
        <pt x="180" y="-120" on="1"/>
        <pt x="212" y="-148" on="0"/>
        <pt x="267" y="-148" on="1"/>
        <pt x="300" y="-148" on="0"/>
        <pt x="375" y="-125" on="0"/>
        <pt x="396" y="-112" on="1"/>
        <pt x="417" y="-99" on="1"/>
        <pt x="440" y="-138" on="1"/>
        <pt x="432" y="-145" on="0"/>
        <pt x="402" y="-166" on="0"/>
        <pt x="308" y="-200" on="0"/>
      </contour>
      <contour>
        <pt x="371" y="494" on="1"/>
        <pt x="371" y="474" on="0"/>
        <pt x="350" y="451" on="0"/>
        <pt x="333" y="451" on="1"/>
        <pt x="295" y="451" on="0"/>
        <pt x="295" y="494" on="1"/>
        <pt x="295" y="512" on="0"/>
        <pt x="316" y="534" on="0"/>
        <pt x="333" y="534" on="1"/>
        <pt x="371" y="534" on="0"/>
      </contour>
    </TTGlyph>
    <TTGlyph name="quotedbl" xMin="74" yMin="600" xMax="248" yMax="719">
      <contour>
        <pt x="80" y="600" on="1"/>
        <pt x="79" y="606" on="0"/>
        <pt x="79" y="617" on="0"/>
        <pt x="77" y="633" on="0"/>
        <pt x="76" y="653" on="0"/>
        <pt x="76" y="664" on="1"/>
        <pt x="74" y="699" on="0"/>
        <pt x="74" y="718" on="1"/>
        <pt x="128" y="719" on="1"/>
        <pt x="118" y="662" on="0"/>
        <pt x="118" y="603" on="1"/>
      </contour>
      <contour>
        <pt x="200" y="600" on="1"/>
        <pt x="199" y="606" on="0"/>
        <pt x="199" y="617" on="0"/>
        <pt x="197" y="633" on="0"/>
        <pt x="196" y="653" on="0"/>
        <pt x="196" y="664" on="1"/>
        <pt x="194" y="699" on="0"/>
        <pt x="194" y="718" on="1"/>
        <pt x="248" y="719" on="1"/>
        <pt x="238" y="662" on="0"/>
        <pt x="238" y="603" on="1"/>
      </contour>
    </TTGlyph>
    <TTGlyph name="quotedblbase" xMin="79" yMin="-32" xMax="233" yMax="88">
      <contour>
        <pt x="80" y="6" on="1"/>
        <pt x="80" y="38" on="1"/>
        <pt x="80" y="72" on="0"/>
        <pt x="79" y="85" on="1"/>
        <pt x="123" y="88" on="1"/>
        <pt x="123" y="74" on="0"/>
        <pt x="121" y="46" on="0"/>
        <pt x="120" y="23" on="0"/>
        <pt x="118" y="3" on="0"/>
        <pt x="116" y="-13" on="0"/>
        <pt x="114" y="-24" on="0"/>
        <pt x="113" y="-30" on="1"/>
        <pt x="79" y="-32" on="1"/>
        <pt x="80" y="-21" on="1"/>
        <pt x="80" y="-10" on="0"/>
      </contour>
      <contour>
        <pt x="190" y="6" on="1"/>
        <pt x="190" y="38" on="1"/>
        <pt x="190" y="72" on="0"/>
        <pt x="189" y="85" on="1"/>
        <pt x="233" y="88" on="1"/>
        <pt x="233" y="74" on="0"/>
        <pt x="231" y="46" on="0"/>
        <pt x="230" y="23" on="0"/>
        <pt x="228" y="3" on="0"/>
        <pt x="226" y="-13" on="0"/>
        <pt x="224" y="-24" on="0"/>
        <pt x="223" y="-30" on="1"/>
        <pt x="189" y="-32" on="1"/>
        <pt x="190" y="-21" on="1"/>
        <pt x="190" y="-10" on="0"/>
      </contour>
    </TTGlyph>
</ttFont>
